<?xml version="1.0" encoding="UTF-8" standalone="no"?>
<!-- Created with Inkscape (http://www.inkscape.org/) -->

<svg
   xmlns:dc="http://purl.org/dc/elements/1.1/"
   xmlns:cc="http://creativecommons.org/ns#"
   xmlns:rdf="http://www.w3.org/1999/02/22-rdf-syntax-ns#"
   xmlns:svg="http://www.w3.org/2000/svg"
   xmlns="http://www.w3.org/2000/svg"
   xmlns:xlink="http://www.w3.org/1999/xlink"
   xmlns:sodipodi="http://sodipodi.sourceforge.net/DTD/sodipodi-0.dtd"
   xmlns:inkscape="http://www.inkscape.org/namespaces/inkscape"
   width="81.391518mm"
   height="43.605373mm"
   viewBox="0 0 288.39514 154.50722"
   id="svg3358"
   version="1.1"
   inkscape:version="0.91 r13725"
   sodipodi:docname="signatureheaderfinal.svg">
  <defs
     id="defs3360" />
  <sodipodi:namedview
     id="base"
     pagecolor="#ffffff"
     bordercolor="#666666"
     borderopacity="1.0"
     inkscape:pageopacity="0.0"
     inkscape:pageshadow="2"
     inkscape:zoom="0.98"
     inkscape:cx="-26.210554"
     inkscape:cy="37.25365"
     inkscape:document-units="px"
     inkscape:current-layer="layer1"
     showgrid="false"
     inkscape:window-width="1366"
     inkscape:window-height="705"
     inkscape:window-x="-8"
     inkscape:window-y="-8"
     inkscape:window-maximized="1"
     fit-margin-top="0"
     fit-margin-left="0"
     fit-margin-right="0"
     fit-margin-bottom="0" />
  <metadata
     id="metadata3363">
    <rdf:RDF>
      <cc:Work
         rdf:about="">
        <dc:format>image/svg+xml</dc:format>
        <dc:type
           rdf:resource="http://purl.org/dc/dcmitype/StillImage" />
        <dc:title></dc:title>
      </cc:Work>
    </rdf:RDF>
  </metadata>
  <g
     inkscape:label="Layer 1"
     inkscape:groupmode="layer"
     id="layer1"
     transform="translate(-227.23096,-415.10862)">
    <image
       sodipodi:absref="C:\Users\qianz_000\Desktop\blog\signatureheadertransparent.png"
       xlink:href="signatureheadertransparent.png"
       width="288.39514"
       height="154.50723"
       preserveAspectRatio="none"
       id="image3344"
       x="227.23096"
       y="415.10861" />
    <path
       style="fill:#000000"
       d="m 459.72703,554.61046 c -0.64925,-0.56391 -0.74661,-0.81247 -0.59264,-1.51332 0.34593,-1.57513 1.39345,-3.13705 3.47442,-5.18042 0.70402,-0.69137 1.47737,-1.69157 1.71854,-2.22264 0.24115,-0.53106 0.86893,-1.45894 1.39512,-2.06194 0.52614,-0.60298 0.95901,-1.22783 0.9619,-1.38855 0.006,-0.16071 0.37644,-0.6478 0.8301,-1.08238 0.45359,-0.43462 0.82477,-0.89475 0.82477,-1.02255 0,-0.12782 0.5876,-1.10625 1.30587,-2.17431 1.78175,-2.64961 2.44334,-3.74386 3.11163,-5.14672 0.60064,-1.26084 2.17556,-3.9323 2.45567,-4.16547 0.0907,-0.0757 0.46814,-0.84672 0.83855,-1.71359 0.38599,-0.90341 0.84943,-1.57993 1.08584,-1.58501 0.36654,-0.008 0.36654,-0.0395 0,-0.28465 -0.36162,-0.24179 -0.35583,-0.30919 0.0469,-0.54729 0.25278,-0.14933 0.54459,-0.67285 0.64844,-1.16338 0.10391,-0.49054 0.41482,-1.32486 0.69105,-1.8541 0.27618,-0.52925 0.71212,-1.4571 0.9688,-2.06193 0.25661,-0.60484 0.68879,-1.59456 0.96033,-2.19939 0.2716,-0.60484 0.64868,-1.65642 0.83797,-2.33685 0.18929,-0.68045 0.36283,-1.29901 0.3857,-1.37464 0.0226,-0.0756 0.13314,-0.50861 0.24526,-0.96221 0.11202,-0.45363 0.36742,-1.25778 0.56753,-1.78702 0.20011,-0.52924 0.57956,-1.76639 0.84317,-2.74924 0.26368,-0.98284 0.88903,-2.96229 1.38981,-4.39878 0.90639,-2.60012 1.65428,-5.37645 2.99933,-11.13441 0.38854,-1.66329 0.78333,-3.33345 0.87728,-3.71148 0.92479,-3.72038 1.14986,-6.67071 0.61985,-8.12572 -0.28973,-0.79529 -2.05248,-2.07309 -3.24333,-2.35105 -1.76433,-0.41183 -4.60176,-0.34181 -5.56199,0.13719 -0.48764,0.24323 -1.03391,0.44228 -1.21394,0.44228 -0.35195,0 -2.61237,2.17343 -2.61237,2.51185 0,0.11215 -0.49486,0.77572 -1.09967,1.47454 -0.60486,0.69883 -1.09973,1.35922 -1.09973,1.46755 0,0.10823 -0.3402,0.57154 -0.756,1.0294 -0.41586,0.45787 -1.12722,1.30609 -1.58083,1.88494 -1.65862,2.11641 -4.11505,5.01131 -5.81663,6.85473 -0.95906,1.03906 -1.74377,2.05022 -1.74377,2.24703 0,0.1968 -0.32029,0.73848 -0.71178,1.20369 -0.53864,0.64012 -0.93984,0.84587 -1.64954,0.84587 -0.6503,0 -0.93776,-0.12642 -0.93776,-0.41239 0,-0.2268 -0.12376,-0.41239 -0.27496,-0.41239 -0.1512,0 -0.27491,-0.34187 -0.27491,-0.75972 0,-0.56616 0.50784,-1.29635 1.99322,-2.86588 2.78069,-2.93826 5.70467,-6.20546 5.70467,-6.37432 0,-0.078 0.43242,-0.61247 0.96092,-1.18794 0.52851,-0.57542 0.96149,-1.14011 0.96219,-1.25481 0,-0.22991 1.23797,-1.70109 1.99454,-2.37303 0.26461,-0.23502 0.4811,-0.54408 0.4811,-0.68679 0,-0.27013 0.17464,-0.47804 1.781,-2.12039 0.5325,-0.5445 0.96827,-1.10553 0.96827,-1.24671 0,-0.14119 0.30675,-0.62356 0.68162,-1.07192 1.03043,-1.23241 3.16733,-4.46364 3.16733,-4.78948 0,-0.1579 0.12376,-0.28707 0.27489,-0.28707 0.15121,0 0.27769,-0.21652 0.28104,-0.48112 0.006,-0.26462 0.24806,-0.7904 0.54374,-1.16843 0.29568,-0.37803 0.54037,-0.84195 0.54372,-1.03097 0.006,-0.18901 0.12979,-0.34364 0.28104,-0.34364 0.15121,0 0.27491,-0.16889 0.27491,-0.37532 0,-0.20642 0.22726,-0.67036 0.505,-1.03097 0.2778,-0.36061 0.72764,-1.33609 0.99982,-2.16773 0.27207,-0.83164 0.78714,-2.23159 1.14448,-3.111 0.3574,-0.87943 0.64983,-1.8422 0.64983,-2.13951 0,-0.29731 0.17852,-0.96781 0.39671,-1.48999 0.4871,-1.16584 0.73353,-3.41285 0.82864,-7.55555 0.072,-3.13116 -0.12359,-4.71888 -0.74466,-6.04832 -0.81874,-1.75257 -3.57878,-5.10809 -4.60459,-5.59801 -0.2268,-0.10838 -0.72167,-0.37586 -1.09968,-0.59451 -0.94008,-0.54373 -2.9422,-0.50334 -6.04834,0.12209 -3.7903,0.76315 -3.97861,0.8451 -7.7204,3.3602 -1.53823,1.03393 -3.32218,2.84793 -3.05931,3.11081 0.0822,0.0822 -0.0446,0.14932 -0.28215,0.14932 -0.44676,0 -2.19106,2.41749 -2.52912,3.50529 -0.10576,0.34022 -0.30761,0.61857 -0.44862,0.61857 -0.14108,0 -0.25644,0.19287 -0.25644,0.42862 0,0.23573 -0.11902,0.35506 -0.26437,0.26518 -0.16932,-0.1046 -0.16932,-0.41367 0,-0.85889 0.14535,-0.38251 0.26437,-0.94264 0.26437,-1.24476 0,-1.2206 1.77874,-4.23935 3.50261,-5.94436 0.95553,-0.94506 1.85254,-1.71827 1.99333,-1.71827 0.14083,0 0.96103,-0.5742 1.82262,-1.27598 1.39471,-1.13597 2.00738,-1.41875 4.09078,-1.88785 0.30241,-0.0681 0.79728,-0.24246 1.09974,-0.38745 0.86176,-0.41323 3.70862,-1.15626 3.92703,-1.02501 0.10825,0.065 0.69164,0.0332 1.29649,-0.0709 0.65058,-0.11201 1.57689,-0.0491 2.26812,0.15392 0.64265,0.18874 1.16844,0.27881 1.16844,0.20012 0,-0.0787 0.3593,0.11287 0.79848,0.42555 0.43913,0.31273 0.9031,0.56962 1.03097,0.57088 0.41591,0.006 3.78248,3.41203 4.70752,4.76534 0.49556,0.725 0.94124,1.6631 0.99032,2.08464 0.0492,0.42155 0.18692,0.92451 0.30628,1.11763 0.11942,0.19314 0.24144,0.79858 0.27132,1.34545 0.0301,0.54684 0.15431,2.61735 0.27657,4.6011 0.18391,2.98499 0.14704,3.83816 -0.21383,4.94863 -0.23982,0.73799 -0.58806,2.08409 -0.77394,2.99133 -0.18588,0.90727 -0.42477,1.77327 -0.53088,1.92447 -0.10616,0.15123 -0.28202,0.76979 -0.39085,1.37464 -0.10883,0.60484 -0.29442,1.22339 -0.41239,1.3746 -0.11802,0.15123 -0.35456,0.70793 -0.52566,1.23716 -0.62483,1.93243 -3.09173,6.41733 -3.95812,7.19592 -0.28174,0.25317 -0.49614,0.50061 -0.47641,0.54987 0.0573,0.14283 -0.28978,1.14302 -0.58865,1.69713 -0.35797,0.66373 -0.18639,0.80111 0.61956,0.49623 0.75653,-0.28618 4.24286,-0.25881 4.53733,0.0355 0.10848,0.10868 0.37031,0.19745 0.58159,0.19745 0.21129,0 1.029,0.29493 1.817,0.65537 1.71524,0.78459 3.46105,2.83546 3.51749,4.13218 0.12046,2.76866 -0.47595,5.83532 -2.38418,12.25772 -0.24707,0.83164 -0.56879,2.00206 -0.71496,2.60096 -0.1461,0.59889 -0.37215,1.21746 -0.50234,1.37462 -0.13019,0.15715 -0.50431,1.39355 -0.83148,2.74753 -0.58639,2.42704 -1.69794,6.0878 -2.17417,7.16056 -0.13424,0.30241 -0.51531,1.53957 -0.84682,2.74924 -0.33152,1.20965 -0.76225,2.57052 -0.9571,3.02416 -0.1949,0.45362 -0.50553,1.38148 -0.6903,2.06192 -0.18484,0.68042 -0.57152,1.62291 -0.85932,2.09439 -0.28787,0.47146 -0.52336,0.99416 -0.52336,1.16153 0,0.16738 -0.35473,1.08065 -0.78836,2.02947 -0.43357,0.94886 -1.06384,2.34376 -1.40057,3.09979 -0.98708,2.21638 -1.95912,4.19388 -2.16039,4.39515 -0.10274,0.10278 -0.19299,0.2694 -0.20045,0.3702 -0.0539,0.7292 -0.55016,1.49157 -1.10969,1.7043 -0.36504,0.13887 -0.66379,0.39432 -0.66379,0.56777 0,0.213 0.14674,0.19361 0.45209,-0.0597 0.40463,-0.33585 0.43004,-0.30336 0.24238,0.30998 -0.11537,0.37684 -0.3615,0.87073 -0.54715,1.09754 -0.18564,0.2268 -0.6118,0.9691 -0.94709,1.64954 -0.33522,0.68044 -0.83166,1.60831 -1.10308,2.06194 -0.27143,0.45361 -0.77071,1.31962 -1.10946,1.92446 -1.96571,3.50941 -3.54677,5.91086 -3.89172,5.91086 -0.15201,0 -0.20353,0.1179 -0.1145,0.26211 0.15115,0.24453 -0.24735,0.85386 -1.22922,1.87958 -0.22681,0.23697 -0.41546,0.5015 -0.41916,0.58791 -0.006,0.0865 -0.44434,0.83754 -0.9791,1.66918 -0.53481,0.83165 -1.21214,1.9451 -1.50533,2.47432 -0.29314,0.52922 -0.62576,1.00347 -0.73917,1.05388 -0.1134,0.0503 -0.20619,0.19004 -0.20619,0.31034 0,0.28963 -1.85115,3.35604 -2.27772,3.77311 -0.25893,0.25312 -0.50877,0.17482 -1.1109,-0.34816 z m -83.61735,-15.76274 c -0.19971,-0.62921 0.0907,-1.94785 0.42916,-1.94785 0.13176,0 0.491,-0.49288 0.79832,-1.09529 0.35155,-0.68913 0.81244,-1.15896 1.24271,-1.26696 0.37621,-0.0944 0.68399,-0.29031 0.68399,-0.43532 0,-0.14501 0.25823,-0.18169 0.57383,-0.0816 0.73707,0.23396 1.87795,-0.81415 1.17841,-1.0826 -0.61245,-0.23501 -0.63196,-0.21923 -0.51034,0.41217 0.0859,0.446 0.0306,0.50794 -0.2473,0.2773 -0.19681,-0.16336 -0.45602,-0.2053 -0.57602,-0.0931 -0.12,0.11216 -0.089,-0.045 0.0685,-0.34911 0.45875,-0.88469 1.38077,-1.58956 1.84583,-1.41107 0.34878,0.13382 0.37638,0.0665 0.14774,-0.36097 -0.39346,-0.7352 -0.35173,-0.92252 0.16172,-0.7255 0.30594,0.11734 0.39723,0.0508 0.29511,-0.21535 -0.0814,-0.21194 0.0904,-0.64119 0.38176,-0.95385 0.29129,-0.31269 0.52967,-0.63296 0.52967,-0.71171 0,-0.0789 0.77319,-1.11134 1.71825,-2.29459 0.94505,-1.18326 2.08943,-2.62578 2.54308,-3.20558 0.4536,-0.57981 0.94847,-1.19688 1.09967,-1.37127 0.1512,-0.17438 0.4143,-0.55926 0.58472,-0.85529 0.18702,-0.32502 0.59542,-0.53396 1.0309,-0.52741 0.3967,0.006 0.72127,-0.0868 0.72127,-0.20619 0,-0.11943 -0.18559,-0.21703 -0.41245,-0.21703 -0.62934,0 -0.52694,-0.26372 1.03097,-2.6539 0.79385,-1.21792 1.57903,-2.44897 1.74481,-2.73569 1.79252,-3.09966 2.50846,-4.49285 2.37648,-4.62478 -0.0867,-0.0867 -0.0301,-0.15783 0.12643,-0.15783 0.32978,0 2.5917,-6.02479 2.68548,-7.15285 0.0191,-0.22947 0.13441,-0.57853 0.2562,-0.77568 0.29719,-0.48084 0.38836,-3.61757 0.11022,-3.7895 -0.1211,-0.0748 -0.22026,-0.42488 -0.22026,-0.77781 0,-0.93529 -1.68103,-1.38383 -2.41932,-0.64551 -0.2566,0.25662 -0.33088,0.21079 -0.33411,-0.20619 0,-0.32618 -0.0833,-0.41516 -0.2062,-0.22722 -0.31166,0.47661 -4.33102,2.57899 -4.91088,2.56868 -0.66644,-0.0112 -1.75181,-0.91975 -1.75181,-1.46534 0,-0.60739 0.59275,-1.82461 0.8885,-1.82461 0.3358,0 1.03594,-0.71671 1.03594,-1.06042 0,-0.15122 0.15606,-0.43841 0.34685,-0.6382 0.1908,-0.19983 0.50106,-0.67259 0.68955,-1.05061 0.5641,-1.13142 1.44653,-2.55208 2.22001,-3.57401 0.40052,-0.52924 0.74408,-1.05503 0.76347,-1.16843 0.0191,-0.11342 0.0509,-0.34507 0.0697,-0.51479 0.0242,-0.21598 0.15809,-0.20588 0.44671,0.0337 0.49899,0.41406 0.54907,-0.007 0.0687,-0.57852 -0.301,-0.35796 -0.49597,-0.33035 -1.57035,0.22237 -0.67466,0.34707 -1.12913,0.63106 -1.00989,0.63106 0.11931,0 -0.1934,0.34022 -0.69481,0.75603 -0.50141,0.41585 -1.24908,1.09627 -1.6614,1.51209 -0.41233,0.41583 -0.81957,0.75605 -0.90488,0.75605 -0.0853,0 -0.75456,0.61856 -1.48712,1.37461 -1.35437,1.39775 -2.30892,1.73076 -2.99493,1.04471 -0.90865,-0.90864 0.15878,-2.49333 3.38758,-5.02934 0.57626,-0.45265 1.38882,-1.16402 1.8056,-1.58082 0.41684,-0.41679 0.89105,-0.7578 1.05389,-0.7578 0.16289,0 0.29608,-0.12376 0.29608,-0.27492 0,-0.15121 0.1574,-0.27493 0.34975,-0.27493 0.19236,0 0.78472,-0.35852 1.31629,-0.79671 1.20919,-0.99669 2.87917,-1.70965 3.47187,-1.4822 0.30177,0.1158 0.38507,0.0668 0.25198,-0.14868 -0.12625,-0.20433 2.4e-4,-0.32163 0.34715,-0.32163 1.26864,0 1.59837,2.51694 0.55744,4.25478 -0.27385,0.45721 -0.7028,1.23337 -0.95322,1.72479 -0.25041,0.49142 -0.56491,0.89351 -0.69886,0.89351 -0.13395,0 -0.22199,0.0927 -0.19566,0.20619 0.0842,0.36215 -0.67553,1.71828 -0.96265,1.71828 -0.15219,0 -0.19526,0.0813 -0.0957,0.1809 0.27178,0.27179 -0.38193,0.9403 -0.71698,0.7332 -0.17048,-0.10531 -0.22935,-0.019 -0.1424,0.20922 0.22998,0.60388 -0.26854,1.69308 -0.67091,1.4658 -0.27097,-0.15309 -0.27421,-0.1179 -0.015,0.16201 0.27091,0.29269 0.545,0.27865 1.51212,-0.0775 2.16976,-0.79896 3.32316,-0.80422 4.5316,-0.0206 1.00947,0.65456 1.10586,0.83266 1.4096,2.60389 0.40312,2.35068 0.41359,3.45408 0.0347,3.68804 -0.16,0.0989 -0.21974,0.5083 -0.13256,0.90972 0.42558,1.96128 -3.24194,11.23449 -5.65808,14.30604 -0.28399,0.36111 -0.5164,0.75482 -0.5164,0.87494 0,0.31177 -3.3348,5.32491 -3.61543,5.43506 -0.12839,0.0503 -0.23351,0.22233 -0.23351,0.38206 0,0.15974 -0.19248,0.43118 -0.42773,0.60321 -0.23525,0.17202 -0.46049,0.53576 -0.50049,0.80833 -0.04,0.27256 -0.24955,0.6075 -0.46575,0.74431 -0.21615,0.13676 -0.2914,0.25061 -0.16719,0.25293 0.12418,0.002 0.0622,0.17469 -0.13747,0.38307 -0.19983,0.2084 -0.91999,1.08728 -1.60045,1.95311 -0.68046,0.86586 -1.56786,1.93252 -1.97209,2.37038 -0.40416,0.43787 -0.65938,0.79614 -0.56711,0.79614 0.0923,0 -0.14078,0.3402 -0.51785,0.75603 -0.37714,0.41581 -1.00481,1.18904 -1.3949,1.71827 -1.11756,1.51612 -1.77295,2.1994 -2.10973,2.1994 -0.17129,0 -0.29679,0.0927 -0.2789,0.2062 0.0985,0.62382 -0.0762,0.93559 -0.44493,0.79407 -0.39484,-0.15151 -0.52919,0.11398 -0.43287,0.85545 0.0249,0.18902 -0.0845,0.34366 -0.24238,0.34366 -0.15785,0 -0.28699,0.1912 -0.28699,0.42486 0,1.32913 -2.77943,2.42889 -3.15419,1.24807 z m 7.27803,-7.99617 c 0,-0.15122 -0.18559,-0.27493 -0.41239,-0.27493 -0.2268,0 -0.41238,0.12377 -0.41238,0.27493 0,0.15121 0.18558,0.27492 0.41238,0.27492 0.2268,0 0.41239,-0.12376 0.41239,-0.27492 z m 1.78511,-3.02101 c 0.0963,-0.15586 -0.0139,-0.20194 -0.25875,-0.1081 -0.47624,0.18277 -0.56342,0.37981 -0.16794,0.37981 0.1423,0 0.33429,-0.12224 0.42669,-0.27177 z m 1.37654,-1.10283 c 0.0935,-0.15123 -0.0232,-0.27494 -0.25869,-0.27494 -0.23578,0 -0.4286,0.12376 -0.4286,0.27494 0,0.15118 0.11635,0.27491 0.2587,0.27491 0.14223,0 0.33511,-0.12378 0.42859,-0.27491 z m 0.96226,0 c 0,-0.15123 -0.0544,-0.27494 -0.12128,-0.27494 -0.0667,0 -0.19769,0.12376 -0.29117,0.27494 -0.0934,0.15118 -0.0387,0.27491 0.12128,0.27491 0.1601,0 0.29117,-0.12378 0.29117,-0.27491 z m 0,-1.37464 c 0,-0.15121 -0.13107,-0.27492 -0.29117,-0.27492 -0.16013,0 -0.21471,0.12376 -0.12128,0.27492 0.0936,0.15121 0.22449,0.27492 0.29117,0.27492 0.0668,0 0.12128,-0.12376 0.12128,-0.27492 z m 4.39874,-6.62759 c 0,-0.39523 -0.47698,-0.28197 -0.64387,0.15288 -0.10223,0.26627 -0.0209,0.34768 0.24549,0.2455 0.21911,-0.0841 0.39838,-0.26334 0.39838,-0.39838 z m 0.75033,-0.96146 c -0.0913,-0.0913 -0.3285,-0.10111 -0.52694,-0.0217 -0.21934,0.0879 -0.15416,0.15291 0.16607,0.16611 0.28984,0.0125 0.45222,-0.0531 0.36087,-0.1444 z m 0.21192,-0.65867 c 0.0935,-0.1512 0.0387,-0.27491 -0.12128,-0.27491 -0.1601,0 -0.2911,0.12376 -0.2911,0.27491 0,0.15121 0.0544,0.27493 0.12121,0.27493 0.0668,0 0.19774,-0.12376 0.29117,-0.27493 z m -16.6856,16.27686 c -0.40619,-0.55875 -2.50256,-1.70588 -3.11737,-1.70588 -0.56469,0 -0.50598,-0.48289 0.0772,-0.63527 0.37551,-0.098 0.35039,-0.13271 -0.1145,-0.15763 -0.32764,-0.0175 -0.64758,-0.12474 -0.71103,-0.23807 -0.0634,-0.11341 -0.0769,-0.0497 -0.0301,0.14156 0.0927,0.37781 -1.23564,0.26323 -1.5278,-0.13174 -0.0879,-0.11874 -0.46906,-0.25871 -0.84706,-0.31094 -0.378,-0.0522 -0.72856,-0.20688 -0.77897,-0.34365 -0.0504,-0.13678 -0.31462,-0.2487 -0.58715,-0.2487 -0.71073,0 -1.96183,-0.7004 -1.72259,-0.96438 0.11114,-0.12264 -0.0354,-0.1372 -0.32585,-0.0323 -0.31756,0.11467 -0.61706,0.05 -0.75183,-0.1624 -0.36567,-0.57624 -0.26465,-0.83645 0.24874,-0.64099 0.3714,0.14137 0.40694,0.10838 0.15594,-0.14458 -0.37648,-0.37944 -1.30603,-0.11999 -1.05063,0.29319 0.27172,0.43969 -0.30727,0.32098 -0.69129,-0.14172 -0.19108,-0.23021 -0.54644,-0.35677 -0.78969,-0.2812 -0.2433,0.0755 -0.62789,0.0141 -0.85469,-0.13649 -0.35676,-0.23692 -0.34043,-0.32878 0.12121,-0.68102 0.63873,-0.48729 0.43531,-0.52371 -0.51258,-0.0918 -0.55942,0.2549 -0.94414,0.21713 -2.00613,-0.19697 -0.72271,-0.28181 -1.37584,-0.5226 -1.45145,-0.53509 -0.0757,-0.0125 -0.42234,-0.11985 -0.77052,-0.23852 -0.542,-0.18475 -0.58223,-0.2817 -0.27966,-0.67379 0.2301,-0.29822 0.13146,-0.26819 -0.283,0.0862 -0.59525,0.50896 -0.65355,0.51342 -0.90246,0.0686 -0.14628,-0.26148 -0.50899,-0.47539 -0.80595,-0.47539 -0.29696,0 -0.75473,-0.10923 -1.0173,-0.24287 -1.02703,-0.52246 -2.87252,-1.2095 -3.373,-1.2557 -0.0805,-0.007 -0.63721,-0.21955 -1.23716,-0.47132 -1.64757,-0.69152 -2.17011,-0.87096 -2.39668,-0.82301 -0.1134,0.0242 -0.20619,-0.0799 -0.20619,-0.23128 0,-0.1512 -0.2547,-0.27492 -0.56602,-0.27492 -0.31136,0 -0.48966,-0.12376 -0.39617,-0.27493 0.10136,-0.16393 -0.23166,-0.27493 -0.82478,-0.27493 -0.68942,0 -0.9337,-0.0987 -0.79593,-0.32163 0.13372,-0.21629 0.0492,-0.26412 -0.2587,-0.14609 -0.25157,0.0965 -0.45748,0.0673 -0.45748,-0.065 0,-0.13229 -0.26674,-0.17078 -0.59281,-0.0856 -0.40318,0.10545 -0.53054,0.0543 -0.3981,-0.16006 0.12625,-0.20426 0.0446,-0.25751 -0.23194,-0.15134 -0.23467,0.0901 -0.42669,0.0269 -0.42669,-0.14062 0,-0.16739 -0.26066,-0.30434 -0.57927,-0.30434 -0.40191,0 -0.53082,-0.12628 -0.421,-0.41239 0.0871,-0.22683 0.0382,-0.41238 -0.10808,-0.41238 -0.14651,0 -0.26628,0.1211 -0.26628,0.26902 0,0.16457 -0.26356,0.14896 -0.67872,-0.0401 -0.37331,-0.17006 -0.6004,-0.43585 -0.50471,-0.59065 0.10552,-0.17075 -0.006,-0.2124 -0.2836,-0.10587 -0.25163,0.0965 -0.45747,0.0483 -0.45747,-0.10698 0,-0.15537 -0.11942,-0.20868 -0.26547,-0.11845 -0.14605,0.0902 -0.74656,-0.0814 -1.33452,-0.38129 -0.77007,-0.39283 -1.15264,-0.46173 -1.36803,-0.24638 -0.21535,0.21537 -0.57256,0.16916 -1.27727,-0.16525 -0.53806,-0.25531 -0.97823,-0.56019 -0.97823,-0.6775 0,-0.26403 -2.04647,-1.27156 -3.16165,-1.55657 -0.45366,-0.11593 -1.19595,-0.18052 -1.64955,-0.14356 -0.45359,0.037 -0.73712,-0.022 -0.62997,-0.13089 0.10715,-0.10894 -0.40828,-0.50887 -1.14535,-0.88865 -0.9773,-0.50358 -1.29499,-0.80817 -1.17342,-1.125 0.14715,-0.3835 0.11566,-0.38715 -0.26918,-0.031 -0.2397,0.22184 -0.36977,0.5122 -0.28896,0.64522 0.0808,0.13299 -0.0249,0.17943 -0.23502,0.10308 -0.21007,-0.0764 -0.34576,-0.29376 -0.30154,-0.48321 0.0521,-0.22327 -0.11705,-0.29275 -0.48109,-0.19754 -0.30888,0.0807 -0.56156,0.0418 -0.56156,-0.0866 0,-0.12838 -0.27838,-0.17953 -0.61857,-0.11369 -0.86328,0.16706 -2.40549,-0.38156 -2.24538,-0.79877 0.0846,-0.22052 -0.59576,-0.5766 -1.9385,-1.01456 -1.13794,-0.37114 -2.06933,-0.76757 -2.0698,-0.88099 -4e-4,-0.11342 -0.25557,-0.2062 -0.56694,-0.2062 -0.31132,0 -0.50674,-0.0959 -0.43427,-0.21321 0.0725,-0.11733 -0.37175,-0.20652 -0.9872,-0.19833 -0.61545,0.008 -1.28513,-0.1512 -1.48821,-0.35424 -0.203,-0.20303 -0.58651,-0.33684 -0.85226,-0.2973 -0.7883,0.11718 -3.4009,-0.62239 -3.54741,-1.00422 -0.19925,-0.51916 -2.29671,-1.15596 -2.29671,-0.69728 0,0.14085 -0.21656,0.26218 -0.48116,0.26959 -1.0184,0.0286 -1.44334,0.11957 -1.44334,0.30937 0,0.10837 -0.24741,0.26172 -0.54987,0.34083 -0.3024,0.0791 -0.54981,0.34403 -0.54981,0.58878 0,0.27451 -0.316,0.50821 -0.82476,0.60995 -0.45366,0.0907 -0.82478,0.27321 -0.82478,0.40552 0,0.13229 -0.18946,0.24054 -0.42106,0.24054 -0.23155,0 -0.49088,0.18224 -0.57638,0.40493 -0.0854,0.2227 -0.60735,0.48796 -1.15976,0.5895 -0.55247,0.10151 -1.06627,0.26477 -1.14194,0.36277 -0.16751,0.21719 -7.73128,3.31753 -8.09214,3.31693 -0.14125,-2e-4 -0.75988,0.23452 -1.37464,0.52165 -0.61475,0.28712 -1.73631,0.71263 -2.49237,0.94556 -2.00849,0.61878 -7.51045,1.61986 -7.82715,1.42413 -0.14946,-0.0923 -0.52231,-0.0338 -0.82852,0.13005 -0.84162,0.45043 -10.89422,0.53723 -13.52024,0.11678 -2.97474,-0.47631 -6.94988,-1.41301 -8.65464,-2.03939 -2.5208,-0.92615 -5.75811,-2.62798 -6.64748,-3.49446 -0.19983,-0.19466 -0.48544,-0.35394 -0.63479,-0.35394 -0.14934,0 -0.19508,-0.12376 -0.10164,-0.27492 0.0935,-0.15122 0.0434,-0.27493 -0.11091,-0.27493 -0.34935,0 -3.36177,-2.95402 -3.98972,-3.91234 -0.3629,-0.55384 -0.38571,-0.73739 -0.10559,-0.84968 0.23768,-0.0952 0.20272,-0.15048 -0.10431,-0.16491 -0.53459,-0.025 -1.79044,-1.80661 -2.53486,-3.5957 -0.28312,-0.68045 -0.69152,-1.64387 -0.90755,-2.14089 -0.65493,-1.50679 -0.74974,-2.04036 -0.72405,-4.07204 0.0174,-1.36653 0.17309,-2.19074 0.51966,-2.74924 0.82054,-1.32232 3.07215,-3.40942 3.67812,-3.40942 0.31229,0 0.56781,-0.10558 0.56781,-0.23457 0,-0.44096 5.03694,-1.24669 7.5604,-1.20938 2.83754,0.0421 6.98107,0.6337 10.17214,1.45273 1.20971,0.31048 2.69428,0.68392 3.29908,0.82985 0.60485,0.14596 2.64617,0.75198 4.53628,1.34668 1.89011,0.59471 3.99326,1.23461 4.67371,1.42198 0.6804,0.18738 1.36086,0.42526 1.51207,0.52861 0.15119,0.10336 0.46048,0.18546 0.68729,0.1824 0.40849,-0.006 3.75197,1.0173 4.81118,1.47175 0.90882,0.38993 4.05288,1.35798 4.4105,1.35798 0.18334,0 0.47659,0.17263 0.65175,0.38361 0.17511,0.21101 0.77787,0.46629 1.33955,0.56733 0.8635,0.15533 2.51871,0.72517 5.14503,1.77133 0.3024,0.1204 1.44804,0.50485 2.5458,0.85423 1.09782,0.34933 2.1326,0.79978 2.2996,1.001 0.17181,0.20699 0.56735,0.29962 0.91114,0.21333 0.37192,-0.0934 0.74587,0.0143 0.96439,0.27757 0.1963,0.23655 0.58194,0.43008 0.8569,0.43008 0.27496,0 0.57435,0.12041 0.66523,0.26746 0.0909,0.14708 0.66692,0.4025 1.27993,0.56757 1.08034,0.29092 1.09985,0.31652 0.63311,0.83225 -0.61221,0.6765 -0.6914,0.67177 -2.78771,-0.16688 -0.96097,-0.38446 -1.85642,-0.63148 -1.98991,-0.54896 -0.1336,0.0825 -0.44989,0.0706 -0.70303,-0.0265 -0.37106,-0.14238 -0.38918,-0.22681 -0.0935,-0.43551 0.24908,-0.17588 0.12555,-0.20634 -0.38518,-0.095 -0.54182,0.11817 -0.90662,0.01 -1.30587,-0.39015 -0.56144,-0.56142 -1.55373,-0.78453 -1.24138,-0.27911 0.19722,0.31907 -0.22193,0.37374 -0.52695,0.0686 -0.1134,-0.11342 -0.28861,-0.21327 -0.38945,-0.22191 -0.72943,-0.0626 -3.29202,-1.08457 -3.17885,-1.26774 0.12967,-0.20967 -0.67259,-0.35002 -1.45122,-0.25389 -0.1776,0.022 -0.40138,-0.0871 -0.4973,-0.24236 -0.096,-0.15521 -0.42188,-0.2822 -0.72428,-0.2822 -0.34565,0 -0.47699,-0.11789 -0.35369,-0.31741 0.12487,-0.20197 0.0749,-0.24256 -0.1369,-0.1116 -0.18321,0.11327 -0.6598,0.12376 -1.05915,0.0235 -0.57094,-0.1433 -0.64104,-0.23601 -0.32799,-0.43406 0.27097,-0.17143 -0.0585,-0.25317 -1.03241,-0.25604 -1.4496,-0.006 -2.83088,-0.43819 -2.83088,-0.88931 0,-0.13581 0.15467,-0.15412 0.34367,-0.0406 0.27374,0.16447 0.27444,0.12096 0.006,-0.21403 -0.18715,-0.23126 -0.79658,-0.43764 -1.35437,-0.45861 -0.55774,-0.0209 -1.116,-0.19573 -1.24057,-0.38833 -0.17354,-0.26836 -0.27624,-0.27341 -0.43959,-0.0215 -0.15711,0.24225 -0.50038,0.25623 -1.30587,0.0532 -1.88387,-0.47479 -2.71865,-0.71999 -3.47008,-1.01922 -0.40028,-0.15937 -0.82216,-0.20489 -0.93759,-0.10109 -0.11537,0.10376 -0.12879,0.047 -0.0301,-0.12615 0.17117,-0.29948 -0.53603,-0.78759 -0.99599,-0.68746 -0.56631,0.12321 -3.9352,-0.58227 -4.69757,-0.98379 -0.47241,-0.24884 -1.91055,-0.66634 -3.1958,-0.92775 -1.28526,-0.26144 -2.708,-0.60484 -3.1616,-0.76315 -1.9693,-0.68719 -7.21713,-1.33615 -10.19408,-1.26062 -5.75138,0.14591 -8.57336,1.65923 -9.05254,4.85449 -0.17655,1.17739 0.20416,3.89289 0.68387,4.87789 0.11478,0.23583 0.47427,1.02374 0.79866,1.75087 0.32445,0.72716 0.71073,1.46945 0.85835,1.64954 0.14767,0.18011 0.85568,1.06974 1.57347,1.97701 2.96918,3.75307 4.63713,4.9213 10.3836,7.27273 0.30245,0.12377 1.04474,0.35438 1.64953,0.51252 0.60486,0.15815 2.08943,0.54677 3.29914,0.8636 1.49504,0.3916 3.27916,0.60431 5.57119,0.66424 1.85451,0.0486 3.4402,0.15653 3.52379,0.24013 0.0836,0.0836 0.58095,0.0335 1.10517,-0.11118 0.52423,-0.14475 1.19629,-0.18602 1.49354,-0.0916 0.32862,0.10433 0.54043,0.0446 0.54043,-0.15254 0,-0.21766 0.29765,-0.26818 0.90674,-0.15392 0.49874,0.0936 1.51941,0.0547 2.26817,-0.0865 0.86836,-0.16358 1.39588,-0.16017 1.45678,0.01 0.0568,0.15744 0.25545,0.13313 0.48774,-0.0597 0.21575,-0.17906 0.45772,-0.26016 0.53766,-0.18022 0.0798,0.0798 0.68104,-0.016 1.33579,-0.21292 0.87675,-0.26387 1.27142,-0.27734 1.49758,-0.0512 0.22617,0.22615 0.3071,0.18391 0.3071,-0.16029 0,-0.40409 0.4716,-0.6076 1.16288,-0.50177 0.11033,0.017 0.82634,-0.21589 1.59102,-0.51729 0.76463,-0.30141 1.59252,-0.54801 1.83964,-0.54801 0.50668,0 3.17999,-0.99875 5.85355,-2.18686 0.9828,-0.43678 2.40555,-1.06505 3.1616,-1.39615 0.75606,-0.33108 2.11692,-1.03914 3.02417,-1.57343 0.90726,-0.53429 1.80422,-0.97416 1.99322,-0.97748 0.189,-0.003 0.34361,-0.10909 0.34361,-0.23516 0,-0.126 0.18559,-0.22909 0.41245,-0.22909 0.2268,0 0.41232,-0.11538 0.41232,-0.2564 0,-0.14102 0.23583,-0.33123 0.52405,-0.42272 0.29702,-0.0942 0.49094,-0.37025 0.4477,-0.6371 -0.10253,-0.63218 0.35096,-1.16077 0.83599,-0.97465 0.67919,0.26062 1.66031,-0.14275 2.76317,-1.13598 0.5858,-0.52756 1.16774,-0.96205 1.29325,-0.96558 0.12544,-0.006 0.97729,-0.75547 1.89289,-1.67106 0.93446,-0.93447 1.82546,-1.60302 2.03113,-1.52408 0.20156,0.0773 0.45134,0.003 0.55518,-0.16478 0.11421,-0.18492 0.0635,-0.22802 -0.12867,-0.10922 -0.74606,0.46109 -0.23381,-0.42898 0.65059,-1.13046 0.53232,-0.42228 1.29526,-1.26263 1.69532,-1.86746 0.40011,-0.60483 1.17817,-1.65643 1.72907,-2.33684 0.55097,-0.68045 1.24167,-1.73203 1.53504,-2.33685 0.29331,-0.60485 0.59815,-1.16156 0.67739,-1.23717 0.33766,-0.32217 1.64364,-3.11389 1.65162,-3.53064 0.006,-0.25067 0.18645,-0.69048 0.4036,-0.97738 0.21718,-0.28688 0.33302,-0.62166 0.25742,-0.74393 -0.0755,-0.12222 0.0591,-0.69172 0.29932,-1.26539 0.4048,-0.96691 0.59063,-1.92325 0.79653,-4.09924 0.0446,-0.47124 0.13268,-0.96611 0.19572,-1.0997 0.16914,-0.35848 0.0716,-3.60873 -0.15579,-5.19153 -0.25423,-1.76943 -1.03553,-4.32967 -2.24536,-7.35802 -0.52937,-1.32515 -0.88659,-2.53226 -0.79374,-2.68244 0.0927,-0.1502 -0.0289,-0.34906 -0.27125,-0.44193 -0.51097,-0.19605 -1.30465,-1.59982 -1.04909,-1.85542 0.0954,-0.0954 -0.11676,-0.48221 -0.47126,-0.85963 -0.35456,-0.37742 -0.55241,-0.68623 -0.43964,-0.68623 0.1127,0 0.0197,-0.18557 -0.20735,-0.41238 -0.22686,-0.22682 -0.51832,-0.41239 -0.6477,-0.41239 -0.25528,0 -1.15611,-1.40116 -1.08479,-1.68728 0.0243,-0.0964 -0.26565,-0.43247 -0.64365,-0.74691 -0.37805,-0.31443 -0.57828,-0.57579 -0.44508,-0.58082 0.1333,-0.006 -0.76371,-0.98318 -1.99321,-2.17364 -1.22946,-1.19046 -2.23541,-2.3 -2.23541,-2.46564 0,-0.4441 -2.8603,-2.48028 -5.22359,-3.71853 -4.93194,-2.58414 -6.21824,-3.19487 -6.73563,-3.19812 -0.3024,-0.002 -0.85909,-0.16412 -1.23716,-0.36051 -2.23975,-1.16371 -8.21371,-1.77131 -12.23411,-1.24431 -1.05846,0.13874 -2.32595,0.27821 -2.81671,0.30994 -0.49076,0.0319 -0.89284,0.14063 -0.89354,0.24202 -4.1e-4,0.10138 -0.83629,0.27103 -1.85694,0.37702 -1.02066,0.10601 -1.97944,0.28716 -2.13064,0.40253 -0.15126,0.11537 -0.70795,0.29609 -1.23715,0.40156 -1.30831,0.26072 -2.67066,0.68896 -3.98642,1.25302 -0.60486,0.2593 -1.36689,0.55423 -1.69343,0.65541 -0.32659,0.10112 -0.74378,0.36476 -0.92722,0.58572 -0.18333,0.22094 -0.50605,0.40173 -0.7171,0.40173 -0.211,0 -1.2165,0.51197 -2.23442,1.13774 -1.01795,0.62574 -2.33151,1.39896 -2.91912,1.71826 -0.5876,0.3193 -1.25134,0.85892 -1.47495,1.19913 -0.22368,0.34022 -0.54708,0.62122 -0.71866,0.62445 -0.17164,0.003 -0.66559,0.50542 -1.09765,1.11599 -0.43207,0.61055 -0.85585,1.03978 -0.94182,0.95383 -0.086,-0.0858 -0.41291,0.0827 -0.72653,0.37443 -0.56428,0.52515 -0.57829,0.52419 -1.34286,-0.0898 -1.04867,-0.84213 -0.8133,-1.62631 0.95757,-3.19068 0.76682,-0.67737 1.78122,-1.61779 2.25415,-2.0898 0.473,-0.47201 1.76926,-1.36963 2.88051,-1.99472 1.11131,-0.6251 2.33416,-1.38327 2.7176,-1.68485 0.38339,-0.30157 0.81633,-0.54833 0.96208,-0.54833 0.26506,0 0.79507,-0.21721 3.3723,-1.3821 0.75606,-0.34175 1.74576,-0.72013 2.19941,-0.84089 0.4536,-0.12068 1.56705,-0.47996 2.47431,-0.79827 0.90726,-0.31829 2.76298,-0.75228 4.12385,-0.96441 1.36085,-0.21214 3.15476,-0.50537 3.98642,-0.65163 0.8316,-0.14627 1.75946,-0.27112 2.06192,-0.27745 5.87984,-0.12321 9.64236,0.32041 12.92141,1.52354 0.60479,0.22191 1.34713,0.46973 1.64953,0.55069 2.16283,0.57902 8.09013,4.09764 10.34245,6.13961 1.93236,1.7519 4.91584,4.7688 4.91584,4.97093 0,0.13634 0.34258,0.58913 0.76133,1.00628 0.41875,0.41715 0.93453,1.09864 1.14615,1.51447 0.21164,0.41582 0.53738,0.75604 0.72388,0.75604 0.18645,0 0.47305,0.34021 0.63687,0.75604 0.31878,0.80914 0.64497,1.36419 1.58511,2.697 0.82616,1.17119 2.01973,3.70057 2.01973,4.28007 0,0.26517 0.13748,0.56716 0.30564,0.67104 0.5263,0.32529 1.70181,3.25245 1.35281,3.3688 -0.19861,0.0662 -0.14767,0.22516 0.13944,0.43511 0.71479,0.52267 1.43502,4.66683 0.91913,5.28844 -0.25725,0.30999 -0.23149,0.35198 0.13077,0.21298 0.58939,-0.2262 0.60914,0.0412 0.30587,4.14696 -0.067,0.90726 -0.17233,2.44578 -0.23404,3.41895 -0.0734,1.15663 -0.2562,1.87468 -0.52792,2.0734 -0.30368,0.22205 -0.34275,0.4345 -0.14489,0.78804 0.17794,0.31794 0.17788,0.59702 -1.7e-4,0.81331 -0.43619,0.52966 -1.97175,3.58426 -1.97175,3.92217 0,0.37531 -0.58795,1.4877 -1.66111,3.14271 -0.44121,0.68044 -0.93314,1.53607 -1.09319,1.90138 -0.15999,0.36531 -0.51259,0.86018 -0.7835,1.09969 -0.2709,0.23952 -0.60642,0.63696 -0.74552,0.8832 -0.59663,1.05612 -3.22544,3.79303 -3.48761,3.63101 -0.16214,-0.10028 -0.20527,-0.0454 -0.0992,0.12628 0.1038,0.16794 -0.0923,0.45268 -0.43859,0.63723 -0.7244,0.38593 -1.31942,1.11165 -1.14402,1.39541 0.0665,0.10755 -0.13991,0.33495 -0.45852,0.50548 -0.5868,0.31403 -0.98969,0.62653 -2.55436,1.98128 -0.47751,0.4134 -1.02281,0.75362 -1.21181,0.75604 -0.189,0.002 -0.34367,0.17792 -0.34367,0.39 0,0.24153 0.74465,0.60439 1.99321,0.97126 1.09626,0.32212 2.27737,0.70529 2.62469,0.85155 0.34733,0.14624 0.85801,0.2659 1.13476,0.2659 0.27682,0 0.65614,0.18422 0.84301,0.40935 0.18685,0.22515 0.43791,0.34868 0.55796,0.2745 0.30299,-0.18726 3.29347,0.98481 3.29347,1.29082 0,0.13691 0.15467,0.22005 0.34367,0.18488 0.189,-0.0351 0.73869,0.0294 1.22147,0.14381 0.60393,0.14292 0.83067,0.33067 0.72665,0.60172 -0.18334,0.47776 0.022,0.49913 0.70338,0.0734 0.41938,-0.26191 0.65203,-0.21157 1.2705,0.27493 0.41643,0.32755 1.05706,0.59554 1.42361,0.59554 0.36653,0 0.59802,0.11076 0.51431,0.24613 -0.16589,0.26845 0.658,0.68184 0.89216,0.44766 0.0791,-0.0791 -0.0209,-0.14395 -0.22263,-0.14395 -0.20163,0 -0.30177,-0.0648 -0.22264,-0.14392 0.25662,-0.25658 1.04989,0.19247 0.86586,0.49014 -0.098,0.15874 -0.0539,0.21163 0.0984,0.1176 0.15218,-0.0941 0.75421,0.0725 1.33776,0.36992 0.58355,0.29751 1.34414,0.54093 1.69018,0.54093 0.34609,0 0.62922,0.1074 0.62922,0.23873 0,0.13132 0.48029,0.30315 1.06737,0.38189 0.58703,0.0787 1.42211,0.33897 1.85574,0.5783 1.82904,1.00954 4.87272,2.39471 5.57199,2.5358 0.2117,0.0428 0.49002,0.24054 0.61858,0.4396 0.18819,0.29143 0.27779,0.29375 0.46014,0.0112 0.17343,-0.26813 0.34443,-0.21983 0.72995,0.20618 0.28527,0.3152 0.84949,0.55634 1.30181,0.55634 0.43919,0 0.72909,0.11216 0.64434,0.24926 -0.0848,0.13721 0.11288,0.1795 0.43919,0.0943 0.40648,-0.10627 0.53129,-0.055 0.39652,0.16311 -0.13256,0.21453 0.0773,0.31823 0.64434,0.31823 0.46251,0 0.84097,0.12139 0.84097,0.26969 0,0.22339 0.43155,0.40784 1.64954,0.70508 1.09453,0.26708 2.3612,1.22462 1.61996,1.22462 -0.18535,0 -0.25748,0.0796 -0.16034,0.17663 0.0972,0.0972 0.37464,0.0125 0.61667,-0.1885 0.36763,-0.30513 0.48098,-0.30028 0.68971,0.0294 0.13731,0.21709 0.25164,0.28275 0.25395,0.14592 0,-0.13679 0.25163,-0.025 0.5541,0.24879 0.3024,0.2737 0.54981,0.6567 0.54981,0.85115 0,0.19444 0.11218,0.42287 0.24931,0.50763 0.13702,0.0847 0.18819,-0.0796 0.11352,-0.36514 -0.14217,-0.54366 0.4936,-1.17369 0.66511,-0.65912 0.0539,0.16193 0.32573,0.23492 0.60382,0.16219 0.27809,-0.0727 0.58877,0.002 0.69036,0.16666 0.10153,0.16438 0.4867,0.29887 0.85579,0.29887 0.36909,0 0.67108,0.12377 0.67108,0.27493 0,0.1512 0.24742,0.27492 0.54986,0.27492 0.3024,0 0.51891,0.15463 0.4811,0.34363 -0.0423,0.2095 0.25325,0.35412 0.75607,0.37045 1.71957,0.0559 1.99482,0.12545 2.61172,0.66053 0.34871,0.30242 0.89441,0.54984 1.21272,0.54984 0.31827,0 1.15971,0.30931 1.8698,0.68731 0.7101,0.37801 1.54807,0.68732 1.86216,0.68732 0.3141,0 0.63073,0.15463 0.70367,0.34364 0.0728,0.18903 0.50374,0.35693 0.95727,0.37314 0.45361,0.0162 1.06269,0.24482 1.35357,0.50804 0.29088,0.26322 0.65181,0.40259 0.80208,0.30971 0.15027,-0.0928 0.35617,-0.0349 0.45753,0.12922 0.10136,0.16398 0.35734,0.23173 0.56885,0.15056 0.21153,-0.0811 0.38455,-0.0206 0.38455,0.13496 0,0.15538 0.12463,0.20552 0.27687,0.11146 0.1523,-0.0941 0.34321,0.002 0.42419,0.21289 0.1442,0.37563 0.47519,0.47719 1.68428,0.51674 0.39732,0.0125 0.54836,0.14963 0.44972,0.40674 -0.12029,0.31321 -0.01,0.33404 0.5828,0.10907 0.57006,-0.21672 0.89539,-0.17384 1.47472,0.19448 0.40885,0.25989 0.84816,0.64056 0.9762,0.8459 0.14917,0.23932 0.47948,0.31146 0.91976,0.20096 0.4008,-0.10069 0.86986,-0.0243 1.1259,0.18307 0.2837,0.22983 0.36995,0.24067 0.24399,0.0306 -0.24613,-0.41037 0.82963,-1.18721 1.64404,-1.18721 0.36827,0 0.67704,0.21886 0.78402,0.55579 0.18419,0.58033 -0.38396,2.19344 -0.77255,2.19344 -0.12319,0 -0.15625,0.10963 -0.0734,0.24376 0.23844,0.38573 -0.54384,0.88198 -1.59592,1.01248 -0.7086,0.0879 -1.05997,-0.0113 -1.32417,-0.37513 z m 0.803,-1.04723 c -0.0913,-0.0913 -0.32845,-0.1011 -0.52694,-0.0217 -0.21928,0.0879 -0.15415,0.15291 0.16613,0.1661 0.28979,0.0125 0.45216,-0.0531 0.36081,-0.1444 z m -1.5751,-0.38373 c 0,-0.15121 -0.13099,-0.27492 -0.2911,-0.27492 -0.16017,0 -0.21471,0.12376 -0.12128,0.27492 0.0935,0.15119 0.22449,0.27493 0.29117,0.27493 0.0668,0 0.12121,-0.12377 0.12121,-0.27493 z m -22.40624,-9.07251 c -0.27369,-0.30241 -0.62113,-0.54983 -0.77198,-0.54983 -0.15097,0 0.011,0.24742 0.35959,0.54983 0.34865,0.30244 0.69608,0.54985 0.77197,0.54985 0.0758,0 -0.086,-0.24741 -0.35958,-0.54985 z m -31.95472,-12.82682 c -0.18611,-0.0753 -0.55728,-0.08 -0.82477,-0.01 -0.26749,0.0698 -0.11519,0.13131 0.33846,0.1369 0.4536,0.006 0.67247,-0.0513 0.48631,-0.1267 z m -4.54718,-1.36038 c -0.0913,-0.0913 -0.3285,-0.10111 -0.52693,-0.0217 -0.21935,0.0879 -0.15415,0.1529 0.16607,0.1661 0.28983,0.0125 0.45222,-0.0531 0.36086,-0.1444 z m -12.70947,-1.20852 c 0.0935,-0.15121 0.0387,-0.27493 -0.12128,-0.27493 -0.16012,0 -0.29117,0.12377 -0.29117,0.27493 0,0.15121 0.0544,0.27493 0.12127,0.27493 0.0667,0 0.19769,-0.12377 0.29112,-0.27493 z m 6.81824,-1.00605 c -0.0778,-0.20271 -0.26519,-0.36856 -0.41639,-0.36856 -0.1512,0 -0.19982,0.19568 -0.10813,0.43485 0.0917,0.23919 0.1688,0.5794 0.17112,0.75605 0,0.19705 0.099,0.17143 0.24949,-0.0663 0.13493,-0.21309 0.18165,-0.55331 0.10379,-0.75604 z m -2.00711,-1.86443 c 0,-0.0667 -0.12376,-0.19769 -0.27491,-0.29114 -0.15119,-0.0936 -0.27495,-0.0387 -0.27495,0.12125 0,0.16012 0.12376,0.29114 0.27495,0.29114 0.15121,0 0.27491,-0.0546 0.27491,-0.12125 z m -29.41685,-7.85155 c 0,-0.15122 -0.13106,-0.27493 -0.29117,-0.27493 -0.16012,0 -0.21465,0.12377 -0.12121,0.27493 0.0935,0.1512 0.22448,0.27492 0.29111,0.27492 0.0668,0 0.12127,-0.12377 0.12127,-0.27492 z m 131.79372,6.5197 c -1.55884,-0.89415 -2.62106,-2.16065 -2.99506,-3.57106 -0.54541,-2.05673 -0.32678,-6.22651 0.42848,-8.1722 0.32283,-0.83163 0.58732,-1.69766 0.58783,-1.92446 0,-0.86684 2.47356,-5.45578 3.38568,-6.28579 0.52116,-0.47423 1.02911,-0.86223 1.1288,-0.86223 0.0997,0 0.40693,-0.26018 0.68271,-0.57814 0.91119,-1.05061 3.54949,-1.58381 3.54949,-0.71734 0,0.15947 0.19867,0.50952 0.44156,0.77789 0.38911,0.42998 0.39849,0.66118 0.0789,1.94611 -0.30264,1.21668 -1.01337,2.63985 -1.6206,3.24519 -0.0758,0.0756 -0.32329,0.49812 -0.54987,0.93892 -0.37689,0.73325 -1.46701,1.93267 -2.60825,2.86972 -0.24926,0.20465 -0.76376,0.31273 -1.14332,0.24019 -0.43201,-0.0827 -0.74442,0.01 -0.83536,0.24648 -0.0799,0.20809 -0.31514,0.37838 -0.52289,0.37838 -0.20775,0 -0.44348,0.27837 -0.52376,0.61859 -0.3075,1.30289 -0.61181,4.209 -0.47751,4.56044 0.13233,0.34607 0.22176,0.94319 0.30304,2.02239 0.0728,0.96643 1.2126,1.88128 2.37191,1.90377 1.31622,0.0256 1.56056,-0.035 3.1712,-0.78591 1.86725,-0.87053 2.58939,-0.99634 2.9847,-0.52002 0.276,0.33263 0.25087,0.55014 -0.13089,1.13293 -0.49516,0.75566 -2.18603,1.99319 -3.49484,2.5578 -0.98397,0.4245 -3.45631,0.41178 -4.2119,-0.0217 z m 1.81926,-12.61385 c 0,-0.12601 -0.2547,-0.22911 -0.56602,-0.22911 -0.31137,0 -0.5024,0.10308 -0.42454,0.22911 0.078,0.126 0.33262,0.2291 0.56613,0.2291 0.23346,0 0.42443,-0.10306 0.42443,-0.2291 z m -0.12544,-2.28235 c 0.40006,-0.52447 0.85383,-0.92655 1.00844,-0.89352 0.15461,0.033 0.31913,-0.16729 0.36561,-0.44516 0.0463,-0.27788 0.26194,-0.71088 0.47885,-0.96224 0.49805,-0.57709 0.76837,-1.64843 0.46349,-1.83684 -0.12741,-0.0789 -0.63305,0.35617 -1.12352,0.96654 -0.64127,0.79795 -0.95513,1.01191 -1.1171,0.76152 -0.33585,-0.51926 -0.72492,0.20251 -0.56376,1.04575 0.0706,0.36912 0.01,0.82505 -0.13632,1.0132 -0.42373,0.54775 -0.62981,1.30429 -0.35531,1.30429 0.13869,0 0.57956,-0.42908 0.97962,-0.95354 z m -45.44145,12.76589 c -1.57718,-0.34556 -1.69822,-0.59095 -1.24959,-2.53294 0.21759,-0.94178 0.52068,-1.86304 0.67357,-2.04727 0.15287,-0.18422 0.20346,-0.45555 0.1124,-0.60291 -0.091,-0.14738 -0.0567,-0.33521 0.0762,-0.41735 0.13297,-0.0822 0.39305,-0.69008 0.57811,-1.35094 0.30211,-1.07918 0.411,-1.1913 1.06865,-1.10091 0.6969,0.0958 0.7024,0.0876 0.11375,-0.17126 -0.6951,-0.30559 -0.76342,-0.72536 -0.30148,-1.8526 0.41244,-1.00634 0.51682,-1.41304 0.6363,-2.47995 0.1373,-1.22623 0.33522,-1.45559 1.25584,-1.45559 1.20781,0 1.7993,1.03149 1.33221,2.32325 -0.19404,0.5367 -0.45898,0.97582 -0.58876,0.97582 -0.12979,0 -0.15948,0.12377 -0.066,0.27493 0.3115,0.50402 0.54091,0.28801 1.89805,-1.7873 0.74148,-1.13389 1.45284,-2.06163 1.58077,-2.06163 0.12799,0 0.23265,-0.12964 0.23265,-0.2881 0,-0.15847 0.34026,-0.58756 0.75606,-0.95355 1.00948,-0.88853 2.21486,-0.88438 2.98366,0.01 0.5285,0.6151 0.58667,0.96318 0.51681,3.09289 -0.0434,1.31988 -0.21367,2.95652 -0.37864,3.63696 -0.31283,1.29061 -0.51768,2.53718 -0.55618,3.38404 -0.0139,0.29572 -0.14819,0.41975 -0.33227,0.30594 -0.22269,-0.13761 -0.23178,-0.052 -0.0324,0.30432 0.16984,0.30349 0.18571,0.81547 0.0411,1.32028 -0.13007,0.45352 -0.16654,1.10327 -0.0811,1.44388 0.11537,0.45982 -0.01,0.71041 -0.48729,0.97316 -1.4346,0.78982 -2.85132,-0.28502 -2.37051,-1.79848 0.14801,-0.46588 0.30864,-1.09448 0.35692,-1.3969 0.0487,-0.30242 0.10855,-0.54985 0.13372,-0.54985 0.0255,0 0.0819,-0.24743 0.12614,-0.54983 0.044,-0.30243 0.2316,-1.35401 0.41649,-2.33687 0.51687,-2.74779 0.56046,-4.61357 0.11184,-4.78572 -0.21661,-0.083 -0.37956,0.0277 -0.37956,0.25812 0,0.22205 -0.18559,0.40375 -0.41239,0.40375 -0.2268,0 -0.41239,0.10041 -0.41239,0.22307 0,0.12265 -0.27542,0.51874 -0.61203,0.88009 -0.33667,0.36133 -0.65267,0.95976 -0.70222,1.3298 -0.0492,0.37005 -0.42814,1.18024 -0.84127,1.80043 -0.41313,0.62019 -0.99409,1.62248 -1.29098,2.22733 -0.29697,0.60481 -0.77529,1.31618 -1.06303,1.5808 -0.28776,0.26461 -0.42728,0.48111 -0.30999,0.48111 0.11716,0 0.0753,0.16602 -0.093,0.36896 -0.16838,0.20293 -0.22482,0.45035 -0.12532,0.54985 0.0996,0.0994 0.0423,0.18089 -0.12735,0.18089 -0.16955,0 -0.38871,0.4286 -0.48701,0.95243 -0.22795,1.21528 -0.59217,1.48035 -1.70024,1.23756 z m 3.50354,-6.69683 c 0,-0.26082 -0.82292,-0.39225 -0.96966,-0.15488 -0.0893,0.14461 0.0923,0.26293 0.40358,0.26293 0.31138,0 0.56608,-0.0487 0.56608,-0.1081 z m -1.92445,-0.44181 c 0,-0.1512 -0.0544,-0.27491 -0.12121,-0.27491 -0.0668,0 -0.19775,0.12376 -0.29117,0.27491 -0.0934,0.15122 -0.0387,0.27493 0.12122,0.27493 0.16011,0 0.29116,-0.12377 0.29116,-0.27493 z m 2.88669,-2.47431 c 0.0936,-0.15123 0.0387,-0.27492 -0.12121,-0.27492 -0.16017,0 -0.29117,0.12377 -0.29117,0.27492 0,0.1512 0.0544,0.27492 0.12121,0.27492 0.0668,0 0.19774,-0.12375 0.29117,-0.27492 z m 3.02418,-2.77421 c 0.50182,-0.23842 0.49394,-0.25049 -0.0905,-0.13816 -0.49442,0.0949 -0.60261,0.0247 -0.4748,-0.30818 0.13703,-0.35727 0.0942,-0.37207 -0.25018,-0.0863 -0.22866,0.18974 -0.3479,0.45466 -0.26501,0.58874 0.18188,0.2943 0.36266,0.28492 1.08046,-0.0561 z m 1.85573,-1.2568 c -0.189,-0.0762 -0.49828,-0.0762 -0.68728,0 -0.18907,0.0762 -0.0342,0.13873 0.34367,0.13873 0.378,0 0.53262,-0.0624 0.34361,-0.13873 z m -19.45084,13.46982 c -2.15831,-0.47001 -3.96692,-2.68948 -3.54887,-4.35503 0.171,-0.68127 -0.23241,-0.96445 -0.57776,-0.40559 -0.095,0.1537 -0.30888,0.19523 -0.47537,0.0923 -0.19224,-0.11887 -0.24116,-0.0269 -0.13413,0.25229 0.11525,0.30036 -0.36734,0.96865 -1.52554,2.11265 -1.87685,1.85369 -3.23801,2.44393 -4.40737,1.91114 -1.71732,-0.78244 -1.54523,-3.21177 0.53376,-7.5336 0.50889,-1.05793 0.92527,-2.0786 0.92527,-2.26811 0,-0.18955 0.11566,-0.34462 0.25713,-0.34462 0.14142,0 0.41366,-0.43301 0.60504,-0.96223 0.19137,-0.52924 0.43849,-0.96223 0.54916,-0.96223 0.11062,0 0.2873,-0.27837 0.39259,-0.61859 0.23335,-0.7539 3.58516,-4.02632 4.46851,-4.36263 1.02268,-0.38938 1.85382,-0.28234 2.38765,0.30751 0.27369,0.30242 0.6364,0.54984 0.80613,0.54984 0.46084,0 2.08057,1.56027 2.08057,2.0042 0,0.57864 -0.82593,2.11967 -1.13604,2.11967 -0.14905,0 -0.19404,0.12461 -0.0999,0.27679 0.0941,0.15224 -0.0618,0.61618 -0.34651,1.03098 -0.6059,0.88292 -1.50296,3.59419 -1.29862,3.92487 0.0775,0.12529 0.0128,0.30681 -0.14304,0.4033 -0.15613,0.0965 -0.21801,0.28206 -0.13749,0.41237 0.0805,0.13034 0.0341,0.3064 -0.10332,0.39133 -0.41245,0.25486 -0.0595,2.45453 0.4801,2.99437 0.6499,0.64987 2.28415,1.01142 3.75656,0.83109 1.23924,-0.15176 1.64532,0.12403 1.38599,0.94118 -0.19185,0.60442 -0.8807,1.03872 -2.05747,1.2972 -0.73227,0.16082 -0.87577,0.12601 -0.70668,-0.17124 0.17111,-0.30083 0.14054,-0.30653 -0.15804,-0.0294 -0.37261,0.34586 -0.75912,0.38079 -1.77236,0.16013 z m -7.55266,-4.07298 c 0.14692,0.0909 0.26715,-0.0277 0.26715,-0.26351 0,-0.2383 0.2327,-0.42861 0.5241,-0.42861 0.37326,0 0.48608,-0.14539 0.39207,-0.50492 -0.0866,-0.33177 0.11062,-0.6639 0.57563,-0.96858 0.38917,-0.255 0.7076,-0.59593 0.7076,-0.75761 0,-0.47972 1.00827,-1.61588 1.24446,-1.40231 0.1197,0.10825 0.14008,-0.0196 0.0451,-0.28425 -0.0949,-0.26461 -0.0527,-0.48112 0.0937,-0.48112 0.14645,0 0.26627,-0.18557 0.26627,-0.4124 0,-0.22679 0.11034,-0.41236 0.24511,-0.41236 0.13481,0 0.44306,-0.49488 0.68508,-1.09971 0.24197,-0.60481 0.57795,-1.09969 0.74657,-1.09969 0.16861,0 0.23097,-0.19702 0.13857,-0.43783 -0.11102,-0.2895 0.0128,-0.48515 0.36614,-0.5775 0.49598,-0.12964 0.48156,-0.18493 -0.20093,-0.77198 l -0.73504,-0.63227 -1.03513,0.52806 c -0.56932,0.29045 -1.03507,0.63121 -1.03507,0.75726 0,0.126 -0.27838,0.53696 -0.61859,0.9131 -0.34019,0.37614 -0.92531,1.26021 -1.30018,1.9646 -0.37482,0.70441 -0.75247,1.28072 -0.83918,1.28072 -0.0867,0 -0.38003,0.61859 -0.65193,1.37463 -0.28775,0.80019 -0.66286,1.37462 -0.89759,1.37462 -0.27821,0 -0.34917,0.17056 -0.22876,0.54984 0.096,0.30242 0.0734,0.5501 -0.0504,0.55039 -0.12365,2.3e-4 -0.25678,0.44827 -0.29591,0.99546 l -0.0712,0.99491 0.69754,-0.45703 c 0.38361,-0.25138 0.81776,-0.38274 0.96468,-0.29194 z m -14.85366,2.33203 c -0.37799,-0.29568 -0.81545,-0.54036 -0.97203,-0.54372 -0.15664,-0.003 -0.30066,-0.22261 -0.32006,-0.48723 -0.0556,-0.75602 -0.0901,-1.54403 -0.0871,-1.9932 0,-0.22682 -0.0521,-0.84539 -0.11833,-1.37462 -0.0665,-0.52924 0.0185,-1.4571 0.18819,-2.06193 0.39288,-1.39823 0.33135,-1.17548 0.72203,-2.61178 0.56294,-2.0695 3.25184,-7.146 3.78573,-7.14727 0.31368,-0.002 0.71449,0.88351 0.74731,1.64879 0.0243,0.56261 -0.71056,2.47433 -0.9509,2.47433 -0.10669,0 -0.12921,0.24742 -0.0504,0.54984 0.10153,0.3883 0.008,0.54985 -0.31688,0.54985 -0.25337,0 -0.39825,0.10111 -0.32184,0.22466 0.0763,0.12349 -0.0354,0.73104 -0.24885,1.34997 -0.52649,1.52806 -0.70814,2.40913 -0.87774,4.25749 -0.1963,2.13894 0.0324,2.96522 0.78147,2.82101 0.72567,-0.13971 1.6133,0.31155 1.6133,0.82027 0,0.60239 -1.62962,2.07403 -2.28925,2.06728 -0.32856,-0.003 -0.90668,-0.24804 -1.28473,-0.54374 z m 163.41947,-1.6864 c -0.081,-0.13091 -0.37314,-0.23805 -0.64944,-0.23805 -0.301,0 -0.6801,-0.37469 -0.94604,-0.93506 -0.55582,-1.17142 -0.55895,-1.12758 0.13638,-1.92736 0.70917,-0.81562 1.62639,-1.07474 2.55471,-0.72177 0.86865,0.33022 1.11977,1.25285 0.73262,2.69085 -0.22929,0.85137 -0.45632,1.1353 -0.9894,1.2372 -0.38043,0.0727 -0.75796,0.0251 -0.8389,-0.10587 z"
       id="path3346"
       inkscape:connector-curvature="0" />
  </g>
</svg>
