<?xml version="1.0" encoding="UTF-8" standalone="no"?>
<!-- Created with Inkscape (http://www.inkscape.org/) -->

<svg
   xmlns:dc="http://purl.org/dc/elements/1.1/"
   xmlns:cc="http://creativecommons.org/ns#"
   xmlns:rdf="http://www.w3.org/1999/02/22-rdf-syntax-ns#"
   xmlns:svg="http://www.w3.org/2000/svg"
   xmlns="http://www.w3.org/2000/svg"
   xmlns:xlink="http://www.w3.org/1999/xlink"
   xmlns:sodipodi="http://sodipodi.sourceforge.net/DTD/sodipodi-0.dtd"
   xmlns:inkscape="http://www.inkscape.org/namespaces/inkscape"
   width="99.379143mm"
   height="53.242214mm"
   viewBox="0 0 352.13082 188.65351"
   id="svg3358"
   version="1.1"
   inkscape:version="0.91 r13725"
   sodipodi:docname="siggyheder.svg">
  <defs
     id="defs3360" />
  <sodipodi:namedview
     id="base"
     pagecolor="#ffffff"
     bordercolor="#666666"
     borderopacity="1.0"
     inkscape:pageopacity="0.0"
     inkscape:pageshadow="2"
     inkscape:zoom="0.98"
     inkscape:cx="5.6572926"
     inkscape:cy="54.326772"
     inkscape:document-units="px"
     inkscape:current-layer="layer1"
     showgrid="false"
     inkscape:window-width="1366"
     inkscape:window-height="705"
     inkscape:window-x="-8"
     inkscape:window-y="-8"
     inkscape:window-maximized="1"
     fit-margin-top="0"
     fit-margin-left="0"
     fit-margin-right="0"
     fit-margin-bottom="0" />
  <metadata
     id="metadata3363">
    <rdf:RDF>
      <cc:Work
         rdf:about="">
        <dc:format>image/svg+xml</dc:format>
        <dc:type
           rdf:resource="http://purl.org/dc/dcmitype/StillImage" />
        <dc:title></dc:title>
      </cc:Work>
    </rdf:RDF>
  </metadata>
  <g
     inkscape:label="Layer 1"
     inkscape:groupmode="layer"
     id="layer1"
     transform="translate(-195.36311,-398.03546)">
    <image
       sodipodi:absref="C:\Users\qianz_000\Desktop\blog\signatureheadertransparent.png"
       xlink:href="signatureheadertransparent.png"
       width="352.13083"
       height="188.65352"
       preserveAspectRatio="none"
       id="image3344"
       x="195.36311"
       y="398.03546" />
    <path
       style="fill:#000000"
       d="m 479.24111,568.36739 c -0.79274,-0.68853 -0.91162,-0.99202 -0.72362,-1.84776 0.42238,-1.92324 1.70141,-3.83034 4.24227,-6.3253 0.85961,-0.84416 1.80388,-2.06541 2.09834,-2.71384 0.29445,-0.64843 1.06097,-1.78137 1.70345,-2.51763 0.64241,-0.73624 1.17095,-1.49919 1.17448,-1.69543 0.007,-0.19623 0.45963,-0.79096 1.01355,-1.32158 0.55384,-0.53068 1.00705,-1.0925 1.00705,-1.24854 0,-0.15607 0.71746,-1.35073 1.59446,-2.65483 2.17552,-3.23518 2.98332,-4.57126 3.79931,-6.28415 0.73338,-1.53949 2.65636,-4.80135 2.99838,-5.08605 0.11075,-0.0924 0.57159,-1.03385 1.02386,-2.09229 0.4713,-1.10307 1.03716,-1.9291 1.32582,-1.93531 0.44754,-0.0102 0.44754,-0.0482 0,-0.34755 -0.44154,-0.29523 -0.43447,-0.37752 0.0572,-0.66824 0.30865,-0.18234 0.66495,-0.82156 0.79175,-1.42049 0.12687,-0.59895 0.50649,-1.61766 0.84377,-2.26386 0.33722,-0.64621 0.8695,-1.77912 1.1829,-2.51762 0.31333,-0.73851 0.84102,-1.94696 1.17257,-2.68546 0.33163,-0.73851 0.79204,-2.02249 1.02316,-2.8533 0.23112,-0.83082 0.44302,-1.58609 0.47094,-1.67843 0.0276,-0.0923 0.16257,-0.62101 0.29947,-1.17486 0.13677,-0.55389 0.44861,-1.53575 0.69295,-2.18196 0.24434,-0.6462 0.70764,-2.15676 1.02951,-3.35682 0.32195,-1.20005 1.08551,-3.61696 1.69696,-5.37092 1.1067,-3.17474 2.01988,-6.56465 3.66219,-13.59513 0.4744,-2.03087 0.95644,-4.07014 1.07116,-4.53171 1.12917,-4.54259 1.40398,-8.14495 0.75684,-9.92152 -0.35376,-0.97105 -2.50609,-2.53125 -3.96012,-2.87064 -2.15424,-0.50284 -5.61875,-0.41735 -6.79119,0.16751 -0.59541,0.29699 -1.26241,0.54003 -1.48222,0.54003 -0.42974,0 -3.18971,2.65376 -3.18971,3.06697 0,0.13694 -0.60423,0.94715 -1.3427,1.80042 -0.73853,0.85327 -1.34277,1.65961 -1.34277,1.79187 0,0.13215 -0.41539,0.69786 -0.92308,1.25691 -0.50776,0.55906 -1.37634,1.59473 -1.93019,2.30151 -2.02518,2.58414 -5.02448,6.11882 -7.10211,8.36963 -1.17102,1.26869 -2.12915,2.50332 -2.12915,2.74363 0,0.24029 -0.39107,0.90168 -0.86908,1.4697 -0.65768,0.78159 -1.14755,1.03282 -2.01409,1.03282 -0.79402,0 -1.14501,-0.15436 -1.14501,-0.50354 0,-0.27692 -0.15111,-0.50352 -0.33573,-0.50352 -0.18461,0 -0.33566,-0.41743 -0.33566,-0.92762 0,-0.69129 0.62007,-1.58285 2.43372,-3.49925 3.39523,-3.58762 6.96541,-7.57687 6.96541,-7.78305 0,-0.0952 0.52798,-0.74783 1.17328,-1.45047 0.64531,-0.70259 1.17399,-1.39208 1.17484,-1.53213 0,-0.28072 1.51156,-2.07703 2.43534,-2.89747 0.32308,-0.28696 0.58742,-0.66432 0.58742,-0.83857 0,-0.32983 0.21324,-0.58369 2.1746,-2.589 0.65019,-0.66484 1.18226,-1.34985 1.18226,-1.52224 0,-0.17239 0.37454,-0.76136 0.83226,-1.30881 1.25816,-1.50477 3.86731,-5.45011 3.86731,-5.84796 0,-0.1928 0.15111,-0.35052 0.33565,-0.35052 0.18462,0 0.33906,-0.26437 0.34315,-0.58744 0.007,-0.32311 0.30287,-0.96508 0.6639,-1.42666 0.36103,-0.46157 0.65979,-1.02802 0.66389,-1.25881 0.007,-0.23078 0.15847,-0.41959 0.34315,-0.41959 0.18462,0 0.33566,-0.20621 0.33566,-0.45827 0,-0.25203 0.27749,-0.8185 0.61661,-1.25881 0.33919,-0.4403 0.88844,-1.63137 1.22078,-2.6468 0.33219,-1.01543 0.9611,-2.72478 1.39741,-3.79854 0.43638,-1.07378 0.79344,-2.24932 0.79344,-2.61234 0,-0.36301 0.21798,-1.1817 0.48438,-1.81928 0.59476,-1.42349 0.89565,-4.16709 1.01177,-9.22534 0.0879,-3.82315 -0.1509,-5.76175 -0.90922,-7.385 -0.99969,-2.13989 -4.3697,-6.23699 -5.62221,-6.83518 -0.27693,-0.13233 -0.88117,-0.45892 -1.34271,-0.72589 -1.14784,-0.6639 -3.59244,-0.61458 -7.38504,0.14906 -4.62796,0.93181 -4.85788,1.03188 -9.42661,4.10282 -1.87818,1.26243 -4.05639,3.47732 -3.73543,3.7983 0.10037,0.10037 -0.0544,0.18232 -0.3445,0.18232 -0.5455,0 -2.67529,2.95176 -3.08806,4.27996 -0.12913,0.41541 -0.37559,0.75528 -0.54776,0.75528 -0.17226,0 -0.31312,0.23549 -0.31312,0.52334 0,0.28783 -0.14532,0.43353 -0.32279,0.32379 -0.20674,-0.12772 -0.20674,-0.50509 0,-1.04871 0.17747,-0.46705 0.32279,-1.15097 0.32279,-1.51985 0,-1.49036 2.17184,-5.17625 4.27669,-7.25807 1.16671,-1.15392 2.26196,-2.09802 2.43386,-2.09802 0.17196,0 1.17342,-0.70109 2.22542,-1.55797 1.70295,-1.38702 2.45102,-1.73229 4.99485,-2.30506 0.36924,-0.0832 0.97348,-0.29605 1.34278,-0.47308 1.05221,-0.50455 4.52823,-1.4118 4.79491,-1.25154 0.13218,0.0794 0.84449,0.0405 1.58302,-0.0866 0.79436,-0.13677 1.92538,-0.06 2.76937,0.18793 0.78468,0.23045 1.42667,0.34043 1.42667,0.24435 0,-0.0961 0.43871,0.13781 0.97495,0.51959 0.53618,0.38185 1.10268,0.69551 1.25881,0.69705 0.50783,0.007 4.61842,4.16609 5.74789,5.81848 0.60508,0.88523 1.14925,2.03065 1.20918,2.54536 0.0601,0.51471 0.22823,1.12882 0.37397,1.36462 0.14581,0.23583 0.2948,0.97507 0.33128,1.6428 0.0368,0.66769 0.18842,3.19578 0.3377,5.61795 0.22455,3.64467 0.17953,4.6864 -0.26109,6.04228 -0.29282,0.90109 -0.71803,2.54468 -0.94498,3.65242 -0.22696,1.10778 -0.51865,2.16516 -0.64821,2.34978 -0.12962,0.18465 -0.34435,0.93991 -0.47723,1.67843 -0.13288,0.73851 -0.35948,1.49377 -0.50352,1.67839 -0.14411,0.18465 -0.43292,0.86439 -0.64184,1.51058 -0.76292,2.3595 -3.775,7.83556 -4.83287,8.78623 -0.344,0.30912 -0.60579,0.61124 -0.58169,0.67138 0.0699,0.1744 -0.35383,1.39563 -0.71875,2.0722 -0.43708,0.81042 -0.22758,0.97816 0.75649,0.6059 0.92372,-0.34942 5.18054,-0.31601 5.54008,0.0434 0.13246,0.13269 0.45215,0.24108 0.71013,0.24108 0.25798,0 1.2564,0.36011 2.21856,0.80021 2.09431,0.95798 4.22594,3.4621 4.29485,5.0454 0.14709,3.38053 -0.58113,7.12493 -2.91108,14.96669 -0.30167,1.01543 -0.6945,2.44452 -0.87297,3.17577 -0.17839,0.73125 -0.4544,1.48652 -0.61336,1.67841 -0.15896,0.19189 -0.61576,1.70153 -1.01524,3.35474 -0.71598,2.96342 -2.07318,7.43321 -2.65466,8.74305 -0.16391,0.36925 -0.62919,1.87982 -1.03397,3.35683 -0.40479,1.47699 -0.93071,3.13861 -1.16862,3.6925 -0.23797,0.55388 -0.61725,1.68679 -0.84286,2.51761 -0.22568,0.8308 -0.69782,1.98157 -1.04923,2.55725 -0.35149,0.57566 -0.63902,1.21388 -0.63902,1.41823 0,0.20437 -0.43313,1.31948 -0.96259,2.47799 -0.52939,1.15856 -1.29895,2.86173 -1.71009,3.78485 -1.20523,2.7062 -2.39209,5.12073 -2.63784,5.36648 -0.12545,0.1255 -0.23565,0.32894 -0.24476,0.45202 -0.0658,0.89035 -0.67174,1.8212 -1.35493,2.08095 -0.44571,0.16956 -0.81049,0.48146 -0.81049,0.69324 0,0.26008 0.17918,0.2364 0.55201,-0.0729 0.49405,-0.41007 0.52508,-0.37041 0.29594,0.37849 -0.14087,0.46012 -0.44139,1.06316 -0.66807,1.34009 -0.22666,0.27692 -0.74701,1.18328 -1.15639,2.01409 -0.40931,0.83082 -1.01546,1.96375 -1.34687,2.51763 -0.33142,0.55386 -0.94103,1.61126 -1.35465,2.34977 -2.40014,4.285 -4.33061,7.21717 -4.75179,7.21717 -0.18561,0 -0.24851,0.14395 -0.13981,0.32003 0.18455,0.29858 -0.30201,1.04257 -1.50088,2.29497 -0.27693,0.28934 -0.50727,0.61234 -0.51179,0.71784 -0.007,0.10557 -0.54254,1.02264 -1.19548,2.03807 -0.65301,1.01545 -1.48003,2.37497 -1.83802,3.02115 -0.35792,0.64618 -0.76405,1.22524 -0.90252,1.28679 -0.13846,0.0614 -0.25176,0.23204 -0.25176,0.37893 0,0.35363 -2.26026,4.09772 -2.7811,4.60697 -0.31615,0.30906 -0.62121,0.21345 -1.35641,-0.42511 z M 377.14422,549.12107 c -0.24385,-0.76826 0.11075,-2.37832 0.52401,-2.37832 0.16087,0 0.59951,-0.60181 0.97475,-1.33736 0.42924,-0.84142 0.99199,-1.41509 1.51735,-1.54696 0.45935,-0.11527 0.83515,-0.35446 0.83515,-0.53152 0,-0.17706 0.3153,-0.22185 0.70065,-0.0996 0.89996,0.28566 2.29298,-0.99408 1.43883,-1.32185 -0.7478,-0.28695 -0.77162,-0.26769 -0.62312,0.50325 0.10489,0.54457 0.0374,0.6202 -0.30195,0.33859 -0.24031,-0.19946 -0.55681,-0.25067 -0.70333,-0.11373 -0.14652,0.13695 -0.1087,-0.055 0.0836,-0.42626 0.56013,-1.08021 1.68592,-1.94085 2.25376,-1.72292 0.42585,0.1634 0.45956,0.0812 0.18038,-0.44074 -0.48041,-0.89768 -0.42946,-1.1264 0.19747,-0.88584 0.37355,0.14327 0.48501,0.062 0.36033,-0.26294 -0.0994,-0.25878 0.1104,-0.78289 0.46613,-1.16465 0.35566,-0.3818 0.64672,-0.77285 0.64672,-0.869 0,-0.0963 0.94407,-1.35695 2.09799,-2.8017 1.15391,-1.44476 2.55119,-3.20608 3.1051,-3.91402 0.55385,-0.70794 1.15808,-1.46139 1.3427,-1.67432 0.18462,-0.21292 0.50586,-0.68285 0.71394,-1.04431 0.22836,-0.39685 0.72701,-0.65197 1.25873,-0.64397 0.48437,0.007 0.88067,-0.10603 0.88067,-0.25176 0,-0.14582 -0.2266,-0.26499 -0.5036,-0.26499 -0.76842,0 -0.64339,-0.322 1.25882,-3.24041 0.96929,-1.48709 1.928,-2.9902 2.13042,-3.34029 2.18867,-3.78468 3.06283,-5.48577 2.90168,-5.64686 -0.10588,-0.10591 -0.0368,-0.19271 0.15437,-0.19271 0.40266,0 3.16447,-7.35627 3.27897,-8.73364 0.0233,-0.28018 0.16412,-0.70638 0.31283,-0.9471 0.36287,-0.58711 0.47419,-4.41706 0.13458,-4.62699 -0.14787,-0.0913 -0.26894,-0.51878 -0.26894,-0.9497 0,-1.14199 -2.05254,-1.68966 -2.95399,-0.78817 -0.31332,0.31333 -0.40401,0.25737 -0.40796,-0.25176 0,-0.39827 -0.10171,-0.50691 -0.25176,-0.27744 -0.38054,0.58195 -5.28819,3.14895 -5.99619,3.13636 -0.81373,-0.0137 -2.13897,-1.12301 -2.13897,-1.78918 0,-0.74162 0.72375,-2.22785 1.08486,-2.22785 0.41001,0 1.26488,-0.8751 1.26488,-1.29477 0,-0.18464 0.19056,-0.5353 0.42351,-0.77925 0.23297,-0.24399 0.6118,-0.82123 0.84194,-1.28279 0.68877,-1.38147 1.76622,-3.11609 2.71064,-4.36387 0.48903,-0.6462 0.90852,-1.2882 0.93219,-1.42666 0.0233,-0.13848 0.0622,-0.42133 0.0851,-0.62855 0.0296,-0.26372 0.19303,-0.25139 0.54543,0.0412 0.60927,0.50557 0.67041,-0.009 0.0839,-0.70637 -0.36753,-0.43707 -0.60558,-0.40336 -1.9174,0.27151 -0.82377,0.42378 -1.37868,0.77053 -1.23308,0.77053 0.14568,0 -0.23614,0.41541 -0.84837,0.92311 -0.61222,0.50775 -1.52512,1.33855 -2.02857,1.84626 -0.50345,0.50774 -1.00069,0.92314 -1.10486,0.92314 -0.10411,0 -0.92132,0.75527 -1.81577,1.67841 -1.65369,1.70665 -2.8192,2.11325 -3.65682,1.27559 -1.10946,-1.10945 0.19387,-3.04436 4.13624,-6.14083 0.70362,-0.55269 1.69575,-1.42127 2.20464,-1.93019 0.50897,-0.5089 1.08798,-0.92527 1.2868,-0.92527 0.19889,0 0.36152,-0.15111 0.36152,-0.33568 0,-0.18463 0.19218,-0.33569 0.42705,-0.33569 0.23487,0 0.95814,-0.43775 1.60718,-0.97278 1.47643,-1.21696 3.51547,-2.08749 4.23916,-1.80977 0.36846,0.14139 0.47017,0.0815 0.30767,-0.18154 -0.15415,-0.24949 2.9e-4,-0.39271 0.42387,-0.39271 1.54901,0 1.95161,3.07319 0.68064,5.19509 -0.33438,0.55825 -0.85812,1.50595 -1.16388,2.10597 -0.30576,0.60003 -0.68976,1.09098 -0.85332,1.09098 -0.16355,0 -0.27105,0.11321 -0.23889,0.25176 0.10277,0.44218 -0.82483,2.09802 -1.1754,2.09802 -0.18583,0 -0.23841,0.0993 -0.11684,0.22088 0.33184,0.33186 -0.46634,1.1481 -0.87544,0.89524 -0.20815,-0.12859 -0.28003,-0.0232 -0.17387,0.25545 0.28081,0.73734 -0.32788,2.06726 -0.81918,1.78975 -0.33085,-0.18693 -0.33481,-0.14396 -0.0183,0.19781 0.33078,0.35738 0.66545,0.34024 1.8463,-0.0946 2.64928,-0.97553 4.05758,-0.98195 5.53309,-0.0251 1.23257,0.79922 1.35026,1.01667 1.72112,3.17935 0.49221,2.87018 0.505,4.21744 0.0424,4.5031 -0.19536,0.12073 -0.2683,0.62064 -0.16186,1.11077 0.51964,2.39473 -3.95841,13.71733 -6.90852,17.46769 -0.34675,0.44092 -0.63053,0.92164 -0.63053,1.0683 0,0.38067 -4.07179,6.50173 -4.41444,6.63622 -0.15677,0.0614 -0.28512,0.27146 -0.28512,0.4665 0,0.19504 -0.23501,0.52647 -0.52225,0.73652 -0.28725,0.21003 -0.56226,0.65416 -0.6111,0.98697 -0.0488,0.33279 -0.3047,0.74175 -0.56869,0.9088 -0.26392,0.16699 -0.3558,0.306 -0.20413,0.30883 0.15162,0.002 0.0759,0.21329 -0.16786,0.46773 -0.24399,0.25445 -1.12331,1.32757 -1.95415,2.38475 -0.83084,1.05721 -1.91436,2.35961 -2.40792,2.89423 -0.49348,0.53464 -0.80511,0.97209 -0.69244,0.97209 0.11266,0 -0.1719,0.41539 -0.6323,0.92311 -0.46049,0.50771 -1.22687,1.45182 -1.70317,2.09801 -1.36455,1.85119 -2.16478,2.68548 -2.57599,2.68548 -0.20914,0 -0.36238,0.1132 -0.34054,0.25176 0.12022,0.76169 -0.093,1.14236 -0.54325,0.96956 -0.4821,-0.18499 -0.64615,0.13917 -0.52854,1.04451 0.0304,0.2308 -0.10312,0.41961 -0.29594,0.41961 -0.19274,0 -0.35042,0.23345 -0.35042,0.51876 0,1.62287 -3.39369,2.96567 -3.85127,1.52389 z m 8.88648,-9.76333 c 0,-0.18464 -0.2266,-0.33569 -0.50352,-0.33569 -0.27693,0 -0.50352,0.15112 -0.50352,0.33569 0,0.18462 0.22659,0.33568 0.50352,0.33568 0.27692,0 0.50352,-0.15112 0.50352,-0.33568 z m 2.17962,-3.68866 c 0.11761,-0.1903 -0.017,-0.24657 -0.31593,-0.13199 -0.58149,0.22316 -0.68793,0.46375 -0.20505,0.46375 0.17374,0 0.40817,-0.14925 0.52098,-0.33183 z m 1.68076,-1.34656 c 0.11422,-0.18465 -0.0283,-0.3357 -0.31586,-0.3357 -0.28788,0 -0.52332,0.15111 -0.52332,0.3357 0,0.1846 0.14207,0.33567 0.31587,0.33567 0.17367,0 0.40917,-0.15113 0.52331,-0.33567 z m 1.17492,0 c 0,-0.18465 -0.0664,-0.3357 -0.14808,-0.3357 -0.0815,0 -0.24138,0.15111 -0.35552,0.3357 -0.114,0.1846 -0.0473,0.33567 0.14808,0.33567 0.19549,0 0.35552,-0.15113 0.35552,-0.33567 z m 0,-1.67843 c 0,-0.18463 -0.16003,-0.33568 -0.35552,-0.33568 -0.19551,0 -0.26216,0.15111 -0.14808,0.33568 0.11429,0.18462 0.2741,0.33568 0.35552,0.33568 0.0815,0 0.14808,-0.15112 0.14808,-0.33568 z m 5.37087,-8.0923 c 0,-0.48257 -0.58239,-0.34428 -0.78617,0.18667 -0.12482,0.32511 -0.0255,0.42452 0.29975,0.29976 0.26753,-0.10263 0.48642,-0.32155 0.48642,-0.48643 z m 0.91615,-1.17394 c -0.11146,-0.11145 -0.4011,-0.12346 -0.64339,-0.0265 -0.26781,0.10727 -0.18823,0.1867 0.20277,0.20282 0.3539,0.0153 0.55216,-0.0648 0.44062,-0.17631 z m 0.25876,-0.80424 c 0.11422,-0.18462 0.0473,-0.33567 -0.14808,-0.33567 -0.19549,0 -0.35544,0.15112 -0.35544,0.33567 0,0.18463 0.0664,0.33569 0.148,0.33569 0.0815,0 0.24144,-0.15111 0.35552,-0.33569 z m -20.37314,19.87407 c -0.49596,-0.68224 -3.05563,-2.08289 -3.80631,-2.08289 -0.68949,0 -0.61781,-0.5896 0.0942,-0.77566 0.4585,-0.11971 0.42782,-0.16204 -0.13981,-0.19247 -0.40005,-0.0214 -0.79069,-0.15231 -0.86816,-0.29068 -0.0774,-0.13847 -0.0939,-0.0607 -0.0368,0.17284 0.11323,0.46131 -1.50872,0.32141 -1.86545,-0.16085 -0.10729,-0.14498 -0.57272,-0.31588 -1.03426,-0.37966 -0.46154,-0.0637 -0.88957,-0.2526 -0.95113,-0.4196 -0.0615,-0.167 -0.38415,-0.30366 -0.71691,-0.30366 -0.8678,0 -2.3954,-0.85519 -2.10328,-1.17751 0.1357,-0.14974 -0.0432,-0.16752 -0.39786,-0.0395 -0.38775,0.14001 -0.75344,0.061 -0.91799,-0.19829 -0.44648,-0.70359 -0.32314,-1.02131 0.30371,-0.78265 0.45348,0.17262 0.49688,0.13233 0.19041,-0.17653 -0.45969,-0.46329 -1.59467,-0.14651 -1.28283,0.35799 0.33177,0.53686 -0.37517,0.39191 -0.84406,-0.17304 -0.23331,-0.28109 -0.66721,-0.43562 -0.96421,-0.34335 -0.29707,0.0922 -0.76666,0.0172 -1.04358,-0.16665 -0.43561,-0.28929 -0.41567,-0.40145 0.148,-0.83153 0.77988,-0.59498 0.53151,-0.63945 -0.62587,-0.11214 -0.68305,0.31124 -1.15279,0.26512 -2.44948,-0.2405 -0.88243,-0.34409 -1.67991,-0.63809 -1.77222,-0.65334 -0.0924,-0.0153 -0.51568,-0.14634 -0.94081,-0.29124 -0.66178,-0.22558 -0.7109,-0.34395 -0.34146,-0.82269 0.28095,-0.36413 0.16051,-0.32746 -0.34555,0.10524 -0.7268,0.62145 -0.79798,0.62689 -1.1019,0.0838 -0.17861,-0.31927 -0.62148,-0.58045 -0.98407,-0.58045 -0.36259,0 -0.92153,-0.13337 -1.24213,-0.29654 -1.254,-0.63793 -3.50734,-1.4768 -4.11843,-1.53321 -0.0983,-0.009 -0.77804,-0.26807 -1.51057,-0.57549 -2.01169,-0.84435 -2.64971,-1.06344 -2.92635,-1.00489 -0.13847,0.0295 -0.25176,-0.0976 -0.25176,-0.2824 0,-0.18461 -0.31099,-0.33567 -0.69111,-0.33567 -0.38018,0 -0.59788,-0.15112 -0.48373,-0.33569 0.12376,-0.20016 -0.28286,-0.33569 -1.00705,-0.33569 -0.84179,0 -1.14005,-0.12055 -0.97184,-0.39272 0.16327,-0.26408 0.0601,-0.32249 -0.31587,-0.17837 -0.30717,0.11781 -0.55858,0.0822 -0.55858,-0.0794 0,-0.16153 -0.32569,-0.20853 -0.72383,-0.10456 -0.49228,0.12876 -0.64778,0.0663 -0.48607,-0.19543 0.15415,-0.2494 0.0544,-0.31442 -0.28321,-0.18479 -0.28653,0.10999 -0.52098,0.0328 -0.52098,-0.17169 0,-0.20439 -0.31827,-0.3716 -0.70729,-0.3716 -0.49073,0 -0.64813,-0.15419 -0.51405,-0.50353 0.10637,-0.27696 0.0467,-0.50352 -0.13196,-0.50352 -0.17889,0 -0.32513,0.14787 -0.32513,0.32848 0,0.20093 -0.32181,0.18188 -0.82872,-0.049 -0.45581,-0.20765 -0.73309,-0.53218 -0.61625,-0.72119 0.12884,-0.20848 -0.007,-0.25934 -0.34627,-0.12927 -0.30724,0.11782 -0.55857,0.059 -0.55857,-0.13062 0,-0.18971 -0.14582,-0.2548 -0.32415,-0.14463 -0.17832,0.11009 -0.91155,-0.0994 -1.62945,-0.46555 -0.94025,-0.47965 -1.40737,-0.56378 -1.67036,-0.30083 -0.26294,0.26296 -0.6991,0.20654 -1.55955,-0.20177 -0.65697,-0.31174 -1.19442,-0.68399 -1.19442,-0.82723 0,-0.32238 -2.49874,-1.55258 -3.86038,-1.90057 -0.55392,-0.14155 -1.46025,-0.22042 -2.0141,-0.17529 -0.55384,0.0452 -0.90003,-0.0269 -0.7692,-0.15982 0.13083,-0.13301 -0.4985,-0.62133 -1.39847,-1.08504 -1.19328,-0.61487 -1.58118,-0.98678 -1.43275,-1.37363 0.17967,-0.46825 0.14122,-0.47271 -0.32866,-0.0378 -0.29268,0.27087 -0.4515,0.6254 -0.35283,0.78782 0.0986,0.16238 -0.0304,0.21908 -0.28696,0.12585 -0.25649,-0.0933 -0.42217,-0.35868 -0.36817,-0.58999 0.0636,-0.27262 -0.14292,-0.35745 -0.58742,-0.2412 -0.37714,0.0986 -0.68566,0.051 -0.68566,-0.10569 0,-0.15675 -0.3399,-0.21921 -0.75528,-0.13882 -1.05406,0.20398 -2.9371,-0.46588 -2.74161,-0.97529 0.10335,-0.26926 -0.72742,-0.70403 -2.36691,-1.23879 -1.38943,-0.45316 -2.52666,-0.9372 -2.52723,-1.07569 -4.9e-4,-0.13848 -0.31205,-0.25176 -0.69223,-0.25176 -0.38012,0 -0.61873,-0.11712 -0.53025,-0.26034 0.0885,-0.14326 -0.4539,-0.25216 -1.20537,-0.24215 -0.75146,0.0102 -1.56915,-0.18462 -1.8171,-0.43253 -0.24787,-0.2479 -0.71613,-0.41128 -1.04062,-0.36301 -0.96251,0.14308 -4.1525,-0.75994 -4.33139,-1.22615 -0.24328,-0.63389 -2.80428,-1.41143 -2.80428,-0.85138 0,0.17198 -0.26442,0.32012 -0.5875,0.32917 -1.24347,0.0349 -1.76232,0.14599 -1.76232,0.37774 0,0.13232 -0.30209,0.31956 -0.67139,0.41615 -0.36923,0.0966 -0.67132,0.42006 -0.67132,0.71891 0,0.33517 -0.38584,0.62052 -1.00704,0.74475 -0.55392,0.11077 -1.00705,0.33358 -1.00705,0.49513 0,0.16153 -0.23133,0.29371 -0.51412,0.29371 -0.28272,0 -0.59936,0.22251 -0.70376,0.49441 -0.10432,0.27192 -0.74157,0.5958 -1.41607,0.71978 -0.67456,0.12395 -1.30191,0.32329 -1.3943,0.44295 -0.20454,0.26519 -9.43991,4.05071 -9.88052,4.04997 -0.17246,-2.4e-4 -0.92781,0.28635 -1.67843,0.63694 -0.75062,0.35057 -2.12004,0.87012 -3.04319,1.15453 -2.45237,0.75553 -9.17027,1.97785 -9.55696,1.73886 -0.18249,-0.11271 -0.63774,-0.0413 -1.01163,0.1588 -1.02761,0.54997 -13.30185,0.65595 -16.50823,0.14258 -3.63216,-0.58157 -8.48581,-1.72528 -10.56732,-2.4901 -3.0779,-1.13083 -7.03066,-3.20876 -8.11658,-4.26673 -0.24399,-0.23769 -0.59272,-0.43216 -0.77508,-0.43216 -0.18235,0 -0.23819,-0.15112 -0.12411,-0.33568 0.11422,-0.18464 0.053,-0.33569 -0.13542,-0.33569 -0.42655,0 -4.10472,-3.60686 -4.87145,-4.77698 -0.4431,-0.67624 -0.47095,-0.90035 -0.12893,-1.03745 0.29021,-0.11629 0.24753,-0.18374 -0.12736,-0.20136 -0.65273,-0.0305 -2.18613,-2.20587 -3.09507,-4.39036 -0.34569,-0.83082 -0.84434,-2.00716 -1.10812,-2.61403 -0.79967,-1.83979 -0.91543,-2.49128 -0.88406,-4.97196 0.0212,-1.66853 0.21134,-2.6749 0.6345,-3.35682 1.00188,-1.61456 3.75111,-4.16291 4.49099,-4.16291 0.38131,0 0.6933,-0.12892 0.6933,-0.28641 0,-0.53842 6.15011,-1.52221 9.23126,-1.47666 3.46464,0.0514 8.52389,0.77375 12.42019,1.77379 1.47706,0.3791 3.28972,0.83507 4.02818,1.01325 0.73853,0.17821 3.23098,0.91816 5.53881,1.64429 2.30783,0.72615 4.87577,1.50747 5.7066,1.73624 0.83077,0.22879 1.66162,0.51925 1.84624,0.64544 0.18461,0.1262 0.56225,0.22644 0.83918,0.22271 0.49877,-0.007 4.58117,1.24212 5.87446,1.79701 1.10967,0.4761 4.94857,1.65809 5.38523,1.65809 0.22385,0 0.58191,0.21078 0.79578,0.46839 0.21381,0.25764 0.94979,0.56934 1.6356,0.69271 1.05433,0.18966 3.07535,0.88543 6.28208,2.1628 0.36923,0.14701 1.76806,0.61642 3.10843,1.04301 1.34044,0.42654 2.60391,0.97654 2.80782,1.22223 0.20977,0.25273 0.69273,0.36583 1.1125,0.26047 0.45411,-0.11407 0.9107,0.0174 1.17752,0.33891 0.23968,0.28883 0.71055,0.52513 1.04627,0.52513 0.33573,0 0.70129,0.14702 0.81225,0.32657 0.11104,0.17959 0.81431,0.49146 1.5628,0.69301 1.3191,0.35521 1.34292,0.38647 0.77303,1.01618 -0.74751,0.826 -0.8442,0.82022 -3.4038,-0.20377 -1.17335,-0.46942 -2.26669,-0.77103 -2.42968,-0.67028 -0.16313,0.1007 -0.54932,0.0862 -0.8584,-0.0324 -0.45307,-0.17385 -0.47519,-0.27694 -0.11422,-0.53176 0.30413,-0.21475 0.1533,-0.25194 -0.4703,-0.11595 -0.66157,0.14429 -1.10699,0.012 -1.59447,-0.47637 -0.68552,-0.68549 -1.89711,-0.95791 -1.51573,-0.3408 0.24081,0.38959 -0.27098,0.45634 -0.6434,0.0838 -0.13846,-0.13848 -0.3524,-0.2604 -0.47552,-0.27095 -0.89064,-0.0765 -4.01956,-1.32426 -3.88138,-1.54791 0.15832,-0.25601 -0.82123,-0.42738 -1.77194,-0.31 -0.21685,0.0269 -0.49009,-0.10637 -0.60721,-0.29592 -0.11719,-0.18951 -0.51512,-0.34457 -0.88435,-0.34457 -0.42203,0 -0.5824,-0.14395 -0.43185,-0.38756 0.15246,-0.2466 0.0915,-0.29616 -0.16716,-0.13626 -0.2237,0.1383 -0.80561,0.15111 -1.29322,0.0287 -0.69712,-0.17497 -0.78271,-0.28817 -0.40048,-0.52998 0.33086,-0.20932 -0.0714,-0.30912 -1.26057,-0.31263 -1.76996,-0.007 -3.45651,-0.53503 -3.45651,-1.08585 0,-0.16582 0.18885,-0.18818 0.41962,-0.0496 0.33424,0.20082 0.33509,0.1477 0.007,-0.26133 -0.22851,-0.28237 -0.97262,-0.53435 -1.65369,-0.55996 -0.681,-0.0255 -1.36264,-0.23898 -1.51474,-0.47415 -0.21189,-0.32767 -0.33728,-0.33384 -0.53674,-0.0262 -0.19183,0.29578 -0.61096,0.31286 -1.59446,0.0649 -2.30021,-0.57971 -3.31948,-0.8791 -4.23697,-1.24446 -0.48875,-0.1946 -1.00386,-0.25018 -1.1448,-0.12344 -0.14087,0.1267 -0.15726,0.0574 -0.0368,-0.15403 0.209,-0.36566 -0.6545,-0.96164 -1.21611,-0.83938 -0.69147,0.15043 -4.80488,-0.71095 -5.73574,-1.20121 -0.57681,-0.30384 -2.33278,-0.8136 -3.90208,-1.13279 -1.5693,-0.31921 -3.30647,-0.73851 -3.86031,-0.9318 -2.40452,-0.83906 -8.81213,-1.63145 -12.44698,-1.53922 -7.02245,0.17816 -10.46809,2.02592 -11.05317,5.92734 -0.21557,1.43759 0.24928,4.75322 0.83501,5.9559 0.14015,0.28796 0.57908,1.24999 0.97516,2.13782 0.39616,0.88786 0.86781,1.7942 1.04805,2.01409 0.1803,0.21992 1.04478,1.30616 1.92121,2.41393 3.62537,4.58251 5.66194,6.00891 12.67839,8.88001 0.36929,0.15113 1.27562,0.4327 2.01408,0.62579 0.73853,0.1931 2.55119,0.66761 4.02825,1.05446 1.82545,0.47814 4.00386,0.73786 6.80243,0.81104 2.26436,0.0593 4.20049,0.19112 4.30255,0.29319 0.10206,0.10207 0.70934,0.0409 1.34942,-0.13575 0.64008,-0.17673 1.46067,-0.22712 1.82361,-0.1118 0.40124,0.12739 0.65986,0.0544 0.65986,-0.18625 0,-0.26577 0.36344,-0.32745 1.10713,-0.18794 0.60897,0.11424 1.8552,0.0668 2.76944,-0.10557 1.06027,-0.19973 1.70437,-0.19557 1.77873,0.012 0.0693,0.19224 0.31191,0.16256 0.59554,-0.0729 0.26343,-0.21863 0.55887,-0.31766 0.65648,-0.22005 0.0975,0.0975 0.83155,-0.0195 1.631,-0.25997 1.07051,-0.32219 1.55241,-0.33864 1.82855,-0.0625 0.27615,0.27613 0.37496,0.22456 0.37496,-0.19571 0,-0.4934 0.57583,-0.74188 1.41988,-0.61266 0.13472,0.0207 1.00896,-0.26361 1.94264,-0.63162 0.93361,-0.36802 1.94447,-0.66911 2.2462,-0.66911 0.61866,0 3.88278,-1.21948 7.1472,-2.67016 1.2,-0.53331 2.93717,-1.30043 3.86031,-1.7047 0.92315,-0.40426 2.58476,-1.2688 3.69252,-1.92116 1.10776,-0.65237 2.20295,-1.18945 2.43372,-1.19351 0.23077,-0.004 0.41955,-0.1332 0.41955,-0.28713 0,-0.15385 0.2266,-0.27972 0.5036,-0.27972 0.27692,0 0.50345,-0.14088 0.50345,-0.31306 0,-0.17219 0.28795,-0.40444 0.63986,-0.51614 0.36266,-0.11509 0.59944,-0.45208 0.54664,-0.7779 -0.12518,-0.7719 0.42853,-1.41731 1.02075,-1.19005 0.82929,0.31821 2.02724,-0.1743 3.37383,-1.38704 0.71527,-0.64415 1.42582,-1.17466 1.57906,-1.17897 0.15316,-0.007 1.19328,-0.92243 2.31122,-2.04037 1.14098,-1.14099 2.22889,-1.95729 2.48001,-1.8609 0.24611,0.0944 0.55109,0.004 0.67788,-0.2012 0.13945,-0.22579 0.0775,-0.27841 -0.15711,-0.13336 -0.91093,0.563 -0.28548,-0.52378 0.79437,-1.38029 0.64997,-0.5156 1.58152,-1.54167 2.06999,-2.28017 0.48854,-0.7385 1.43855,-2.0225 2.1112,-2.85329 0.67274,-0.83083 1.51608,-2.11481 1.87429,-2.85329 0.35813,-0.73852 0.73034,-1.41827 0.82709,-1.51059 0.41228,-0.39337 2.00688,-3.80206 2.01663,-4.31091 0.007,-0.30607 0.22766,-0.84308 0.49279,-1.19339 0.26518,-0.35027 0.40662,-0.75904 0.31431,-0.90834 -0.0922,-0.14923 0.0722,-0.84458 0.36548,-1.54504 0.49426,-1.1806 0.72115,-2.34829 0.97256,-5.00518 0.0544,-0.57538 0.162,-1.17961 0.23897,-1.34273 0.20652,-0.4377 0.0874,-4.40626 -0.19021,-6.33886 -0.31042,-2.16048 -1.26439,-5.28653 -2.74159,-8.98416 -0.64637,-1.61801 -1.08253,-3.09189 -0.96916,-3.27526 0.11315,-0.18339 -0.0353,-0.4262 -0.3312,-0.53959 -0.62389,-0.23938 -1.59298,-1.95339 -1.28094,-2.26547 0.11648,-0.11645 -0.14256,-0.58878 -0.5754,-1.04961 -0.43292,-0.46083 -0.6745,-0.83789 -0.53681,-0.83789 0.13761,0 0.0241,-0.22658 -0.25317,-0.50352 -0.277,-0.27695 -0.63287,-0.50353 -0.79084,-0.50353 -0.3117,0 -1.41162,-1.71082 -1.32454,-2.06017 0.0297,-0.11765 -0.32435,-0.52804 -0.78589,-0.91197 -0.4616,-0.38392 -0.70608,-0.70305 -0.54345,-0.70919 0.16277,-0.007 -0.93248,-1.20046 -2.43371,-2.65402 -1.50117,-1.45355 -2.72944,-2.8083 -2.72944,-3.01055 0,-0.54224 -3.49243,-3.02842 -6.378,-4.54032 -6.02191,-3.15524 -7.59248,-3.90095 -8.22422,-3.90491 -0.36923,-0.002 -1.04895,-0.20039 -1.51057,-0.44019 -2.73474,-1.42089 -10.02895,-2.16277 -14.93787,-1.5193 -1.29237,0.1694 -2.83998,0.33969 -3.4392,0.37844 -0.59922,0.0389 -1.09016,0.17171 -1.09101,0.2955 -5e-4,0.12379 -1.02111,0.33093 -2.26733,0.46035 -1.24623,0.12944 -2.4169,0.35062 -2.60152,0.49149 -0.18468,0.14086 -0.8644,0.36152 -1.51056,0.4903 -1.59744,0.31834 -3.26088,0.84122 -4.86742,1.52994 -0.73854,0.3166 -1.66897,0.67672 -2.06768,0.80026 -0.39877,0.12346 -0.90815,0.44537 -1.13214,0.71516 -0.22384,0.26977 -0.61788,0.49052 -0.87558,0.49052 -0.25763,0 -1.48534,0.62511 -2.72823,1.38917 -1.24291,0.76404 -2.84677,1.70814 -3.56424,2.098 -0.71747,0.38987 -1.52789,1.04874 -1.80092,1.46414 -0.27311,0.41541 -0.66799,0.75851 -0.87749,0.76246 -0.20957,0.004 -0.81268,0.61711 -1.34023,1.36262 -0.52755,0.74548 -1.04499,1.26957 -1.14996,1.16463 -0.10503,-0.10478 -0.50416,0.10094 -0.8871,0.45718 -0.68898,0.64121 -0.70609,0.64004 -1.63963,-0.10965 -1.28043,-1.02824 -0.99304,-1.98572 1.16919,-3.89582 0.93629,-0.82707 2.17488,-1.97533 2.75233,-2.55165 0.57753,-0.57633 2.16026,-1.67232 3.5171,-2.43556 1.35691,-0.76324 2.85001,-1.68897 3.3182,-2.0572 0.46811,-0.36822 0.99673,-0.66951 1.1747,-0.66951 0.32364,0 0.97078,-0.26522 4.11758,-1.68755 0.92315,-0.41727 2.13157,-0.87928 2.68548,-1.02672 0.55385,-0.14736 1.91337,-0.58604 3.02113,-0.97469 1.10777,-0.38863 3.37361,-0.91854 5.03523,-1.17755 1.6616,-0.25902 3.85197,-0.61705 4.86742,-0.79564 1.01539,-0.1786 2.14831,-0.33104 2.51761,-0.33877 7.17929,-0.15044 11.77333,0.39122 15.77706,1.86025 0.73845,0.27095 1.64485,0.57354 2.01408,0.67239 2.64081,0.70699 9.87806,5.00322 12.62814,7.49647 2.35942,2.13908 6.00225,5.82271 6.00225,6.06952 0,0.16647 0.41829,0.71932 0.92958,1.22866 0.5113,0.50934 1.14106,1.34144 1.39946,1.84917 0.25841,0.50772 0.65613,0.92313 0.88385,0.92313 0.22766,0 0.5776,0.4154 0.77762,0.92313 0.38923,0.98796 0.78751,1.66567 1.93542,3.29304 1.00874,1.43002 2.46609,4.5184 2.46609,5.22597 0,0.32377 0.16787,0.6925 0.37319,0.81934 0.64262,0.39717 2.07791,3.97124 1.65178,4.1133 -0.2425,0.0808 -0.1803,0.27493 0.17026,0.53128 0.87276,0.63817 1.75216,5.6982 1.12226,6.45719 -0.3141,0.37849 -0.28265,0.42977 0.15967,0.26004 0.71965,-0.27618 0.74376,0.0503 0.37347,5.06345 -0.0818,1.10776 -0.21042,2.9863 -0.28576,4.17454 -0.0896,1.41225 -0.31283,2.28899 -0.6446,2.53163 -0.37079,0.27112 -0.41849,0.53052 -0.17691,0.96219 0.21727,0.38821 0.2172,0.72897 -2.1e-4,0.99305 -0.53258,0.64672 -2.4075,4.37639 -2.4075,4.78898 0,0.45825 -0.71789,1.81648 -2.02822,3.83725 -0.53872,0.83082 -1.13936,1.87554 -1.33479,2.32159 -0.19535,0.44604 -0.62587,1.05028 -0.95665,1.34272 -0.33077,0.29246 -0.74044,0.77773 -0.91028,1.07839 -0.72849,1.28953 -3.93827,4.63129 -4.25838,4.43347 -0.19797,-0.12244 -0.25063,-0.0554 -0.12108,0.15419 0.12674,0.20505 -0.11266,0.55272 -0.53553,0.77806 -0.88449,0.47121 -1.61101,1.35732 -1.39685,1.70379 0.0812,0.13132 -0.17083,0.40898 -0.55985,0.61719 -0.71648,0.38343 -1.20841,0.765 -3.11888,2.41915 -0.58304,0.50476 -1.24885,0.92017 -1.47962,0.92312 -0.23077,0.002 -0.41962,0.21724 -0.41962,0.47619 0,0.29491 0.90922,0.73797 2.43372,1.18591 1.33853,0.39331 2.78067,0.86117 3.20475,1.03975 0.42408,0.17856 1.04762,0.32466 1.38554,0.32466 0.33799,0 0.80115,0.22493 1.02931,0.49982 0.22815,0.27491 0.53469,0.42574 0.68127,0.33516 0.36995,-0.22864 4.02133,1.20246 4.02133,1.5761 0,0.16716 0.18886,0.26868 0.41963,0.22574 0.23077,-0.0429 0.90194,0.0359 1.49141,0.17559 0.7374,0.1745 1.01425,0.40375 0.88724,0.7347 -0.22385,0.58335 0.0269,0.60944 0.85883,0.0896 0.51207,-0.3198 0.79613,-0.25833 1.55128,0.33569 0.50846,0.39994 1.29068,0.72715 1.73823,0.72715 0.44754,0 0.73018,0.13524 0.62798,0.30053 -0.20256,0.32777 0.80342,0.83252 1.08932,0.54659 0.0966,-0.0966 -0.0255,-0.17576 -0.27183,-0.17576 -0.24619,0 -0.36846,-0.0791 -0.27184,-0.17573 0.31333,-0.31328 1.28192,0.235 1.05722,0.59846 -0.11965,0.19382 -0.0658,0.2584 0.12009,0.14359 0.18582,-0.11492 0.92089,0.0885 1.63341,0.45167 0.71252,0.36327 1.64119,0.66048 2.06371,0.66048 0.42258,0 0.76828,0.13114 0.76828,0.29149 0,0.16034 0.58643,0.37015 1.30326,0.46629 0.71677,0.0961 1.7364,0.41388 2.26586,0.7061 2.23326,1.23265 5.9496,2.92395 6.80341,3.09622 0.25848,0.0523 0.59831,0.2937 0.75529,0.53675 0.22977,0.35584 0.33918,0.35867 0.56183,0.0137 0.21175,-0.32739 0.42054,-0.26841 0.89127,0.25174 0.34831,0.38487 1.03722,0.6793 1.58951,0.6793 0.53625,0 0.89022,0.13695 0.78674,0.30435 -0.10348,0.16753 0.13782,0.21916 0.53625,0.1151 0.49631,-0.12976 0.6487,-0.0672 0.48415,0.19916 -0.16186,0.26194 0.0944,0.38855 0.78674,0.38855 0.56473,0 1.02683,0.14822 1.02683,0.3293 0,0.27276 0.52692,0.49797 2.01409,0.8609 1.33642,0.32611 2.88302,1.49526 1.97797,1.49526 -0.22631,0 -0.31438,0.0972 -0.19578,0.21567 0.11867,0.11868 0.45744,0.0153 0.75296,-0.23016 0.44888,-0.37256 0.58727,-0.36664 0.84214,0.0359 0.16765,0.26506 0.30725,0.34523 0.31007,0.17816 0,-0.16701 0.30724,-0.0305 0.67655,0.30378 0.36923,0.33419 0.67132,0.80183 0.67132,1.03925 0,0.23742 0.13697,0.51633 0.30441,0.61982 0.1673,0.10342 0.22978,-0.0972 0.13861,-0.44584 -0.17359,-0.66381 0.60268,-1.43307 0.8121,-0.80478 0.0658,0.19772 0.39772,0.28683 0.73726,0.19803 0.33955,-0.0888 0.71889,0.002 0.84293,0.20349 0.12397,0.20071 0.59427,0.36493 1.04493,0.36493 0.45065,0 0.81939,0.15112 0.81939,0.33568 0,0.18462 0.30209,0.33568 0.67138,0.33568 0.36923,0 0.63358,0.1888 0.58742,0.41958 -0.0516,0.2558 0.30922,0.43238 0.92316,0.45231 2.0996,0.0683 2.43568,0.15318 3.18892,0.80651 0.42577,0.36926 1.09207,0.67136 1.48073,0.67136 0.3886,0 1.41601,0.37766 2.28303,0.8392 0.86703,0.46156 1.89019,0.83922 2.2737,0.83922 0.38351,0 0.77012,0.18881 0.85918,0.41959 0.0889,0.2308 0.61506,0.43581 1.16883,0.4556 0.55385,0.0198 1.29754,0.29893 1.6527,0.62032 0.35517,0.32139 0.79586,0.49156 0.97935,0.37815 0.18348,-0.11337 0.43488,-0.0426 0.55864,0.15778 0.12376,0.20022 0.43631,0.28295 0.69457,0.18384 0.25827,-0.099 0.46953,-0.0251 0.46953,0.16478 0,0.18972 0.15218,0.25094 0.33806,0.1361 0.18596,-0.11492 0.41906,0.002 0.51794,0.25993 0.17607,0.45865 0.58021,0.58266 2.0565,0.63094 0.48514,0.0153 0.66955,0.1827 0.54911,0.49663 -0.14687,0.38243 -0.012,0.40787 0.7116,0.13318 0.69605,-0.26462 1.09328,-0.21226 1.80064,0.23746 0.49921,0.31733 1.0356,0.78213 1.19194,1.03285 0.18214,0.29221 0.58544,0.38029 1.12303,0.24537 0.48938,-0.12294 1.0621,-0.0297 1.37472,0.22353 0.3464,0.28062 0.45171,0.29386 0.29791,0.0374 -0.30052,-0.50107 1.01298,-1.44959 2.00738,-1.44959 0.44966,0 0.82667,0.26723 0.95729,0.67862 0.2249,0.70859 -0.46882,2.6782 -0.94329,2.6782 -0.15041,0 -0.19077,0.13385 -0.0896,0.29762 0.29113,0.47098 -0.66403,1.07691 -1.94863,1.23624 -0.8652,0.10727 -1.29422,-0.0138 -1.61681,-0.45803 z m 0.98047,-1.27867 c -0.11146,-0.11146 -0.40104,-0.12345 -0.6434,-0.0265 -0.26774,0.10727 -0.18822,0.1867 0.20285,0.20281 0.35383,0.0153 0.55208,-0.0648 0.44055,-0.17631 z m -1.9232,-0.46854 c 0,-0.18463 -0.15994,-0.33568 -0.35544,-0.33568 -0.19557,0 -0.26216,0.15112 -0.14808,0.33568 0.11422,0.18461 0.2741,0.33569 0.35552,0.33569 0.0815,0 0.148,-0.15112 0.148,-0.33569 z m -27.35805,-11.07754 c -0.33418,-0.36925 -0.7584,-0.67134 -0.94259,-0.67134 -0.18433,0 0.0134,0.30209 0.43906,0.67134 0.4257,0.36928 0.84992,0.67137 0.94258,0.67137 0.0925,0 -0.10502,-0.30209 -0.43905,-0.67137 z m -39.01675,-15.66156 c -0.22724,-0.092 -0.68044,-0.0977 -1.00705,-0.012 -0.32661,0.0852 -0.14065,0.16033 0.41326,0.16716 0.55385,0.007 0.82109,-0.0627 0.59379,-0.1547 z m -5.55211,-1.66103 c -0.11146,-0.11146 -0.40111,-0.12346 -0.64339,-0.0265 -0.26782,0.10727 -0.18822,0.18669 0.20277,0.20281 0.35389,0.0153 0.55216,-0.0648 0.44062,-0.17631 z m -15.51829,-1.47561 c 0.11422,-0.18462 0.0473,-0.33569 -0.14808,-0.33569 -0.1955,0 -0.35552,0.15113 -0.35552,0.33569 0,0.18463 0.0664,0.3357 0.14808,0.3357 0.0814,0 0.24137,-0.15113 0.35545,-0.3357 z m 8.32508,-1.22838 c -0.095,-0.24751 -0.32379,-0.45002 -0.50841,-0.45002 -0.18461,0 -0.24398,0.23893 -0.13202,0.53096 0.11202,0.29205 0.2061,0.70745 0.20893,0.92313 0,0.2406 0.12086,0.20932 0.30463,-0.0809 0.16475,-0.26018 0.22179,-0.67559 0.12673,-0.92313 z m -2.45068,-2.27647 c 0,-0.0815 -0.15111,-0.24139 -0.33566,-0.35549 -0.18461,-0.11425 -0.33572,-0.0473 -0.33572,0.14805 0,0.19551 0.15111,0.35548 0.33572,0.35548 0.18462,0 0.33566,-0.0667 0.33566,-0.14804 z m -35.91801,-9.58676 c 0,-0.18464 -0.16002,-0.33569 -0.35552,-0.33569 -0.1955,0 -0.26208,0.15112 -0.148,0.33569 0.11422,0.18462 0.2741,0.33568 0.35545,0.33568 0.0815,0 0.14807,-0.15112 0.14807,-0.33568 z m 160.92029,7.96056 c -1.90334,-1.09175 -3.20031,-2.63815 -3.65697,-4.36027 -0.66594,-2.51126 -0.39899,-7.60257 0.52318,-9.97826 0.39417,-1.01542 0.71711,-2.07284 0.71774,-2.34977 0,-1.05841 3.02022,-6.66151 4.13392,-7.67496 0.63633,-0.57903 1.25654,-1.05278 1.37826,-1.05278 0.12177,0 0.49687,-0.31768 0.83359,-0.70591 1.11257,-1.2828 4.33393,-1.93383 4.33393,-0.87587 0,0.19471 0.24258,0.62212 0.53915,0.9498 0.47511,0.52501 0.48656,0.8073 0.0963,2.37621 -0.36952,1.48556 -1.23732,3.22325 -1.97875,3.96237 -0.0926,0.0923 -0.39474,0.60821 -0.67139,1.14643 -0.46019,0.8953 -1.79123,2.35979 -3.18468,3.50393 -0.30435,0.24988 -0.93255,0.38184 -1.396,0.29327 -0.52748,-0.10094 -0.90894,0.012 -1.01997,0.30095 -0.0976,0.25408 -0.38479,0.46201 -0.63845,0.46201 -0.25367,0 -0.54149,0.33989 -0.63951,0.7553 -0.37546,1.59083 -0.74702,5.13919 -0.58304,5.5683 0.16157,0.42255 0.27077,1.15164 0.37001,2.46934 0.0889,1.18001 1.48059,2.29705 2.8961,2.32451 1.60711,0.0312 1.90545,-0.0427 3.87204,-0.9596 2.27992,-1.06292 3.16165,-1.21654 3.64432,-0.63495 0.337,0.40614 0.30632,0.67173 -0.15981,1.38331 -0.60459,0.92266 -2.66915,2.43369 -4.26721,3.12308 -1.20142,0.51831 -4.22015,0.50278 -5.14273,-0.0265 z m 2.22132,-15.40152 c 0,-0.15386 -0.31099,-0.27974 -0.69111,-0.27974 -0.38018,0 -0.61343,0.12585 -0.51836,0.27974 0.0952,0.15384 0.40613,0.27973 0.69125,0.27973 0.28505,0 0.51822,-0.12584 0.51822,-0.27973 z m -0.15316,-2.78676 c 0.48847,-0.64037 1.04253,-1.13131 1.23131,-1.09098 0.18878,0.0403 0.38966,-0.20426 0.44641,-0.54355 0.0565,-0.33929 0.31983,-0.86798 0.58467,-1.17489 0.60812,-0.70463 0.93819,-2.01273 0.56593,-2.24279 -0.15557,-0.0963 -0.77296,0.43489 -1.37182,1.18015 -0.783,0.9743 -1.16622,1.23554 -1.36398,0.92982 -0.41008,-0.63402 -0.88513,0.24726 -0.68835,1.27686 0.0862,0.4507 0.012,1.00739 -0.16645,1.23712 -0.51738,0.6688 -0.769,1.59254 -0.43383,1.59254 0.16934,0 0.70764,-0.52391 1.19611,-1.16428 z m -55.48406,15.58717 c -1.92574,-0.42192 -2.07353,-0.72155 -1.52576,-3.09272 0.26568,-1.14991 0.63576,-2.27477 0.82243,-2.49972 0.18666,-0.22493 0.24843,-0.55622 0.13725,-0.73615 -0.1111,-0.17996 -0.0693,-0.40929 0.093,-0.50959 0.16235,-0.10037 0.47991,-0.84259 0.70587,-1.6495 0.36888,-1.31768 0.50183,-1.45458 1.30483,-1.34421 0.85091,0.11697 0.85762,0.10693 0.13888,-0.20911 -0.84872,-0.37312 -0.93213,-0.88566 -0.3681,-2.26202 0.50359,-1.22875 0.63103,-1.72533 0.77692,-3.02803 0.16764,-1.49722 0.4093,-1.77728 1.53338,-1.77728 1.47474,0 2.19695,1.25946 1.62663,2.8367 -0.23692,0.65531 -0.56042,1.19148 -0.71888,1.19148 -0.15847,0 -0.19472,0.15112 -0.0806,0.33569 0.38033,0.6154 0.66044,0.35166 2.31752,-2.1823 0.90534,-1.38448 1.77392,-2.51726 1.93012,-2.51726 0.15627,0 0.28406,-0.15829 0.28406,-0.35177 0,-0.19349 0.41546,-0.71741 0.92315,-1.16428 1.23258,-1.0849 2.70435,-1.07983 3.64305,0.012 0.6453,0.75104 0.71633,1.17605 0.63103,3.77643 -0.053,1.61157 -0.26089,3.60991 -0.46232,4.44073 -0.38196,1.57583 -0.63209,3.0979 -0.67909,4.13192 -0.017,0.36107 -0.18094,0.51251 -0.40571,0.37355 -0.2719,-0.16802 -0.283,-0.0635 -0.0396,0.37157 0.20737,0.37056 0.22674,0.99569 0.0502,1.61207 -0.15882,0.55375 -0.20335,1.34709 -0.099,1.76297 0.14087,0.56145 -0.012,0.86742 -0.59498,1.18823 -1.75165,0.96438 -3.48147,-0.348 -2.8944,-2.19594 0.18073,-0.56884 0.37686,-1.33636 0.43581,-1.70562 0.0594,-0.36925 0.13253,-0.67136 0.16327,-0.67136 0.0311,0 0.10001,-0.30212 0.15402,-0.67135 0.0537,-0.36927 0.28278,-1.65325 0.50853,-2.85332 0.6311,-3.35506 0.68432,-5.63318 0.13656,-5.84337 -0.26449,-0.10139 -0.46345,0.0338 -0.46345,0.31516 0,0.27113 -0.2266,0.49298 -0.50352,0.49298 -0.27693,0 -0.50353,0.1226 -0.50353,0.27237 0,0.14976 -0.33629,0.63338 -0.74729,1.0746 -0.41108,0.44118 -0.79692,1.17186 -0.85742,1.62368 -0.0601,0.45183 -0.52275,1.44107 -1.02719,2.19833 -0.50443,0.75725 -1.21378,1.98105 -1.57629,2.71957 -0.36259,0.73847 -0.94662,1.60706 -1.29796,1.93016 -0.35135,0.32309 -0.5217,0.58743 -0.37849,0.58743 0.14305,0 0.0919,0.20272 -0.11359,0.45051 -0.2056,0.24777 -0.27451,0.54987 -0.15302,0.67136 0.12157,0.1214 0.0516,0.22087 -0.1555,0.22087 -0.20702,0 -0.47461,0.52332 -0.59463,1.16292 -0.27833,1.48386 -0.72305,1.80751 -2.076,1.51106 z m 4.27782,-8.17683 c 0,-0.31846 -1.00478,-0.47894 -1.18396,-0.18911 -0.10905,0.17657 0.11274,0.32103 0.49278,0.32103 0.38019,0 0.69118,-0.0594 0.69118,-0.13199 z m -2.34975,-0.53946 c 0,-0.18461 -0.0664,-0.33566 -0.148,-0.33566 -0.0815,0 -0.24145,0.15111 -0.35552,0.33566 -0.11407,0.18464 -0.0473,0.33569 0.14801,0.33569 0.19549,0 0.35551,-0.15112 0.35551,-0.33569 z m 3.52465,-3.02113 c 0.11422,-0.18465 0.0473,-0.33568 -0.148,-0.33568 -0.19557,0 -0.35552,0.15112 -0.35552,0.33568 0,0.18462 0.0664,0.33568 0.148,0.33568 0.0815,0 0.24144,-0.1511 0.35552,-0.33568 z m 3.69252,-3.38731 c 0.61273,-0.29112 0.60311,-0.30585 -0.11046,-0.1687 -0.60368,0.11594 -0.73579,0.0302 -0.57973,-0.37629 0.16731,-0.43622 0.11507,-0.45429 -0.30547,-0.10536 -0.27919,0.23168 -0.42479,0.55515 -0.32358,0.71886 0.22208,0.35934 0.44281,0.34788 1.31924,-0.0685 z m 2.26586,-1.53456 c -0.23077,-0.093 -0.60841,-0.093 -0.83918,0 -0.23085,0.093 -0.0417,0.16939 0.41962,0.16939 0.46154,0 0.65033,-0.0762 0.41956,-0.16939 z m -23.74951,16.44667 c -2.6353,-0.57389 -4.84361,-3.28386 -4.33317,-5.3175 0.20879,-0.83183 -0.28377,-1.17759 -0.70545,-0.49522 -0.11598,0.18766 -0.37714,0.23837 -0.58042,0.1127 -0.23473,-0.14514 -0.29446,-0.0328 -0.16377,0.30805 0.14072,0.36674 -0.44853,1.18272 -1.86269,2.57955 -2.29164,2.26336 -3.95361,2.98404 -5.38141,2.33351 -2.09685,-0.95537 -1.88672,-3.92158 0.65173,-9.19854 0.62135,-1.29173 1.12975,-2.53797 1.12975,-2.76937 0,-0.23143 0.14122,-0.42078 0.31396,-0.42078 0.17267,0 0.50508,-0.5287 0.73875,-1.17488 0.23366,-0.6462 0.5354,-1.17488 0.67053,-1.17488 0.13507,0 0.35079,-0.33989 0.47935,-0.7553 0.28492,-0.92052 4.37748,-4.91615 5.45605,-5.32678 1.2487,-0.47543 2.26352,-0.34474 2.91533,0.37547 0.33417,0.36925 0.77705,0.67135 0.98428,0.67135 0.56269,0 2.54038,1.9051 2.54038,2.44714 0,0.70651 -1.00846,2.58812 -1.3871,2.58812 -0.18199,0 -0.23692,0.15214 -0.12192,0.33796 0.11493,0.18588 -0.0755,0.75235 -0.42309,1.25882 -0.7398,1.07805 -1.83512,4.38851 -1.58562,4.79227 0.0946,0.15299 0.0156,0.37462 -0.17465,0.49243 -0.19063,0.11781 -0.26619,0.3444 -0.16787,0.50351 0.0983,0.15914 0.0417,0.37412 -0.12616,0.47781 -0.5036,0.31119 -0.0727,2.99699 0.58621,3.65613 0.79352,0.79349 2.78895,1.23495 4.58676,1.01477 1.51311,-0.1853 2.00894,0.15144 1.69229,1.14918 -0.23424,0.738 -1.07533,1.26828 -2.51217,1.58388 -0.8941,0.19636 -1.06931,0.15386 -0.86286,-0.20909 0.20893,-0.36731 0.17161,-0.37427 -0.19296,-0.0359 -0.45496,0.42229 -0.92689,0.46494 -2.16406,0.19551 z m -9.2218,-4.97311 c 0.17939,0.11099 0.32619,-0.0338 0.32619,-0.32175 0,-0.29097 0.28413,-0.52333 0.63993,-0.52333 0.45575,0 0.5935,-0.17753 0.47871,-0.61651 -0.1058,-0.40509 0.13507,-0.81063 0.70285,-1.18264 0.47518,-0.31136 0.86398,-0.72763 0.86398,-0.92504 0,-0.58574 1.2311,-1.97299 1.51948,-1.71223 0.14616,0.13218 0.17104,-0.0239 0.0551,-0.34707 -0.11592,-0.32309 -0.0643,-0.58744 0.11443,-0.58744 0.17882,0 0.32512,-0.22658 0.32512,-0.50354 0,-0.27692 0.13472,-0.5035 0.29927,-0.5035 0.16461,0 0.54098,-0.60424 0.83649,-1.34274 0.29544,-0.73848 0.70567,-1.34272 0.91156,-1.34272 0.20588,0 0.28201,-0.24057 0.1692,-0.5346 -0.13556,-0.35348 0.0156,-0.59236 0.44705,-0.70512 0.60559,-0.1583 0.58799,-0.2258 -0.24533,-0.94259 l -0.89749,-0.77201 -1.26389,0.64476 c -0.69514,0.35465 -1.26383,0.77072 -1.26383,0.92462 0,0.15385 -0.3399,0.65563 -0.75529,1.1149 -0.41538,0.45927 -1.12981,1.53872 -1.58753,2.39878 -0.45765,0.86008 -0.91876,1.56376 -1.02464,1.56376 -0.10588,0 -0.46401,0.7553 -0.796,1.67842 -0.35135,0.97704 -0.80935,1.67841 -1.09596,1.67841 -0.33969,0 -0.42634,0.20826 -0.27932,0.67136 0.11726,0.36925 0.0896,0.67167 -0.0615,0.67203 -0.15097,2.8e-4 -0.31353,0.54733 -0.36131,1.21545 l -0.0869,1.21479 0.85169,-0.55803 c 0.46839,-0.30694 0.99849,-0.46733 1.17788,-0.35646 z m -18.13634,2.84741 c -0.46153,-0.36103 -0.99566,-0.65979 -1.18685,-0.66389 -0.19126,-0.004 -0.36711,-0.27181 -0.39079,-0.59491 -0.0679,-0.9231 -0.10998,-1.88526 -0.10637,-2.43369 0,-0.27695 -0.0636,-1.03223 -0.14447,-1.67842 -0.0812,-0.6462 0.0226,-1.77912 0.22978,-2.51762 0.4797,-1.70724 0.40457,-1.43526 0.88159,-3.18898 0.68735,-2.52686 3.9705,-8.72528 4.62238,-8.72683 0.38301,-0.002 0.8724,1.07877 0.91247,2.01318 0.0297,0.68694 -0.86759,3.02115 -1.16105,3.02115 -0.13027,0 -0.15776,0.30211 -0.0615,0.67136 0.12397,0.47411 0.01,0.67137 -0.38691,0.67137 -0.30936,0 -0.48627,0.12346 -0.39297,0.27431 0.0932,0.15078 -0.0432,0.8926 -0.30385,1.64831 -0.64284,1.86577 -0.86463,2.94155 -1.07172,5.1984 -0.23968,2.61165 0.0396,3.62054 0.95418,3.44446 0.88604,-0.17058 1.96984,0.38041 1.96984,1.00155 0,0.73552 -1.98977,2.53239 -2.79517,2.52415 -0.40118,-0.004 -1.10706,-0.30286 -1.56866,-0.6639 z m 199.53537,-2.0591 c -0.0989,-0.15984 -0.4556,-0.29066 -0.79296,-0.29066 -0.36753,0 -0.83041,-0.4575 -1.15512,-1.14171 -0.67866,-1.43031 -0.68248,-1.37678 0.16652,-2.35331 0.8659,-0.99587 1.98582,-1.31226 3.11931,-0.88128 1.06062,0.4032 1.36723,1.52973 0.89452,3.28553 -0.27996,1.03953 -0.55716,1.3862 -1.20806,1.51062 -0.4645,0.0888 -0.92547,0.0307 -1.02429,-0.12926 z"
       id="path3346"
       inkscape:connector-curvature="0" />
  </g>
</svg>
