<?xml version="1.0" encoding="UTF-8" standalone="no"?>
<!-- Created with Inkscape (http://www.inkscape.org/) -->

<svg
   xmlns:dc="http://purl.org/dc/elements/1.1/"
   xmlns:cc="http://creativecommons.org/ns#"
   xmlns:rdf="http://www.w3.org/1999/02/22-rdf-syntax-ns#"
   xmlns:svg="http://www.w3.org/2000/svg"
   xmlns="http://www.w3.org/2000/svg"
   xmlns:xlink="http://www.w3.org/1999/xlink"
   xmlns:sodipodi="http://sodipodi.sourceforge.net/DTD/sodipodi-0.dtd"
   xmlns:inkscape="http://www.inkscape.org/namespaces/inkscape"
   width="210mm"
   height="297mm"
   viewBox="0 0 744.09448819 1052.3622047"
   id="svg3358"
   version="1.1"
   inkscape:version="0.91 r13725"
   sodipodi:docname="siggyheder.svg">
  <defs
     id="defs3360" />
  <sodipodi:namedview
     id="base"
     pagecolor="#ffffff"
     bordercolor="#666666"
     borderopacity="1.0"
     inkscape:pageopacity="0.0"
     inkscape:pageshadow="2"
     inkscape:zoom="0.35"
     inkscape:cx="375"
     inkscape:cy="520"
     inkscape:document-units="px"
     inkscape:current-layer="layer1"
     showgrid="false"
     inkscape:window-width="1366"
     inkscape:window-height="705"
     inkscape:window-x="-8"
     inkscape:window-y="-8"
     inkscape:window-maximized="1" />
  <metadata
     id="metadata3363">
    <rdf:RDF>
      <cc:Work
         rdf:about="">
        <dc:format>image/svg+xml</dc:format>
        <dc:type
           rdf:resource="http://purl.org/dc/dcmitype/StillImage" />
        <dc:title></dc:title>
      </cc:Work>
    </rdf:RDF>
  </metadata>
  <g
     inkscape:label="Layer 1"
     inkscape:groupmode="layer"
     id="layer1">
    <image
       y="358.90558"
       x="122.3253"
       id="image3344"
       preserveAspectRatio="none"
       height="266.9133"
       width="498.20645"
       xlink:href="C:\Users\qianz_000\Desktop\blog\signatureheadertransparent.png"
       sodipodi:absref="C:\Users\qianz_000\Desktop\blog\signatureheadertransparent.png" />
    <path
       style="fill:#000000"
       d="m 523.96537,599.89687 c -1.1216,-0.97415 -1.2898,-1.40354 -1.0238,-2.61427 0.5976,-2.72107 2.4072,-5.41929 6.0021,-8.94926 1.2162,-1.19433 2.5522,-2.9222 2.9688,-3.83962 0.4166,-0.91742 1.5011,-2.52034 2.4101,-3.56202 0.9089,-1.04166 1.6567,-2.12111 1.6617,-2.39876 0.01,-0.27763 0.6503,-1.11907 1.434,-1.86982 0.7836,-0.75082 1.4248,-1.5457 1.4248,-1.76648 0,-0.22081 1.0151,-1.91105 2.2559,-3.75614 3.078,-4.57724 4.2209,-6.46756 5.3754,-8.89101 1.0376,-2.17813 3.7583,-6.79312 4.2422,-7.19593 0.1567,-0.13065 0.8087,-1.46272 1.4486,-2.96023 0.6668,-1.56067 1.4674,-2.72936 1.8758,-2.73815 0.6332,-0.0144 0.6332,-0.0683 0,-0.49172 -0.6247,-0.4177 -0.6147,-0.53413 0.081,-0.94545 0.4367,-0.25798 0.9408,-1.16237 1.1202,-2.00975 0.1795,-0.84742 0.7166,-2.28873 1.1938,-3.20299 0.4771,-0.91428 1.2302,-2.51717 1.6736,-3.56202 0.4433,-1.04485 1.1899,-2.75462 1.659,-3.79948 0.4692,-1.04487 1.1206,-2.86148 1.4476,-4.03694 0.327,-1.17547 0.6268,-2.24406 0.6663,-2.37469 0.039,-0.13063 0.23,-0.87862 0.4237,-1.66224 0.1935,-0.78366 0.6347,-2.17283 0.9804,-3.0871 0.3457,-0.91427 1.0012,-3.05146 1.4566,-4.74934 0.4555,-1.69788 1.5358,-5.11741 2.4009,-7.59897 1.5658,-4.49172 2.8578,-9.28788 5.1814,-19.23484 0.6712,-2.87334 1.3532,-5.75857 1.5155,-6.41161 1.5976,-6.42702 1.9864,-11.52375 1.0708,-14.03731 -0.5005,-1.37386 -3.5457,-3.58128 -5.6029,-4.06147 -3.0479,-0.71143 -7.9496,-0.59048 -9.6084,0.237 -0.8424,0.4202 -1.7861,0.76406 -2.0971,0.76406 -0.608,0 -4.5129,3.75462 -4.5129,4.33925 0,0.19375 -0.8549,1.34005 -1.8997,2.5473 -1.0449,1.20723 -1.8998,2.34806 -1.8998,2.53519 0,0.18697 -0.5877,0.98735 -1.306,1.77832 -0.7184,0.79097 -1.9473,2.25628 -2.7309,3.25624 -2.8653,3.65613 -7.1088,8.65712 -10.0483,11.84165 -1.6568,1.79498 -3.0124,3.54177 -3.0124,3.88177 0,0.33998 -0.5533,1.27572 -1.2296,2.07938 -0.9305,1.10582 -1.6236,1.46127 -2.8496,1.46127 -1.1234,0 -1.62,-0.2184 -1.62,-0.71242 0,-0.3918 -0.2138,-0.7124 -0.475,-0.7124 -0.2612,0 -0.4749,-0.59059 -0.4749,-1.31244 0,-0.97805 0.8773,-2.23946 3.4433,-4.95084 4.8037,-5.07589 9.8549,-10.72001 9.8549,-11.01173 0,-0.13465 0.747,-1.05805 1.66,-2.05216 0.913,-0.99406 1.661,-1.96957 1.6622,-2.16772 0,-0.39717 2.1386,-2.93864 3.4456,-4.09943 0.4571,-0.40601 0.8311,-0.93991 0.8311,-1.18645 0,-0.46665 0.3017,-0.82581 3.0767,-3.663 0.9199,-0.94064 1.6727,-1.90981 1.6727,-2.1537 0,-0.24392 0.5299,-1.07721 1.1775,-1.85177 1.7801,-2.12899 5.4716,-7.71099 5.4716,-8.27388 0,-0.27278 0.2138,-0.49593 0.4749,-0.49593 0.2612,0 0.4797,-0.37403 0.4855,-0.83113 0.01,-0.45714 0.4285,-1.36543 0.9393,-2.01849 0.5108,-0.65304 0.9335,-1.45447 0.9393,-1.781 0.01,-0.32651 0.2242,-0.59365 0.4855,-0.59365 0.2612,0 0.4749,-0.29176 0.4749,-0.64837 0,-0.35659 0.3926,-1.15805 0.8724,-1.78101 0.4799,-0.62295 1.257,-2.30811 1.7272,-3.74478 0.47,-1.43667 1.3598,-3.8551 1.9771,-5.3743 0.6174,-1.51923 1.1226,-3.18241 1.1226,-3.69603 0,-0.51359 0.3084,-1.6719 0.6853,-2.57398 0.8415,-2.01399 1.2672,-5.89573 1.4315,-13.05231 0.1243,-5.40912 -0.2135,-8.15193 -1.2864,-10.44856 -1.4144,-3.02759 -6.1824,-8.82429 -7.9545,-9.67063 -0.3918,-0.18723 -1.2467,-0.64929 -1.8997,-1.02701 -1.624,-0.93932 -5.0827,-0.86954 -10.4486,0.21089 -6.5478,1.31835 -6.8731,1.45994 -13.3371,5.80481 -2.6573,1.78613 -5.7391,4.91983 -5.285,5.37396 0.142,0.14201 -0.077,0.25795 -0.4874,0.25795 -0.7718,0 -3.7851,4.17625 -4.3691,6.05543 -0.1827,0.58773 -0.5314,1.0686 -0.775,1.0686 -0.2437,0 -0.443,0.33318 -0.443,0.74043 0,0.40723 -0.2056,0.61339 -0.4567,0.45811 -0.2925,-0.1807 -0.2925,-0.71461 0,-1.48375 0.2511,-0.66079 0.4567,-1.62842 0.4567,-2.15032 0,-2.10863 3.0728,-7.32354 6.0508,-10.26896 1.6507,-1.63261 3.2003,-2.96836 3.4435,-2.96836 0.2433,0 1.6602,-0.99192 3.1486,-2.20426 2.4094,-1.96241 3.4678,-2.4509 7.0669,-3.26129 0.5224,-0.11768 1.3773,-0.41885 1.8998,-0.66932 1.4887,-0.71385 6.4067,-1.99746 6.784,-1.77072 0.187,0.11239 1.1948,0.0573 2.2397,-0.12247 1.1239,-0.1935 2.7241,-0.0849 3.9182,0.2659 1.1102,0.32605 2.0185,0.48164 2.0185,0.34571 0,-0.13592 0.6207,0.19497 1.3794,0.73513 0.7586,0.54024 1.5601,0.98403 1.781,0.98621 0.7185,0.009 6.5343,5.89433 8.1323,8.23218 0.8561,1.25245 1.626,2.87302 1.7108,3.60126 0.085,0.72823 0.3229,1.59708 0.5291,1.93071 0.2063,0.33365 0.4171,1.37956 0.4687,2.32429 0.052,0.94467 0.2666,4.52149 0.4778,7.94846 0.3177,5.1566 0.254,6.63047 -0.3694,8.54882 -0.4143,1.27488 -1.0159,3.6003 -1.337,5.16756 -0.3211,1.56732 -0.7338,3.06334 -0.9171,3.32456 -0.1834,0.26123 -0.4872,1.32981 -0.6752,2.37469 -0.188,1.04486 -0.5086,2.11344 -0.7124,2.37464 -0.2039,0.26124 -0.6125,1.22297 -0.9081,2.13722 -1.0794,3.3383 -5.341,11.08601 -6.8377,12.43106 -0.4867,0.43735 -0.8571,0.8648 -0.823,0.94988 0.099,0.24675 -0.5006,1.97459 -1.0169,2.93182 -0.6184,1.14661 -0.322,1.38394 1.0703,0.85725 1.3069,-0.49437 7.3296,-0.4471 7.8383,0.0614 0.1874,0.18772 0.6397,0.34107 1.0047,0.34107 0.365,0 1.7776,0.5095 3.1389,1.13217 2.9631,1.35539 5.979,4.8983 6.0765,7.1384 0.2081,4.78289 -0.8222,10.08059 -4.1187,21.17538 -0.4268,1.43666 -0.9826,3.45859 -1.2351,4.49318 -0.2524,1.03459 -0.6429,2.10318 -0.8678,2.37467 -0.2249,0.2715 -0.8712,2.40739 -1.4364,4.7464 -1.013,4.19275 -2.9332,10.51676 -3.7559,12.36996 -0.2319,0.52243 -0.8902,2.65963 -1.4629,4.74936 -0.5727,2.0897 -1.3168,4.4406 -1.6534,5.22426 -0.3367,0.78365 -0.8733,2.38654 -1.1925,3.56201 -0.3193,1.17544 -0.9873,2.80359 -1.4845,3.61807 -0.4973,0.81447 -0.9041,1.71744 -0.9041,2.00657 0,0.28915 -0.6128,1.86684 -1.3619,3.50595 -0.749,1.63916 -1.8378,4.04886 -2.4195,5.35492 -1.7052,3.82883 -3.3844,7.24499 -3.7321,7.59268 -0.1775,0.17757 -0.3334,0.46539 -0.3463,0.63953 -0.093,1.25969 -0.9504,2.57669 -1.917,2.9442 -0.6306,0.23989 -1.1467,0.68118 -1.1467,0.98082 0,0.36796 0.2535,0.33446 0.781,-0.10313 0.699,-0.58018 0.7429,-0.52406 0.4187,0.5355 -0.1993,0.65099 -0.6245,1.50419 -0.9452,1.896 -0.3207,0.39181 -1.0569,1.67415 -1.6361,2.84961 -0.5791,1.17547 -1.4367,2.77837 -1.9056,3.56202 -0.4689,0.78363 -1.3314,2.27967 -1.9166,3.32453 -3.3958,6.06256 -6.1271,10.2111 -6.723,10.2111 -0.2626,0 -0.3516,0.20366 -0.1978,0.45278 0.2611,0.42245 -0.4273,1.47507 -2.1235,3.24702 -0.3918,0.40936 -0.7177,0.86635 -0.7241,1.01562 -0.01,0.14936 -0.7676,1.44686 -1.6914,2.88352 -0.9239,1.43669 -2.094,3.36018 -2.6005,4.27443 -0.5064,0.91424 -1.081,1.73351 -1.2769,1.82058 -0.1959,0.0869 -0.3562,0.32831 -0.3562,0.53614 0,0.50032 -3.1979,5.79759 -3.9348,6.51808 -0.4473,0.43728 -0.8789,0.30201 -1.9191,-0.60146 z m -144.4501,-27.23034 c -0.345,-1.08695 0.1567,-3.36493 0.7414,-3.36493 0.2276,0 0.8482,-0.85145 1.3791,-1.89214 0.6073,-1.19046 1.4035,-2.00212 2.1468,-2.18869 0.6499,-0.16308 1.1816,-0.5015 1.1816,-0.75202 0,-0.2505 0.4461,-0.31387 0.9913,-0.14089 1.2733,0.40416 3.2442,-1.40646 2.0357,-1.87021 -1.058,-0.40597 -1.0917,-0.37872 -0.8816,0.71203 0.1484,0.77047 0.053,0.87748 -0.4272,0.47904 -0.34,-0.2822 -0.7878,-0.35466 -0.9951,-0.1609 -0.2073,0.19375 -0.1538,-0.0778 0.1183,-0.6031 0.7925,-1.52831 2.3853,-2.74596 3.1887,-2.43764 0.6025,0.23119 0.6502,0.11479 0.2552,-0.62358 -0.6797,-1.27006 -0.6076,-1.59366 0.2794,-1.25331 0.5285,0.20271 0.6862,0.0877 0.5098,-0.37202 -0.1406,-0.36613 0.1562,-1.10765 0.6595,-1.64778 0.5032,-0.54017 0.915,-1.09345 0.915,-1.22949 0,-0.13624 1.3357,-1.91985 2.9683,-3.96394 1.6326,-2.04409 3.6095,-4.53607 4.3932,-5.53768 0.7836,-1.00163 1.6385,-2.06763 1.8997,-2.36889 0.2612,-0.30124 0.7157,-0.96612 1.0101,-1.47752 0.3231,-0.56148 1.0286,-0.92243 1.7809,-0.91112 0.6853,0.01 1.246,-0.15001 1.246,-0.35619 0,-0.20632 -0.3206,-0.37492 -0.7125,-0.37492 -1.0872,0 -0.9103,-0.45557 1.781,-4.58463 1.3714,-2.10399 2.7278,-4.23064 3.0142,-4.72596 3.0966,-5.35469 4.3334,-7.76146 4.1054,-7.98937 -0.1498,-0.14984 -0.052,-0.27264 0.2184,-0.27264 0.5697,0 4.4772,-10.40791 4.6392,-12.35665 0.033,-0.39641 0.2322,-0.99941 0.4426,-1.33999 0.5134,-0.83066 0.6709,-6.24941 0.1904,-6.54642 -0.2092,-0.1292 -0.3805,-0.73399 -0.3805,-1.34368 0,-1.61572 -2.904,-2.39058 -4.1794,-1.11512 -0.4433,0.4433 -0.5716,0.36414 -0.5772,-0.3562 0,-0.56348 -0.1439,-0.71719 -0.3562,-0.39253 -0.5384,0.82335 -7.4819,4.45523 -8.4836,4.43742 -1.1513,-0.0194 -3.0263,-1.58886 -3.0263,-2.53139 0,-1.04927 1.024,-3.15203 1.5349,-3.15203 0.5801,0 1.7896,-1.23813 1.7896,-1.83188 0,-0.26124 0.2696,-0.75736 0.5992,-1.10252 0.3296,-0.3452 0.8656,-1.1619 1.1912,-1.81493 0.9745,-1.95455 2.4989,-4.40875 3.8351,-6.17415 0.6919,-0.91427 1.2854,-1.82259 1.3189,-2.01848 0.033,-0.19593 0.088,-0.59611 0.1204,-0.8893 0.042,-0.37312 0.2731,-0.35568 0.7717,0.0583 0.862,0.71531 0.9485,-0.0129 0.1187,-0.99939 -0.52,-0.61838 -0.8568,-0.57069 -2.7128,0.38414 -1.1655,0.59958 -1.9506,1.09017 -1.7446,1.09017 0.2061,0 -0.3341,0.58773 -1.2003,1.30605 -0.8662,0.71838 -2.1578,1.89382 -2.8701,2.61215 -0.7123,0.71836 -1.4158,1.30609 -1.5632,1.30609 -0.1473,0 -1.3035,1.06858 -2.569,2.37467 -2.3397,2.41462 -3.9887,2.9899 -5.1738,1.80474 -1.5697,-1.56968 0.2743,-4.30726 5.8521,-8.68824 0.9955,-0.78197 2.3992,-2.01087 3.1192,-2.7309 0.7201,-0.72001 1.5393,-1.30911 1.8206,-1.30911 0.2814,0 0.5115,-0.21379 0.5115,-0.47493 0,-0.26122 0.2719,-0.47494 0.6042,-0.47494 0.3323,0 1.3556,-0.61934 2.2739,-1.37633 2.0889,-1.72179 4.9738,-2.95344 5.9977,-2.56051 0.5213,0.20003 0.6652,0.11526 0.4353,-0.25686 -0.2181,-0.35298 4e-4,-0.55562 0.5997,-0.55562 2.1916,0 2.7612,4.34805 0.963,7.35018 -0.4731,0.78984 -1.2141,2.13068 -1.6467,2.97961 -0.4326,0.84895 -0.9759,1.54355 -1.2073,1.54355 -0.2314,0 -0.3835,0.16017 -0.338,0.35621 0.1454,0.62561 -1.167,2.96834 -1.663,2.96834 -0.2629,0 -0.3373,0.14057 -0.1653,0.3125 0.4695,0.46953 -0.6598,1.62437 -1.2386,1.26662 -0.2945,-0.18192 -0.3962,-0.0328 -0.246,0.36143 0.3973,1.04321 -0.4639,2.92482 -1.159,2.53218 -0.4681,-0.26447 -0.4737,-0.20367 -0.026,0.27988 0.468,0.50563 0.9415,0.48138 2.6122,-0.13384 3.7483,-1.38022 5.7408,-1.3893 7.8284,-0.0355 1.7439,1.13076 1.9104,1.43841 2.4351,4.49825 0.6964,4.06082 0.7145,5.96697 0.06,6.37113 -0.2764,0.17081 -0.3796,0.8781 -0.229,1.57156 0.7352,3.38814 -5.6005,19.40774 -9.7744,24.71387 -0.4906,0.62382 -0.8921,1.30396 -0.8921,1.51146 0,0.53858 -5.7609,9.19886 -6.2457,9.38915 -0.2218,0.0869 -0.4034,0.38407 -0.4034,0.66002 0,0.27595 -0.3325,0.74487 -0.7389,1.04205 -0.4064,0.29716 -0.7955,0.92553 -0.8646,1.3964 -0.069,0.47085 -0.4311,1.04946 -0.8046,1.28579 -0.3734,0.23627 -0.5034,0.43295 -0.2888,0.43696 0.2145,0.003 0.1074,0.30176 -0.2375,0.66176 -0.3452,0.36 -1.5893,1.87829 -2.7648,3.37402 -1.1755,1.49577 -2.7085,3.33846 -3.4068,4.09486 -0.6982,0.75641 -1.1391,1.37534 -0.9797,1.37534 0.1594,0 -0.2432,0.5877 -0.8946,1.30605 -0.6515,0.71832 -1.7358,2.05408 -2.4097,2.96833 -1.9306,2.61913 -3.0628,3.7995 -3.6446,3.7995 -0.2959,0 -0.5127,0.16016 -0.4818,0.3562 0.1701,1.07767 -0.1316,1.61625 -0.7686,1.37177 -0.6821,-0.26173 -0.9142,0.1969 -0.7478,1.47781 0.043,0.32654 -0.1459,0.59367 -0.4187,0.59367 -0.2727,0 -0.4958,0.33029 -0.4958,0.73397 0,2.29608 -4.8015,4.19592 -5.4489,2.15605 z m 12.5729,-13.81349 c 0,-0.26123 -0.3206,-0.47494 -0.7124,-0.47494 -0.3918,0 -0.7124,0.21381 -0.7124,0.47494 0,0.26122 0.3206,0.47494 0.7124,0.47494 0.3918,0 0.7124,-0.21381 0.7124,-0.47494 z m 3.0838,-5.21884 c 0.1664,-0.26923 -0.024,-0.34885 -0.447,-0.18674 -0.8227,0.31573 -0.9733,0.65613 -0.2901,0.65613 0.2458,0 0.5775,-0.21116 0.7371,-0.46948 z m 2.378,-1.90516 c 0.1616,-0.26124 -0.04,-0.47495 -0.4469,-0.47495 -0.4073,0 -0.7404,0.2138 -0.7404,0.47495 0,0.26119 0.201,0.47493 0.4469,0.47493 0.2457,0 0.5789,-0.21382 0.7404,-0.47493 z m 1.6623,0 c 0,-0.26124 -0.094,-0.47495 -0.2095,-0.47495 -0.1153,0 -0.3415,0.2138 -0.503,0.47495 -0.1613,0.26119 -0.067,0.47493 0.2095,0.47493 0.2766,0 0.503,-0.21382 0.503,-0.47493 z m 0,-2.37469 c 0,-0.26123 -0.2264,-0.47494 -0.503,-0.47494 -0.2766,0 -0.3709,0.21381 -0.2095,0.47494 0.1617,0.26121 0.3878,0.47494 0.503,0.47494 0.1153,0 0.2095,-0.21381 0.2095,-0.47494 z m 7.5989,-11.44926 c 0,-0.68276 -0.824,-0.4871 -1.1123,0.26411 -0.1766,0.45998 -0.036,0.60063 0.4241,0.42411 0.3785,-0.14521 0.6882,-0.45494 0.6882,-0.68822 z m 1.2962,-1.66093 c -0.1577,-0.15768 -0.5675,-0.17466 -0.9103,-0.0375 -0.3789,0.15177 -0.2663,0.26416 0.2869,0.28696 0.5007,0.0217 0.7812,-0.0916 0.6234,-0.24946 z m 0.3661,-1.13786 c 0.1616,-0.26121 0.067,-0.47492 -0.2095,-0.47492 -0.2766,0 -0.5029,0.21381 -0.5029,0.47492 0,0.26122 0.094,0.47495 0.2094,0.47495 0.1153,0 0.3416,-0.21381 0.503,-0.47495 z m -28.8246,28.1185 c -0.7017,-0.96526 -4.3232,-2.94695 -5.3853,-2.94695 -0.9755,0 -0.8741,-0.83418 0.1333,-1.09743 0.6487,-0.16936 0.6053,-0.22926 -0.1978,-0.2723 -0.566,-0.0303 -1.1187,-0.21549 -1.2283,-0.41127 -0.1095,-0.19592 -0.1329,-0.0859 -0.052,0.24453 0.1602,0.65268 -2.1346,0.45475 -2.6393,-0.22757 -0.1518,-0.20511 -0.8103,-0.44691 -1.4633,-0.53715 -0.653,-0.0901 -1.2586,-0.35738 -1.3457,-0.59367 -0.087,-0.23627 -0.5435,-0.42962 -1.0143,-0.42962 -1.2278,0 -3.3891,-1.20996 -2.9758,-1.66598 0.192,-0.21187 -0.061,-0.23701 -0.5629,-0.0559 -0.5486,0.1981 -1.066,0.0863 -1.2988,-0.28055 -0.6317,-0.99545 -0.4572,-1.44498 0.4297,-1.10732 0.6416,0.24424 0.703,0.18723 0.2694,-0.24976 -0.6504,-0.65546 -2.2562,-0.20728 -1.815,0.50651 0.4694,0.75955 -0.5308,0.55448 -1.1942,-0.24483 -0.3301,-0.3977 -0.944,-0.61633 -1.3642,-0.48578 -0.4203,0.13048 -1.0847,0.0243 -1.4765,-0.23579 -0.6163,-0.40929 -0.5881,-0.56799 0.2094,-1.17647 1.1034,-0.84179 0.752,-0.90471 -0.8855,-0.15866 -0.9664,0.44036 -1.631,0.37511 -3.4656,-0.34027 -1.2485,-0.48683 -2.3768,-0.90279 -2.5074,-0.92437 -0.1307,-0.0217 -0.7296,-0.20704 -1.3311,-0.41205 -0.9363,-0.31917 -1.0058,-0.48663 -0.4831,-1.16397 0.3975,-0.51518 0.2271,-0.4633 -0.4889,0.14889 -1.0283,0.87925 -1.129,0.88695 -1.559,0.11863 -0.2527,-0.45172 -0.8793,-0.82125 -1.3923,-0.82125 -0.513,0 -1.3038,-0.18868 -1.7574,-0.41954 -1.7742,-0.90258 -4.9623,-2.08944 -5.8269,-2.16925 -0.1391,-0.0129 -1.1008,-0.37927 -2.1372,-0.81422 -2.8462,-1.19461 -3.7489,-1.50459 -4.1403,-1.42175 -0.1959,0.0417 -0.3562,-0.13816 -0.3562,-0.39954 0,-0.2612 -0.44,-0.47493 -0.9778,-0.47493 -0.5379,0 -0.8459,-0.2138 -0.6844,-0.47495 0.1751,-0.28318 -0.4002,-0.47493 -1.4248,-0.47493 -1.191,0 -1.613,-0.17056 -1.375,-0.55565 0.231,-0.37362 0.085,-0.45626 -0.4469,-0.25235 -0.4346,0.16668 -0.7903,0.11623 -0.7903,-0.1124 0,-0.22854 -0.4608,-0.29504 -1.0241,-0.14793 -0.6965,0.18217 -0.9165,0.0937 -0.6877,-0.27651 0.2181,-0.35286 0.077,-0.44484 -0.4007,-0.26144 -0.4054,0.15561 -0.7371,0.0465 -0.7371,-0.24291 0,-0.28918 -0.4503,-0.52575 -1.0007,-0.52575 -0.6943,0 -0.917,-0.21816 -0.7273,-0.71242 0.1505,-0.39184 0.066,-0.7124 -0.1867,-0.7124 -0.2531,0 -0.46,0.20921 -0.46,0.46475 0,0.28429 -0.4553,0.25734 -1.1725,-0.0693 -0.6449,-0.2938 -1.0372,-0.75296 -0.8719,-1.02038 0.1823,-0.29496 -0.01,-0.36691 -0.4899,-0.18289 -0.4347,0.1667 -0.7903,0.0836 -0.7903,-0.1848 0,-0.26841 -0.2063,-0.36051 -0.4586,-0.20464 -0.2523,0.15576 -1.2897,-0.14057 -2.3054,-0.65866 -1.3303,-0.67864 -1.9912,-0.79766 -2.3633,-0.42563 -0.372,0.37204 -0.9891,0.29222 -2.2065,-0.28547 -0.9295,-0.44106 -1.6899,-0.96773 -1.6899,-1.1704 0,-0.45611 -3.5353,-2.19664 -5.4618,-2.68899 -0.7837,-0.20027 -2.066,-0.31185 -2.8496,-0.248 -0.7836,0.064 -1.2734,-0.038 -1.0883,-0.22612 0.1851,-0.18819 -0.7053,-0.87908 -1.9786,-1.53515 -1.6883,-0.86994 -2.2371,-1.39613 -2.0271,-1.94346 0.2542,-0.6625 0.1998,-0.66881 -0.465,-0.0536 -0.4141,0.38324 -0.6388,0.88484 -0.4992,1.11464 0.1395,0.22974 -0.043,0.30996 -0.406,0.17805 -0.3629,-0.13192 -0.5973,-0.50746 -0.5209,-0.83472 0.09,-0.38573 -0.2022,-0.50574 -0.8311,-0.34127 -0.5336,0.13944 -0.9701,0.0722 -0.9701,-0.14954 0,-0.22177 -0.4809,-0.31013 -1.0686,-0.1964 -1.4913,0.28859 -4.1555,-0.65915 -3.8789,-1.37988 0.1462,-0.38095 -1.0292,-0.99608 -3.3488,-1.75267 -1.9658,-0.64115 -3.5748,-1.32599 -3.5756,-1.52192 -7e-4,-0.19593 -0.4415,-0.3562 -0.9794,-0.3562 -0.5378,0 -0.8754,-0.16571 -0.7502,-0.36833 0.1252,-0.20271 -0.6422,-0.35677 -1.7054,-0.34261 -1.0632,0.0144 -2.2201,-0.26121 -2.5709,-0.61196 -0.3507,-0.35074 -1.0132,-0.5819 -1.4723,-0.51361 -1.3618,0.20245 -5.8751,-1.07518 -6.1282,-1.73479 -0.3442,-0.89685 -3.9676,-1.99694 -3.9676,-1.20456 0,0.24333 -0.3741,0.45291 -0.8312,0.46572 -1.7593,0.0494 -2.4934,0.20656 -2.4934,0.53443 0,0.18722 -0.4274,0.45214 -0.9499,0.5888 -0.5224,0.13672 -0.9498,0.59431 -0.9498,1.01713 0,0.47421 -0.5459,0.87793 -1.4248,1.0537 -0.7837,0.15673 -1.4248,0.47196 -1.4248,0.70053 0,0.22854 -0.3273,0.41555 -0.7274,0.41555 -0.4,0 -0.848,0.3148 -0.9957,0.6995 -0.1476,0.38473 -1.0492,0.84296 -2.0035,1.01837 -0.9544,0.17537 -1.842,0.45741 -1.9727,0.6267 -0.2894,0.37521 -13.3559,5.73108 -13.9793,5.73004 -0.244,-3.5e-4 -1.3127,0.40513 -2.3747,0.90116 -1.062,0.496 -2.9995,1.23107 -4.3056,1.63346 -3.4697,1.06896 -12.9744,2.79833 -13.5215,2.4602 -0.2582,-0.15946 -0.9023,-0.0584 -1.4313,0.22468 -1.4539,0.77811 -18.8199,0.92805 -23.3564,0.20173 -5.1389,-0.82283 -12.006,-2.44099 -14.951,-3.52308 -4.3547,-1.59994 -9.9472,-4.53987 -11.4836,-6.03672 -0.3452,-0.33629 -0.8386,-0.61143 -1.0966,-0.61143 -0.258,0 -0.337,-0.2138 -0.1756,-0.47493 0.1616,-0.26124 0.075,-0.47495 -0.1916,-0.47495 -0.6035,0 -5.8075,-5.1031 -6.8923,-6.75863 -0.6269,-0.95677 -0.6663,-1.27385 -0.1824,-1.46782 0.4106,-0.16452 0.3502,-0.25995 -0.1802,-0.28488 -0.9235,-0.0432 -3.093,-3.12094 -4.379,-6.21163 -0.4891,-1.17547 -1.1946,-2.83979 -1.5678,-3.69843 -1.1314,-2.60298 -1.2952,-3.52474 -1.2508,-7.03448 0.03,-2.36069 0.299,-3.78454 0.8977,-4.74935 1.4175,-2.28433 5.3072,-5.88982 6.354,-5.88982 0.5395,0 0.9809,-0.18239 0.9809,-0.40522 0,-0.76178 8.7014,-2.15368 13.0607,-2.08923 4.9019,0.0726 12.0599,1.09473 17.5725,2.50962 2.0898,0.53636 4.6544,1.18149 5.6992,1.43358 1.0449,0.25214 4.5713,1.29904 7.8365,2.32639 3.2652,1.02739 6.8984,2.13283 8.0739,2.4565 1.1754,0.3237 2.3509,0.73464 2.6121,0.91319 0.2612,0.17855 0.7955,0.32036 1.1873,0.31509 0.7057,-0.01 6.4816,1.7574 8.3114,2.54247 1.57,0.67361 7.0014,2.34592 7.6192,2.34592 0.3167,0 0.8233,0.29822 1.1259,0.6627 0.3025,0.36451 1.3438,0.80552 2.3141,0.98007 1.4917,0.26833 4.3511,1.25274 8.8881,3.06 0.5224,0.20799 2.5015,0.87214 4.3979,1.47568 1.8965,0.60349 3.6841,1.38165 3.9726,1.72926 0.2968,0.35757 0.9801,0.51758 1.574,0.36851 0.6425,-0.16138 1.2885,0.0246 1.666,0.47951 0.3391,0.40864 1.0053,0.74298 1.4803,0.74298 0.475,0 0.9922,0.208 1.1492,0.46203 0.1571,0.2541 1.1521,0.69533 2.2111,0.98049 1.8663,0.50257 1.9,0.5468 1.0937,1.43773 -1.0576,1.16866 -1.1944,1.16047 -4.8158,-0.2883 -1.6601,-0.66414 -3.207,-1.09088 -3.4376,-0.94834 -0.2308,0.14248 -0.7772,0.12199 -1.2145,-0.0459 -0.641,-0.24596 -0.6723,-0.39183 -0.1616,-0.75236 0.4303,-0.30383 0.2169,-0.35645 -0.6654,-0.16404 -0.936,0.20414 -1.5662,0.017 -2.2559,-0.67399 -0.9699,-0.96985 -2.6841,-1.35528 -2.1445,-0.48217 0.3407,0.55121 -0.3834,0.64565 -0.9103,0.11863 -0.1959,-0.19593 -0.4986,-0.36842 -0.6728,-0.38336 -1.2601,-0.10823 -5.687,-1.8736 -5.4915,-2.19003 0.224,-0.3622 -1.1619,-0.60467 -2.507,-0.4386 -0.3068,0.038 -0.6934,-0.15049 -0.8591,-0.41867 -0.1658,-0.26813 -0.7288,-0.48751 -1.2512,-0.48751 -0.5971,0 -0.824,-0.20367 -0.611,-0.54834 0.2157,-0.34889 0.1295,-0.41901 -0.2365,-0.19278 -0.3165,0.19568 -1.1398,0.2138 -1.8297,0.0406 -0.9863,-0.24755 -1.1074,-0.40771 -0.5666,-0.74983 0.4681,-0.29616 -0.101,-0.43736 -1.7835,-0.44232 -2.5042,-0.009 -4.8904,-0.75698 -4.8904,-1.53631 0,-0.2346 0.2672,-0.26624 0.5937,-0.0701 0.4729,0.28412 0.4741,0.20897 0.01,-0.36973 -0.3233,-0.3995 -1.3761,-0.75602 -2.3397,-0.79225 -0.9635,-0.0361 -1.9279,-0.33812 -2.1431,-0.67085 -0.2998,-0.4636 -0.4772,-0.47233 -0.7594,-0.0371 -0.2714,0.41848 -0.8644,0.44264 -2.2559,0.0918 -3.2544,-0.82019 -4.6965,-1.24378 -5.9946,-1.7607 -0.6915,-0.27533 -1.4203,-0.35397 -1.6197,-0.17466 -0.1993,0.17926 -0.2225,0.0812 -0.052,-0.21791 0.2957,-0.51736 -0.926,-1.36057 -1.7206,-1.18759 -0.9783,0.21283 -6.7981,-1.00588 -8.1151,-1.69952 -0.8161,-0.42988 -3.3005,-1.1511 -5.5208,-1.60271 -2.2203,-0.45162 -4.6781,-1.04486 -5.4617,-1.31833 -3.402,-1.18713 -12.4677,-2.30824 -17.6104,-2.17774 -9.9356,0.25207 -14.8106,2.86633 -15.6384,8.3862 -0.305,2.03394 0.3527,6.72501 1.1814,8.4266 0.1983,0.40742 0.8193,1.76852 1.3797,3.02466 0.5605,1.25618 1.2278,2.5385 1.4828,2.8496 0.2551,0.31114 1.4782,1.84801 2.7182,3.41531 5.1293,6.48349 8.0107,8.50161 17.9378,12.56374 0.5225,0.21382 1.8048,0.61219 2.8496,0.88539 1.0449,0.2732 3.6095,0.94455 5.6993,1.49189 2.5827,0.67649 5.6648,1.04394 9.6243,1.14747 3.2037,0.0839 5.943,0.2704 6.0874,0.41482 0.1444,0.14442 1.0036,0.0579 1.9092,-0.19206 0.9056,-0.25005 2.0666,-0.32133 2.5801,-0.15818 0.5677,0.18023 0.9336,0.0769 0.9336,-0.26351 0,-0.37602 0.5142,-0.4633 1.5664,-0.2659 0.8616,0.16162 2.6248,0.0946 3.9183,-0.14937 1.5001,-0.28259 2.4114,-0.27671 2.5166,0.0169 0.098,0.27198 0.4413,0.22999 0.8426,-0.10311 0.3727,-0.30933 0.7907,-0.44944 0.9288,-0.31133 0.138,0.13801 1.1765,-0.0276 2.3076,-0.36782 1.5146,-0.45584 2.1964,-0.47912 2.5871,-0.0884 0.3907,0.39068 0.5305,0.31772 0.5305,-0.2769 0,-0.69807 0.8147,-1.04962 2.0089,-0.86681 0.1906,0.0293 1.4275,-0.37296 2.7485,-0.89364 1.3209,-0.52068 2.7511,-0.94667 3.178,-0.94667 0.8753,0 5.4935,-1.72537 10.1121,-3.77784 1.6978,-0.75454 4.1556,-1.83989 5.4617,-2.41186 1.3061,-0.57196 3.657,-1.79515 5.2243,-2.71812 1.5673,-0.92299 3.1168,-1.68288 3.4433,-1.68863 0.3265,-0.006 0.5936,-0.18844 0.5936,-0.40623 0,-0.21767 0.3206,-0.39576 0.7125,-0.39576 0.3918,0 0.7123,-0.19933 0.7123,-0.44293 0,-0.24361 0.4074,-0.57221 0.9053,-0.73025 0.5131,-0.16283 0.8481,-0.63961 0.7734,-1.10059 -0.1771,-1.09212 0.6063,-2.00527 1.4442,-1.68373 1.1733,0.45021 2.8682,-0.2466 4.7734,-1.96243 1.012,-0.91137 2.0173,-1.66195 2.2341,-1.66804 0.2167,-0.009 1.6883,-1.30509 3.27,-2.88679 1.6143,-1.61431 3.1535,-2.76924 3.5088,-2.63286 0.3482,0.13352 0.7797,0.006 0.9591,-0.28466 0.1973,-0.31947 0.1096,-0.39391 -0.2223,-0.18869 -1.2888,0.79655 -0.4039,-0.74106 1.1239,-1.95289 0.9196,-0.72947 2.2376,-2.1812 2.9287,-3.22605 0.6912,-1.04485 2.0353,-2.8615 2.987,-4.03693 0.9518,-1.17549 2.145,-2.9921 2.6518,-4.03694 0.5067,-1.04487 1.0333,-2.0066 1.1702,-2.13723 0.5833,-0.55654 2.8394,-5.37928 2.8532,-6.09922 0.01,-0.43303 0.3221,-1.19282 0.6972,-1.68844 0.3752,-0.49558 0.5753,-1.07392 0.4447,-1.28515 -0.1304,-0.21114 0.1022,-1.19494 0.5171,-2.18597 0.6993,-1.67036 1.0203,-3.32245 1.376,-7.0815 0.077,-0.81407 0.2292,-1.66895 0.3381,-1.89974 0.2922,-0.61927 0.1237,-6.23413 -0.2691,-8.96843 -0.4392,-3.05673 -1.7889,-7.47957 -3.8789,-12.71109 -0.9145,-2.28922 -1.5316,-4.37451 -1.3712,-4.63394 0.1601,-0.25947 -0.05,-0.603 -0.4686,-0.76343 -0.8827,-0.33869 -2.2538,-2.76372 -1.8123,-3.20527 0.1648,-0.16476 -0.2017,-0.83303 -0.8141,-1.48502 -0.6125,-0.65201 -0.9543,-1.18549 -0.7595,-1.18549 0.1947,0 0.034,-0.32056 -0.3582,-0.71238 -0.3919,-0.39184 -0.8954,-0.71242 -1.1189,-0.71242 -0.441,0 -1.9972,-2.42052 -1.874,-2.9148 0.042,-0.16646 -0.4589,-0.74708 -1.1119,-1.29028 -0.6531,-0.54318 -0.999,-0.99469 -0.7689,-1.00338 0.2303,-0.01 -1.3193,-1.69845 -3.4433,-3.75501 -2.1239,-2.05652 -3.8617,-3.97327 -3.8617,-4.25942 0,-0.76718 -4.9412,-4.28472 -9.0238,-6.42379 -8.52,-4.46415 -10.7421,-5.5192 -11.6359,-5.5248 -0.5224,-0.003 -1.4841,-0.28352 -2.1372,-0.6228 -3.8692,-2.01032 -14.1893,-3.05995 -21.1346,-2.14955 -1.8285,0.23967 -4.0181,0.48061 -4.8659,0.53543 -0.8478,0.055 -1.5424,0.24294 -1.5436,0.41808 -7e-4,0.17514 -1.4447,0.46821 -3.2079,0.65133 -1.7632,0.18312 -3.4195,0.49605 -3.6807,0.69536 -0.2613,0.1993 -1.223,0.5115 -2.1372,0.6937 -2.2601,0.4504 -4.6136,1.19018 -6.8866,2.16461 -1.0449,0.44793 -2.3613,0.95744 -2.9254,1.13223 -0.5642,0.17467 -1.2849,0.63012 -1.6018,1.01183 -0.3167,0.38169 -0.8742,0.69401 -1.2388,0.69401 -0.3645,0 -2.1015,0.88443 -3.86,1.96544 -1.7585,1.081 -4.0277,2.41673 -5.0428,2.96832 -1.0151,0.5516 -2.1617,1.4838 -2.548,2.07152 -0.3864,0.58774 -0.9451,1.07316 -1.2415,1.07876 -0.2965,0.006 -1.1498,0.8731 -1.8962,1.92786 -0.7464,1.05475 -1.4785,1.79624 -1.627,1.64777 -0.1486,-0.14825 -0.7133,0.14281 -1.2551,0.64684 -0.9748,0.9072 -0.999,0.90554 -2.3198,-0.15515 -1.8116,-1.45478 -1.405,-2.80945 1.6542,-5.51193 1.3247,-1.17017 3.0771,-2.79477 3.8941,-3.61015 0.8171,-0.81542 3.0564,-2.36607 4.9761,-3.44593 1.9198,-1.07985 4.0323,-2.3896 4.6947,-2.91059 0.6623,-0.52097 1.4102,-0.94724 1.662,-0.94724 0.4579,0 1.3735,-0.37525 5.8257,-2.3876 1.3061,-0.59037 3.0158,-1.24404 3.7995,-1.45264 0.7836,-0.2085 2.7071,-0.82916 4.2744,-1.37903 1.5673,-0.54985 4.7731,-1.29957 7.124,-1.66604 2.3509,-0.36646 5.4499,-0.87301 6.8866,-1.1257 1.4366,-0.25267 3.0395,-0.46835 3.562,-0.47929 10.1575,-0.21285 16.6573,0.55351 22.3219,2.63194 1.0448,0.38336 2.3272,0.81146 2.8496,0.95131 3.7363,1.00028 13.9758,7.07873 17.8667,10.60626 3.3382,3.02644 8.4922,8.23817 8.4922,8.58736 0,0.23554 0.5918,1.01773 1.3152,1.73835 0.7234,0.72063 1.6144,1.89792 1.98,2.61627 0.3656,0.71835 0.9283,1.30608 1.2505,1.30608 0.3221,0 0.8172,0.58773 1.1002,1.30607 0.5507,1.39781 1.1142,2.35665 2.7383,4.6591 1.4272,2.02324 3.4891,6.39279 3.4891,7.39387 0,0.45809 0.2375,0.97978 0.528,1.15924 0.9092,0.56194 2.9399,5.61865 2.337,5.81964 -0.3431,0.11431 -0.2551,0.38897 0.2409,0.75167 1.2348,0.9029 2.479,8.062 1.5878,9.13585 -0.4444,0.5355 -0.3999,0.60805 0.2259,0.36792 1.0182,-0.39076 1.0523,0.0711 0.5284,7.16393 -0.1158,1.56729 -0.2977,4.22512 -0.4043,5.90628 -0.1267,1.9981 -0.4426,3.23853 -0.912,3.58184 -0.5246,0.38358 -0.5921,0.75059 -0.2503,1.36133 0.3074,0.54926 0.3073,1.03137 -3e-4,1.405 -0.7535,0.915 -3.4062,6.19186 -3.4062,6.77561 0,0.64835 -1.0157,2.57001 -2.8696,5.42907 -0.7622,1.17546 -1.612,2.65357 -1.8885,3.28466 -0.2764,0.63107 -0.8855,1.48597 -1.3535,1.89973 -0.468,0.41377 -1.0476,1.10036 -1.2879,1.52573 -1.0307,1.82448 -5.572,6.55251 -6.0249,6.27263 -0.2801,-0.17323 -0.3546,-0.0783 -0.1713,0.21815 0.1793,0.29012 -0.1594,0.78202 -0.7577,1.10082 -1.2514,0.66669 -2.2793,1.92039 -1.9763,2.41059 0.1148,0.1858 -0.2417,0.57864 -0.7921,0.87321 -1.0137,0.54251 -1.7097,1.08236 -4.4127,3.4227 -0.8249,0.71415 -1.7669,1.30189 -2.0934,1.30606 -0.3265,0.003 -0.5937,0.30736 -0.5937,0.67373 0,0.41725 1.2864,1.04411 3.4433,1.67787 1.8938,0.55647 3.9342,1.21841 4.5342,1.47107 0.6,0.25263 1.4822,0.45934 1.9603,0.45934 0.4782,0 1.1335,0.31824 1.4563,0.70716 0.3228,0.38896 0.7565,0.60235 0.9639,0.4742 0.5234,-0.3235 5.6895,1.70128 5.6895,2.22991 0,0.23651 0.2672,0.38014 0.5937,0.31939 0.3265,-0.0607 1.2761,0.0509 2.1101,0.24843 1.0433,0.2469 1.435,0.57124 1.2553,1.03948 -0.3167,0.82534 0.038,0.86226 1.2151,0.1268 0.7245,-0.45247 1.1264,-0.36549 2.1948,0.47494 0.7194,0.56585 1.8261,1.0288 2.4593,1.0288 0.6332,0 1.0331,0.19134 0.8885,0.4252 -0.2866,0.46374 1.1367,1.17788 1.5412,0.77334 0.1367,-0.13672 -0.036,-0.24868 -0.3846,-0.24868 -0.3483,0 -0.5213,-0.11191 -0.3846,-0.24863 0.4433,-0.44324 1.8137,0.33248 1.4958,0.84672 -0.1693,0.27422 -0.093,0.3656 0.1699,0.20316 0.2629,-0.16259 1.3029,0.12521 2.311,0.63903 1.0081,0.51398 2.322,0.93448 2.9198,0.93448 0.5979,0 1.087,0.18554 1.087,0.41241 0,0.22686 0.8297,0.5237 1.8439,0.65972 1.0141,0.13593 2.4567,0.58557 3.2058,0.99901 3.1597,1.74399 8.4177,4.1369 9.6257,4.38064 0.3657,0.0739 0.8465,0.41553 1.0686,0.75941 0.3251,0.50346 0.4799,0.50746 0.7949,0.0194 0.2996,-0.4632 0.595,-0.37975 1.261,0.35617 0.4928,0.54454 1.4675,0.96109 2.2489,0.96109 0.7587,0 1.2595,0.19377 1.1131,0.43062 -0.1464,0.23702 0.195,0.31007 0.7587,0.16284 0.7022,-0.18359 0.9178,-0.095 0.685,0.28178 -0.229,0.37061 0.1335,0.54974 1.1131,0.54974 0.799,0 1.4528,0.2097 1.4528,0.46589 0,0.38591 0.7455,0.70455 2.8496,1.21803 1.8908,0.4614 4.079,2.11555 2.7985,2.11555 -0.3202,0 -0.4448,0.13753 -0.277,0.30514 0.1679,0.16791 0.6472,0.0217 1.0653,-0.32565 0.6351,-0.5271 0.8309,-0.51872 1.1915,0.0509 0.2372,0.37501 0.4347,0.48844 0.4387,0.25206 0,-0.23628 0.4347,-0.0431 0.9572,0.4298 0.5224,0.47282 0.9498,1.13446 0.9498,1.47036 0,0.33592 0.1938,0.73054 0.4307,0.87694 0.2367,0.14633 0.3251,-0.13751 0.1961,-0.63078 -0.2456,-0.93918 0.8527,-2.02756 1.149,-1.13863 0.093,0.27974 0.5627,0.40582 1.0431,0.28018 0.4804,-0.12568 1.0171,0.003 1.1926,0.2879 0.1754,0.28398 0.8408,0.51632 1.4784,0.51632 0.6376,0 1.1593,0.21381 1.1593,0.47493 0,0.26121 0.4274,0.47494 0.9499,0.47494 0.5224,0 0.8964,0.26711 0.8311,0.59363 -0.073,0.36191 0.4375,0.61174 1.3061,0.63995 2.9706,0.0967 3.4461,0.21672 4.5118,1.14106 0.6024,0.52245 1.5451,0.94988 2.095,0.94988 0.5498,0 2.0034,0.53432 3.2301,1.18732 1.2267,0.65304 2.6743,1.18736 3.2169,1.18736 0.5426,0 1.0896,0.26712 1.2156,0.59365 0.1258,0.32655 0.8702,0.61659 1.6537,0.64459 0.7836,0.028 1.8358,0.42294 2.3383,0.87766 0.5025,0.45471 1.126,0.69546 1.3856,0.53501 0.2596,-0.1604 0.6153,-0.0602 0.7904,0.22324 0.1751,0.28327 0.6173,0.40032 0.9827,0.2601 0.3654,-0.14008 0.6643,-0.0355 0.6643,0.23314 0,0.26841 0.2153,0.35503 0.4783,0.19255 0.2631,-0.1626 0.5929,0.003 0.7328,0.36776 0.2491,0.64892 0.8209,0.82437 2.9096,0.89268 0.6864,0.0217 0.9473,0.25848 0.7769,0.70264 -0.2078,0.54108 -0.017,0.57707 1.0068,0.18843 0.9848,-0.37439 1.5468,-0.30031 2.5476,0.33596 0.7063,0.44897 1.4652,1.10658 1.6864,1.46133 0.2577,0.41341 0.8283,0.53804 1.5889,0.34714 0.6924,-0.17394 1.5027,-0.0421 1.945,0.31626 0.4901,0.39703 0.6391,0.41576 0.4215,0.053 -0.4252,-0.70892 1.4332,-2.05093 2.8401,-2.05093 0.6362,0 1.1696,0.37809 1.3544,0.96014 0.3182,1.00254 -0.6633,3.7892 -1.3346,3.7892 -0.2128,0 -0.2699,0.18939 -0.1268,0.4211 0.4119,0.66634 -0.9395,1.52364 -2.757,1.74907 -1.2241,0.15177 -1.8311,-0.0195 -2.2875,-0.64804 z m 1.3872,-1.8091 c -0.1577,-0.1577 -0.5674,-0.17467 -0.9103,-0.0375 -0.3788,0.15177 -0.2663,0.26416 0.287,0.28695 0.5006,0.0217 0.7811,-0.0916 0.6233,-0.24946 z m -2.721,-0.66291 c 0,-0.26123 -0.2263,-0.47494 -0.5029,-0.47494 -0.2767,0 -0.3709,0.21381 -0.2095,0.47494 0.1616,0.26119 0.3878,0.47494 0.503,0.47494 0.1153,0 0.2094,-0.21381 0.2094,-0.47494 z m -38.7071,-15.67288 c -0.4728,-0.52242 -1.073,-0.94984 -1.3336,-0.94984 -0.2608,0 0.019,0.42742 0.6212,0.94984 0.6023,0.52247 1.2025,0.94988 1.3336,0.94988 0.1309,0 -0.1486,-0.42741 -0.6212,-0.94988 z m -55.2022,-22.1585 c -0.3215,-0.13016 -0.9627,-0.13815 -1.4248,-0.0169 -0.4621,0.12055 -0.199,0.22685 0.5847,0.2365 0.7836,0.01 1.1617,-0.0887 0.8401,-0.21886 z m -7.8553,-2.35008 c -0.1577,-0.1577 -0.5675,-0.17467 -0.9103,-0.0374 -0.3789,0.15177 -0.2663,0.26414 0.2869,0.28695 0.5007,0.0217 0.7812,-0.0916 0.6234,-0.24945 z m -21.9558,-2.08773 c 0.1616,-0.26122 0.067,-0.47495 -0.2095,-0.47495 -0.2766,0 -0.503,0.21382 -0.503,0.47495 0,0.26121 0.094,0.47494 0.2095,0.47494 0.1152,0 0.3415,-0.21381 0.5029,-0.47494 z m 11.7786,-1.73796 c -0.1344,-0.35019 -0.4581,-0.63671 -0.7193,-0.63671 -0.2612,0 -0.3452,0.33805 -0.1868,0.75123 0.1585,0.4132 0.2916,1.00091 0.2956,1.30607 0,0.34042 0.171,0.29615 0.431,-0.11447 0.2331,-0.36812 0.3138,-0.95586 0.1793,-1.30608 z m -3.4673,-3.22082 c 0,-0.11528 -0.2138,-0.34154 -0.4749,-0.50297 -0.2612,-0.16164 -0.475,-0.067 -0.475,0.20946 0,0.27662 0.2138,0.50296 0.475,0.50296 0.2612,0 0.4749,-0.0943 0.4749,-0.20945 z m -50.818,-13.56368 c 0,-0.26123 -0.2264,-0.47494 -0.503,-0.47494 -0.2766,0 -0.3708,0.21381 -0.2094,0.47494 0.1616,0.26121 0.3878,0.47494 0.5029,0.47494 0.1153,0 0.2095,-0.21382 0.2095,-0.47494 z m 227.6754,11.26287 c -2.6929,-1.54464 -4.5279,-3.73255 -5.174,-6.16906 -0.9422,-3.55301 -0.5645,-10.75637 0.7402,-14.11757 0.5577,-1.43666 1.0146,-2.93273 1.0155,-3.32454 0,-1.49747 4.2731,-9.42492 5.8488,-10.85879 0.9003,-0.81922 1.7778,-1.4895 1.95,-1.4895 0.1723,0 0.703,-0.44947 1.1794,-0.99875 1.5741,-1.81495 6.1318,-2.73605 6.1318,-1.23921 0,0.27549 0.3432,0.8802 0.7628,1.34381 0.6722,0.7428 0.6884,1.14219 0.1363,3.36195 -0.5228,2.10181 -1.7506,4.56036 -2.7996,5.60608 -0.131,0.13065 -0.5585,0.86052 -0.9499,1.62202 -0.6511,1.26669 -2.5343,3.33871 -4.5058,4.95747 -0.4306,0.35355 -1.3194,0.54024 -1.9751,0.41492 -0.7463,-0.14281 -1.286,0.0169 -1.4431,0.4258 -0.138,0.35949 -0.5444,0.65367 -0.9033,0.65367 -0.3589,0 -0.7661,0.48089 -0.9048,1.06862 -0.5312,2.25077 -1.0569,7.2711 -0.8249,7.87822 0.2286,0.59784 0.3831,1.62937 0.5235,3.49371 0.1258,1.66951 2.0948,3.24994 4.0975,3.28879 2.2738,0.0442 2.6959,-0.0604 5.4783,-1.35767 3.2257,-1.50386 4.4732,-1.7212 5.1561,-0.89835 0.4768,0.57462 0.4334,0.95038 -0.2261,1.95716 -0.8554,1.3054 -3.7764,3.44325 -6.0374,4.41863 -1.6998,0.73333 -5.9708,0.71136 -7.2761,-0.0375 z m 3.1428,-21.79059 c 0,-0.21768 -0.44,-0.39578 -0.9778,-0.39578 -0.5379,0 -0.8679,0.17806 -0.7334,0.39578 0.1347,0.21766 0.5746,0.39578 0.978,0.39578 0.4033,0 0.7332,-0.17805 0.7332,-0.39578 z m -0.2167,-3.9428 c 0.6911,-0.90601 1.475,-1.60062 1.7421,-1.54356 0.2671,0.057 0.5513,-0.28899 0.6316,-0.76902 0.08,-0.48004 0.4525,-1.22806 0.8272,-1.66227 0.8604,-0.99695 1.3274,-2.84769 0.8007,-3.17318 -0.2201,-0.13625 -1.0936,0.6153 -1.9409,1.66971 -1.1078,1.37848 -1.65,1.74809 -1.9298,1.31554 -0.5802,-0.89702 -1.2523,0.34984 -0.9739,1.80655 0.122,0.63767 0.017,1.42529 -0.2355,1.75032 -0.732,0.94623 -1.088,2.25318 -0.6138,2.25318 0.2396,0 1.0012,-0.74125 1.6923,-1.64727 z m -78.5007,22.05326 c -2.7246,-0.59696 -2.9337,-1.02089 -2.1587,-4.37569 0.3759,-1.62693 0.8995,-3.21842 1.1636,-3.53669 0.2641,-0.31824 0.3515,-0.78695 0.1942,-1.04153 -0.1572,-0.25461 -0.098,-0.57907 0.1315,-0.72098 0.2297,-0.14201 0.679,-1.19212 0.9987,-2.33377 0.5219,-1.8643 0.71,-2.058 1.8461,-1.90183 1.2039,0.16549 1.2134,0.15129 0.1965,-0.29586 -1.2008,-0.5279 -1.3188,-1.25306 -0.5208,-3.20037 0.7125,-1.73849 0.8928,-2.44106 1.0992,-4.28417 0.2372,-2.11832 0.5791,-2.51456 2.1695,-2.51456 2.0865,0 3.1083,1.78194 2.3014,4.01346 -0.3352,0.92717 -0.7929,1.68575 -1.0171,1.68575 -0.2242,0 -0.2755,0.2138 -0.114,0.47494 0.5381,0.87069 0.9344,0.49754 3.2789,-3.08759 1.2809,-1.95881 2.5098,-3.5615 2.7308,-3.5615 0.2211,0 0.4019,-0.22395 0.4019,-0.4977 0,-0.27376 0.5878,-1.01501 1.3061,-1.64726 1.7439,-1.53494 3.8262,-1.52777 5.1543,0.0169 0.913,1.0626 1.0135,1.66392 0.8928,5.34302 -0.075,2.28011 -0.3691,5.10742 -0.6541,6.28289 -0.5404,2.22954 -0.8943,4.38302 -0.9608,5.84598 -0.024,0.51086 -0.256,0.72512 -0.574,0.52852 -0.3847,-0.23772 -0.4004,-0.0898 -0.056,0.52571 0.2934,0.52427 0.3208,1.40872 0.071,2.2808 -0.2247,0.78347 -0.2877,1.90592 -0.1401,2.49432 0.1993,0.79436 -0.017,1.22725 -0.8418,1.68114 -2.4783,1.36443 -4.9257,-0.49236 -4.0951,-3.10689 0.2557,-0.80482 0.5332,-1.89073 0.6166,-2.41316 0.084,-0.52244 0.1875,-0.94987 0.231,-0.94987 0.044,0 0.1415,-0.42744 0.2179,-0.94985 0.076,-0.52245 0.4001,-2.33907 0.7195,-4.03697 0.8929,-4.74685 0.9682,-7.97001 0.1932,-8.2674 -0.3742,-0.14344 -0.6557,0.0478 -0.6557,0.4459 0,0.38361 -0.3206,0.69748 -0.7124,0.69748 -0.3918,0 -0.7124,0.17346 -0.7124,0.38537 0,0.21188 -0.4758,0.89613 -1.0573,1.52038 -0.5816,0.62419 -1.1275,1.65798 -1.2131,2.29723 -0.085,0.63927 -0.7396,2.03887 -1.4533,3.11027 -0.7137,1.07139 -1.7173,2.80286 -2.2302,3.84774 -0.513,1.04482 -1.3393,2.27373 -1.8364,2.73085 -0.4971,0.45712 -0.7381,0.83112 -0.5355,0.83112 0.2024,0 0.1301,0.28682 -0.1607,0.6374 -0.2909,0.35054 -0.3884,0.77797 -0.2165,0.94986 0.172,0.17176 0.073,0.31249 -0.22,0.31249 -0.2929,0 -0.6715,0.74042 -0.8413,1.64535 -0.3938,2.0994 -1.023,2.55732 -2.9372,2.1379 z m 6.0524,-11.56886 c 0,-0.45056 -1.4216,-0.67762 -1.6751,-0.26755 -0.1543,0.24981 0.1595,0.45419 0.6972,0.45419 0.5379,0 0.9779,-0.084 0.9779,-0.18674 z m -3.3245,-0.76324 c 0,-0.2612 -0.094,-0.47491 -0.2094,-0.47491 -0.1153,0 -0.3416,0.2138 -0.503,0.47491 -0.1614,0.26123 -0.067,0.47494 0.2094,0.47494 0.2766,0 0.503,-0.21381 0.503,-0.47494 z m 4.9868,-4.2744 c 0.1616,-0.26124 0.067,-0.47493 -0.2094,-0.47493 -0.2767,0 -0.503,0.2138 -0.503,0.47493 0,0.26121 0.094,0.47493 0.2094,0.47493 0.1153,0 0.3416,-0.21379 0.503,-0.47493 z m 5.2243,-4.79248 c 0.8669,-0.41189 0.8533,-0.43273 -0.1563,-0.23868 -0.8541,0.16403 -1.041,0.0427 -0.8202,-0.53239 0.2367,-0.61718 0.1628,-0.64275 -0.4322,-0.14906 -0.395,0.32778 -0.601,0.78544 -0.4578,1.01706 0.3142,0.50841 0.6265,0.4922 1.8665,-0.0969 z m 3.2058,-2.17115 c -0.3265,-0.1316 -0.8608,-0.1316 -1.1873,0 -0.3266,0.1316 -0.059,0.23966 0.5937,0.23966 0.653,0 0.9201,-0.10775 0.5936,-0.23966 z m -33.6016,23.2693 c -3.7285,-0.81196 -6.8529,-4.64612 -6.1307,-7.52338 0.2954,-1.1769 -0.4015,-1.66608 -0.9981,-0.70065 -0.1641,0.2655 -0.5336,0.33726 -0.8212,0.15946 -0.3321,-0.20536 -0.4166,-0.0465 -0.2317,0.43582 0.1991,0.51888 -0.6346,1.67337 -2.6354,3.64965 -3.2423,3.20228 -5.5937,4.22192 -7.6138,3.30153 -2.9667,-1.3517 -2.6694,-5.5484 0.9221,-13.01441 0.8791,-1.82759 1.5984,-3.5908 1.5984,-3.9182 0,-0.32743 0.1998,-0.59533 0.4442,-0.59533 0.2443,0 0.7146,-0.74802 1.0452,-1.66226 0.3306,-0.91427 0.7575,-1.66226 0.9487,-1.66226 0.1911,0 0.4963,-0.48088 0.6782,-1.06862 0.4031,-1.30238 6.1934,-6.95553 7.7194,-7.53652 1.7667,-0.67265 3.2025,-0.48774 4.1247,0.53124 0.4728,0.52243 1.0994,0.94986 1.3926,0.94986 0.7961,0 3.5942,2.69538 3.5942,3.46228 0,0.99959 -1.4268,3.66176 -1.9625,3.66176 -0.2575,0 -0.3352,0.21525 -0.1725,0.47816 0.1626,0.26299 -0.1068,1.06444 -0.5986,1.78102 -1.0467,1.52526 -2.5964,6.20901 -2.2434,6.78026 0.1339,0.21646 0.022,0.53002 -0.2471,0.69671 -0.2697,0.16669 -0.3766,0.48727 -0.2375,0.71238 0.1391,0.22517 0.059,0.52932 -0.1785,0.67602 -0.7125,0.44029 -0.1029,4.24025 0.8294,5.17282 1.1227,1.12265 3.9459,1.74725 6.4895,1.43572 2.1408,-0.26217 2.8423,0.21428 2.3943,1.62591 -0.3314,1.04415 -1.5214,1.7944 -3.5543,2.24093 -1.265,0.27781 -1.5129,0.21768 -1.2208,-0.29583 0.2956,-0.51969 0.2428,-0.52954 -0.273,-0.0507 -0.6437,0.59748 -1.3114,0.65781 -3.0618,0.27662 z m -13.0473,-7.03613 c 0.2538,0.15704 0.4615,-0.0479 0.4615,-0.45521 0,-0.41168 0.402,-0.74043 0.9054,-0.74043 0.6448,0 0.8397,-0.25117 0.6773,-0.87226 -0.1497,-0.57314 0.1911,-1.14691 0.9944,-1.67323 0.6723,-0.44054 1.2224,-1.02948 1.2224,-1.30878 0,-0.82873 1.7418,-2.79145 2.1498,-2.42252 0.2068,0.18701 0.242,-0.0338 0.078,-0.49105 -0.164,-0.45712 -0.091,-0.83113 0.1619,-0.83113 0.253,0 0.46,-0.32058 0.46,-0.71242 0,-0.3918 0.1906,-0.71238 0.4234,-0.71238 0.2329,0 0.7654,-0.85488 1.1835,-1.89975 0.418,-1.04482 0.9984,-1.89972 1.2897,-1.89972 0.2913,0 0.399,-0.34037 0.2394,-0.75637 -0.1918,-0.50012 0.022,-0.8381 0.6325,-0.99763 0.8568,-0.22397 0.8319,-0.31947 -0.3471,-1.3336 l -1.2698,-1.09228 -1.7882,0.91224 c -0.9835,0.50177 -1.7881,1.09044 -1.7881,1.30818 0,0.21767 -0.4809,0.9276 -1.0686,1.57739 -0.5877,0.6498 -1.5985,2.17704 -2.2461,3.39389 -0.6475,1.21686 -1.2999,2.21245 -1.4497,2.21245 -0.1498,0 -0.6565,1.06862 -1.1262,2.37468 -0.4971,1.38236 -1.1451,2.37467 -1.5506,2.37467 -0.4806,0 -0.6032,0.29466 -0.3952,0.94986 0.1659,0.52244 0.1268,0.95031 -0.087,0.95082 -0.2136,4e-4 -0.4436,0.77437 -0.5112,1.71966 l -0.123,1.71872 1.205,-0.78951 c 0.6627,-0.43428 1.4127,-0.66121 1.6665,-0.50433 z m -25.6599,4.02863 c -0.653,-0.51081 -1.4087,-0.9335 -1.6792,-0.9393 -0.2706,-0.006 -0.5194,-0.38458 -0.5529,-0.8417 -0.096,-1.30604 -0.1556,-2.66734 -0.1505,-3.44327 0,-0.39184 -0.09,-1.46043 -0.2044,-2.37468 -0.1148,-0.91427 0.032,-2.51716 0.3251,-3.56202 0.6787,-2.41546 0.5724,-2.03065 1.2473,-4.51188 0.9725,-3.57508 5.6176,-12.3448 6.5399,-12.347 0.5419,-0.002 1.2343,1.52627 1.291,2.84831 0.042,0.97191 -1.2275,4.27442 -1.6427,4.27442 -0.1843,0 -0.2232,0.42744 -0.087,0.94987 0.1754,0.67079 0.014,0.94987 -0.5474,0.94987 -0.4377,0 -0.688,0.17467 -0.556,0.38811 0.1319,0.21332 -0.061,1.26288 -0.4299,2.33208 -0.9095,2.63976 -1.2233,4.16181 -1.5163,7.35487 -0.3391,3.69505 0.056,5.12247 1.35,4.87333 1.2536,-0.24134 2.787,0.53823 2.787,1.41704 0,1.04063 -2.8152,3.58291 -3.9547,3.57125 -0.5676,-0.006 -1.5663,-0.4285 -2.2194,-0.9393 z m 282.3093,-2.9133 c -0.1399,-0.22614 -0.6446,-0.41124 -1.1219,-0.41124 -0.52,0 -1.1749,-0.64727 -1.6343,-1.61532 -0.9602,-2.02365 -0.9656,-1.94791 0.2356,-3.32954 1.2251,-1.40899 2.8096,-1.85663 4.4133,-1.24686 1.5006,0.57046 1.9344,2.16431 1.2656,4.64847 -0.3961,1.47076 -0.7883,1.96125 -1.7092,2.13727 -0.6572,0.12569 -1.3094,0.0435 -1.4492,-0.18287 z"
       id="path3346"
       inkscape:connector-curvature="0" />
  </g>
</svg>
