<?xml version="1.0" encoding="UTF-8" standalone="no"?>
<!-- Created with Inkscape (http://www.inkscape.org/) -->

<svg
   xmlns:dc="http://purl.org/dc/elements/1.1/"
   xmlns:cc="http://creativecommons.org/ns#"
   xmlns:rdf="http://www.w3.org/1999/02/22-rdf-syntax-ns#"
   xmlns:svg="http://www.w3.org/2000/svg"
   xmlns="http://www.w3.org/2000/svg"
   xmlns:xlink="http://www.w3.org/1999/xlink"
   xmlns:sodipodi="http://sodipodi.sourceforge.net/DTD/sodipodi-0.dtd"
   xmlns:inkscape="http://www.inkscape.org/namespaces/inkscape"
   id="svg3336"
   version="1.1"
   inkscape:version="0.91 r13725"
   width="1311.25"
   height="702.5"
   viewBox="0 0 1311.25 702.5"
   sodipodi:docname="signatureheadertransparent.svg">
  <metadata
     id="metadata3342">
    <rdf:RDF>
      <cc:Work
         rdf:about="">
        <dc:format>image/svg+xml</dc:format>
        <dc:type
           rdf:resource="http://purl.org/dc/dcmitype/StillImage" />
        <dc:title></dc:title>
      </cc:Work>
    </rdf:RDF>
  </metadata>
  <defs
     id="defs3340" />
  <sodipodi:namedview
     pagecolor="#ffffff"
     bordercolor="#666666"
     borderopacity="1"
     objecttolerance="10"
     gridtolerance="10"
     guidetolerance="10"
     inkscape:pageopacity="0"
     inkscape:pageshadow="2"
     inkscape:window-width="1366"
     inkscape:window-height="705"
     id="namedview3338"
     showgrid="false"
     fit-margin-top="0"
     fit-margin-left="0"
     fit-margin-right="0"
     fit-margin-bottom="0"
     inkscape:zoom="0.76298932"
     inkscape:cx="655.625"
     inkscape:cy="390.34814"
     inkscape:window-x="-8"
     inkscape:window-y="-8"
     inkscape:window-maximized="1"
     inkscape:current-layer="svg3336" />
  <image
     sodipodi:absref="C:\Users\qianz_000\Desktop\blog\signatureheadertransparent.png"
     xlink:href="signatureheadertransparent.png"
     y="0"
     x="0"
     id="image3344"
     preserveAspectRatio="none"
     height="702.5"
     width="1311.25" />
  <path
     style="fill:#000000"
     d="m 1057.0929,634.27492 c -2.952,-2.56388 -3.3946,-3.69402 -2.6947,-6.88055 1.573,-7.16173 6.3358,-14.26325 15.7972,-23.55397 3.2012,-3.14346 6.7174,-7.69101 7.8138,-10.10565 1.0965,-2.41464 3.9509,-6.63339 6.3432,-9.375 2.3923,-2.74161 4.3604,-5.58264 4.3736,-6.31339 0.013,-0.73075 1.7115,-2.94536 3.774,-4.92136 2.0625,-1.976 3.75,-4.06814 3.75,-4.64919 0,-0.58105 2.6719,-5.02975 5.9375,-9.88598 8.1011,-12.04696 11.1091,-17.02228 14.1477,-23.40057 2.731,-5.73271 9.8916,-17.87906 11.1652,-18.93926 0.4129,-0.34375 2.1286,-3.84978 3.8127,-7.79116 1.755,-4.10752 3.8622,-7.18345 4.9369,-7.20665 1.6667,-0.036 1.6667,-0.17978 0,-1.2942 -1.6441,-1.09935 -1.6177,-1.40574 0.2148,-2.4883 1.1494,-0.67903 2.4762,-3.05935 2.9484,-5.28964 0.4722,-2.23028 1.886,-6.0238 3.1418,-8.43005 1.2558,-2.40625 3.238,-6.625 4.4049,-9.375 1.1668,-2.75 3.1318,-7.25 4.3665,-10 1.2348,-2.75 2.9492,-7.53125 3.8099,-10.625 0.8606,-3.09375 1.6498,-5.90625 1.7537,-6.25 0.1039,-0.34375 0.6056,-2.3125 1.1151,-4.375 0.5094,-2.0625 1.6706,-5.71875 2.5804,-8.125 0.9099,-2.40625 2.6351,-8.03125 3.8338,-12.5 1.1987,-4.46875 4.0422,-13.46875 6.319,-20 4.1211,-11.82199 7.5215,-24.44519 13.6371,-50.625 1.7666,-7.5625 3.5616,-15.15625 3.9888,-16.875 4.2047,-16.91559 5.2279,-30.32988 2.8181,-36.94531 -1.3172,-3.616 -9.3319,-9.42584 -14.7464,-10.68962 -8.022,-1.87238 -20.9229,-1.55407 -25.2889,0.62395 -2.2171,1.10604 -4.7008,2.01098 -5.5193,2.01098 -1.6002,0 -11.8777,9.88201 -11.8777,11.42066 0,0.51001 -2.25,3.52697 -5,6.70434 -2.75,3.17737 -5,6.17998 -5,6.67245 0,0.49246 -1.5469,2.59867 -3.4375,4.68045 -1.8906,2.08179 -5.125,5.93838 -7.1875,8.5702 -7.5411,9.62275 -18.71,22.78503 -26.4464,31.16656 -4.3607,4.72433 -7.9286,9.32179 -7.9286,10.2166 0,0.89481 -1.4562,3.35759 -3.2361,5.47283 -2.449,2.91043 -4.2733,3.84591 -7.5,3.84591 -2.9568,0 -4.2639,-0.57479 -4.2639,-1.875 0,-1.03125 -0.5625,-1.875 -1.25,-1.875 -0.6875,0 -1.25,-1.55442 -1.25,-3.45429 0,-2.5742 2.309,-5.89407 9.0625,-13.03027 12.6431,-13.35949 25.9375,-28.21447 25.9375,-28.98224 0,-0.35424 1.9661,-2.78475 4.369,-5.40114 2.403,-2.61639 4.3717,-5.18381 4.375,-5.70539 0.01,-1.04528 5.6287,-7.73423 9.0685,-10.78941 1.2031,-1.06857 2.1875,-2.47379 2.1875,-3.1227 0,-1.22812 0.794,-2.17344 8.0975,-9.64084 2.4214,-2.4757 4.4025,-5.02646 4.4025,-5.66836 0,-0.64191 1.3947,-2.83509 3.0993,-4.87374 4.6851,-5.60336 14.4007,-20.29493 14.4007,-21.77637 0,-0.71789 0.5625,-1.30525 1.25,-1.30525 0.6875,0 1.2625,-0.98438 1.2778,-2.1875 0.015,-1.20313 1.1278,-3.59375 2.4722,-5.3125 1.3444,-1.71875 2.4569,-3.82813 2.4722,-4.6875 0.015,-0.85938 0.5903,-1.5625 1.2778,-1.5625 0.6875,0 1.25,-0.76789 1.25,-1.70643 0,-0.93853 1.0333,-3.04791 2.2961,-4.6875 1.2629,-1.63958 3.3084,-6.07482 4.5457,-9.85607 1.2372,-3.78125 3.5789,-10.14645 5.2038,-14.14489 1.6249,-3.99845 2.9544,-8.37588 2.9544,-9.72765 0,-1.35177 0.8117,-4.40034 1.8037,-6.7746 2.2148,-5.30066 3.3353,-15.51719 3.7678,-34.35286 0.3269,-14.2365 -0.5619,-21.45551 -3.3858,-27.5 -3.7227,-7.96849 -16.2718,-23.225 -20.9357,-25.45253 -1.0312,-0.49254 -3.2812,-1.70892 -5,-2.70307 -4.2742,-2.47226 -13.3775,-2.28859 -27.5,0.55484 -17.2335,3.4698 -18.0897,3.84245 -35.1026,15.27789 -6.9938,4.70096 -15.1049,12.94868 -13.9097,14.14395 0.3735,0.37341 -0.2038,0.67892 -1.2828,0.67892 -2.0314,0 -9.9621,10.99161 -11.4993,15.9375 -0.4807,1.54687 -1.3987,2.8125 -2.0398,2.8125 -0.6412,0 -1.1658,0.87695 -1.1658,1.94877 0,1.07183 -0.541,1.61442 -1.2022,1.20575 -0.7697,-0.47567 -0.7697,-1.88082 0,-3.90515 0.6612,-1.73917 1.2022,-4.28595 1.2022,-5.65951 0,-5.54976 8.0874,-19.27516 15.9254,-27.02736 4.3443,-4.29687 8.4228,-7.8125 9.0631,-7.8125 0.6403,0 4.3694,-2.61069 8.2869,-5.80154 6.3412,-5.16494 9.1269,-6.45051 18.5996,-8.58345 1.375,-0.3096 3.625,-1.10235 5,-1.76166 3.9182,-1.87878 16.8621,-5.257205 17.8553,-4.660333 0.4921,0.295742 3.1447,0.150537 5.8947,-0.322678 2.9579,-0.50899 7.1697,-0.22316 10.3125,0.699847 2.9219,0.85813 5.3125,1.267588 5.3125,0.909908 0,-0.357682 1.6337,0.512973 3.6305,1.934786 1.9967,1.42182 4.1061,2.58987 4.6875,2.59567 1.8911,0.0189 17.1979,15.5135 21.4038,21.66655 2.2533,3.29639 4.2795,7.56164 4.5026,9.47835 0.2232,1.91671 0.8498,4.2034 1.3926,5.08154 0.5427,0.87813 1.0979,3.63092 1.2337,6.11731 0.1358,2.48639 0.7017,11.90034 1.2574,20.9199 0.8362,13.57186 0.6686,17.45102 -0.9721,22.5 -1.0904,3.35544 -2.674,9.4758 -3.5191,13.6008 -0.845,4.125 -1.9312,8.0625 -2.4137,8.75 -0.4825,0.6875 -1.2821,3.5 -1.7771,6.25 -0.4949,2.75 -1.3387,5.5625 -1.875,6.25 -0.5364,0.6875 -1.6119,3.21875 -2.3899,5.625 -2.8409,8.78621 -14.0573,29.17769 -17.9966,32.71782 -1.2809,1.15107 -2.2556,2.27607 -2.166,2.5 0.2596,0.64937 -1.3177,5.197 -2.6765,7.7164 -1.6274,3.01777 -0.8475,3.64245 2.817,2.25619 3.4396,-1.30116 19.2912,-1.17675 20.6299,0.16193 0.4937,0.49371 1.6837,0.89766 2.6444,0.89766 0.9608,0 4.6784,1.34092 8.2614,2.97984 7.7988,3.56726 15.7365,12.89201 15.9931,18.7878 0.5478,12.5883 -2.1642,26.53146 -10.8402,55.73236 -1.1235,3.78125 -2.5863,9.10285 -3.2507,11.82579 -0.6643,2.72293 -1.6921,5.53543 -2.284,6.25 -0.5919,0.71456 -2.2931,6.33606 -3.7806,12.49221 -2.6663,11.0351 -7.72,27.67954 -9.8852,32.557 -0.6104,1.375 -2.3431,7 -3.8504,12.5 -1.5073,5.5 -3.4656,11.6875 -4.3517,13.75 -0.8861,2.0625 -2.2985,6.28125 -3.1387,9.375 -0.8402,3.09375 -2.5983,7.3789 -3.907,9.52254 -1.3087,2.14365 -2.3794,4.52018 -2.3794,5.2812 0,0.76101 -1.613,4.91336 -3.5845,9.22746 -1.9714,4.31409 -4.837,10.6563 -6.368,14.0938 -4.4881,10.07725 -8.9076,19.0684 -9.8226,19.98347 -0.4675,0.46743 -0.8775,1.22487 -0.9114,1.68319 -0.2444,3.31548 -2.5014,6.78174 -5.0455,7.749 -1.6599,0.6311 -3.018,1.79276 -3.018,2.58145 0,0.96848 0.6672,0.88026 2.0553,-0.27175 1.8399,-1.52696 1.9554,-1.37921 1.1022,1.40944 -0.5243,1.71336 -1.6438,3.95895 -2.4878,4.9902 -0.844,1.03125 -2.7817,4.40625 -4.306,7.5 -1.5243,3.09375 -3.7813,7.3125 -5.0155,9.375 -1.2342,2.0625 -3.5042,6 -5.0445,8.75 -8.9373,15.9563 -16.1261,26.875 -17.6943,26.875 -0.6913,0 -0.9255,0.53625 -0.5205,1.19166 0.6873,1.11194 -1.1245,3.88226 -5.5889,8.54604 -1.0313,1.0773 -1.8889,2.28016 -1.9058,2.67301 -0.017,0.39286 -2.0202,3.80804 -4.4517,7.58929 -2.4315,3.78125 -5.5114,8.84375 -6.8442,11.25 -1.3328,2.40625 -2.8452,4.5625 -3.3608,4.79166 -0.5156,0.22918 -0.9375,0.86415 -0.9375,1.41106 0,1.31685 -8.4166,15.25897 -10.3562,17.15522 -1.1773,1.15088 -2.3131,0.79491 -5.0509,-1.58302 z M 676.90874,562.6063 c -0.90797,-2.86075 0.41307,-8.8563 1.95136,-8.8563 0.599,0 2.23236,-2.241 3.6297,-4.98 1.59844,-3.1332 3.69385,-5.26945 5.6504,-5.76051 1.71039,-0.42928 3.1098,-1.31994 3.1098,-1.97924 0,-0.65929 1.17401,-0.8261 2.60891,-0.37069 3.35139,1.06369 8.5386,-3.70175 5.35794,-4.92229 -2.78451,-1.06851 -2.87329,-0.99681 -2.32043,1.874 0.39053,2.02782 0.13932,2.30954 -1.12427,1.26085 -0.89495,-0.74273 -2.07349,-0.93343 -2.61898,-0.42377 -0.5455,0.50965 -0.40522,-0.20464 0.31173,-1.58734 2.08572,-4.0225 6.27782,-7.22721 8.39246,-6.41575 1.58569,0.60849 1.71129,0.30154 0.67156,-1.64121 -1.78895,-3.34269 -1.59911,-4.19439 0.73525,-3.29861 1.391,0.53377 1.80617,0.23083 1.34185,-0.97915 -0.36978,-0.96363 0.41134,-2.91524 1.73583,-4.3369 1.32447,-1.42168 2.40815,-2.87785 2.40815,-3.23595 0,-0.35812 3.51562,-5.05288 7.8125,-10.43283 4.29687,-5.37995 9.5,-11.93864 11.5625,-14.57487 2.0625,-2.63623 4.3125,-5.44187 5,-6.23474 0.6875,-0.79286 1.88377,-2.54283 2.65839,-3.88879 0.85045,-1.47774 2.70742,-2.42769 4.6875,-2.39794 1.80351,0.0271 3.27911,-0.39477 3.27911,-0.93749 0,-0.54273 -0.84375,-0.98678 -1.875,-0.98678 -2.86165,0 -2.39586,-1.19903 4.6875,-12.06645 3.60937,-5.53758 7.17929,-11.13488 7.93313,-12.43844 8.15011,-14.09327 11.40511,-20.42771 10.80521,-21.02761 -0.39463,-0.39463 -0.13593,-0.7175 0.57489,-0.7175 1.49937,0 11.78375,-27.39304 12.20998,-32.52198 0.0868,-1.04333 0.61094,-2.63042 1.16497,-3.52686 1.35112,-2.18616 1.76566,-16.44804 0.5008,-17.22976 -0.55082,-0.34041 -1.00148,-1.93181 -1.00148,-3.53644 0,-4.25256 -7.6431,-6.29186 -11,-2.93496 -1.16666,1.16666 -1.50425,0.95834 -1.51914,-0.9375 -0.0113,-1.48305 -0.37874,-1.88759 -0.9375,-1.03311 -1.41704,2.16699 -19.69194,11.72587 -22.32822,11.67902 -3.0301,-0.0539 -7.96514,-4.18177 -7.96514,-6.66246 0,-2.7617 2.69505,-8.29595 4.03993,-8.29595 1.52661,0 4.71007,-3.25873 4.71007,-4.82143 0,-0.6875 0.70969,-1.99331 1.57708,-2.90178 0.86739,-0.90849 2.27822,-3.05804 3.13517,-4.77679 2.56488,-5.14424 6.577,-11.60354 10.09353,-16.25 1.82108,-2.40625 3.38321,-4.79688 3.4714,-5.3125 0.0881,-0.51563 0.23063,-1.56888 0.31657,-2.34055 0.10937,-0.98208 0.71884,-0.93615 2.03125,0.15305 2.2685,1.88269 2.49615,-0.0335 0.3125,-2.63036 -1.3685,-1.62748 -2.255,-1.50194 -7.13986,1.01108 -3.06755,1.5781 -5.13377,2.86928 -4.59159,2.86928 0.54216,0 -0.8795,1.54687 -3.15928,3.4375 -2.27977,1.89062 -5.67897,4.98437 -7.55377,6.875 -1.87481,1.89062 -3.72627,3.4375 -4.11438,3.4375 -0.3881,0 -3.43073,2.8125 -6.76142,6.25 -6.15775,6.35521 -10.498,7.8692 -13.6172,4.75 -4.13126,-4.13126 0.72192,-11.33648 15.40241,-22.86698 2.62033,-2.05808 6.31473,-5.29246 8.20976,-7.1875 1.89504,-1.89503 4.05129,-3.44552 4.79168,-3.44552 0.74037,0 1.34615,-0.5625 1.34615,-1.25 0,-0.6875 0.71559,-1.25 1.5902,-1.25 0.8746,0 3.56777,-1.63009 5.98482,-3.62243 5.49769,-4.53166 13.0908,-7.77328 15.78567,-6.73916 1.37186,0.52643 1.75061,0.30295 1.1456,-0.67599 -0.57418,-0.92903 10e-4,-1.46242 1.57838,-1.46242 5.76802,0 7.26739,11.44387 2.5346,19.34529 -1.24517,2.07885 -3.1955,5.60783 -4.33405,7.84221 -1.13853,2.23437 -2.56848,4.0625 -3.17765,4.0625 -0.60916,0 -1.00941,0.42187 -0.88943,0.9375 0.38312,1.64652 -3.0715,7.8125 -4.37712,7.8125 -0.69173,0 -0.88757,0.37012 -0.4352,0.82249 1.23572,1.23571 -1.73647,4.27521 -3.25988,3.33368 -0.77519,-0.47908 -1.04272,-0.0861 -0.64762,0.95128 1.04568,2.74562 -1.22093,7.69792 -3.05025,6.66447 -1.23202,-0.69601 -1.2469,-0.5363 -0.0686,0.73668 1.23181,1.33079 2.47782,1.26695 6.875,-0.35218 9.86532,-3.63261 15.10945,-3.65648 20.60396,-0.0937 4.58986,2.97613 5.02818,3.78578 6.40919,11.83918 1.83275,10.68782 1.88039,15.70465 0.15919,16.7684 -0.72775,0.44977 -0.99914,2.3111 -0.60308,4.13627 1.93504,8.91739 -14.74035,51.07999 -25.7256,65.04548 -1.29145,1.64183 -2.34811,3.43192 -2.34811,3.978 0,1.41749 -15.16223,24.21093 -16.43823,24.71166 -0.58397,0.22918 -1.06177,1.01092 -1.06177,1.7372 0,0.72629 -0.87515,1.96045 -1.94476,2.74258 -1.06963,0.78212 -2.09359,2.436 -2.27548,3.67526 -0.18188,1.23928 -1.13486,2.76213 -2.11772,3.38412 -0.98288,0.62199 -1.32499,1.13952 -0.76025,1.15004 0.56472,0.01 0.28347,0.7943 -0.625,1.74174 -0.90849,0.94742 -4.18304,4.94354 -7.27679,8.88026 -3.09375,3.93673 -7.1286,8.78657 -8.96635,10.77742 -1.83774,1.99084 -2.99812,3.61972 -2.57864,3.61972 0.4195,0 -0.64007,1.54688 -2.3546,3.4375 -1.71452,1.89062 -4.56849,5.40625 -6.34213,7.8125 -5.0811,6.89334 -8.06113,10 -9.5924,10 -0.77873,0 -1.34927,0.42187 -1.26785,0.9375 0.44785,2.83641 -0.34638,4.25386 -2.02303,3.61046 -1.79522,-0.68888 -2.40609,0.51823 -1.96831,3.88954 0.11162,0.85938 -0.38425,1.5625 -1.10189,1.5625 -0.71764,0 -1.3048,0.86931 -1.3048,1.93181 0,6.04305 -12.63726,11.04332 -14.34126,5.67449 z M 710,526.25 c 0,-0.6875 -0.84375,-1.25 -1.875,-1.25 -1.03125,0 -1.875,0.5625 -1.875,1.25 0,0.6875 0.84375,1.25 1.875,1.25 1.03125,0 1.875,-0.5625 1.875,-1.25 z m 8.11615,-13.73569 c 0.43792,-0.70857 -0.0639,-0.91812 -1.17622,-0.49126 -2.16553,0.83099 -2.56174,1.72695 -0.7637,1.72695 0.64692,0 1.5199,-0.55606 1.93992,-1.23569 z M 724.375,507.5 c 0.4249,-0.6875 -0.10437,-1.25 -1.17622,-1.25 -1.07183,0 -1.94878,0.5625 -1.94878,1.25 0,0.6875 0.5293,1.25 1.17622,1.25 0.64693,0 1.52388,-0.5625 1.94878,-1.25 z m 4.375,0 c 0,-0.6875 -0.24805,-1.25 -0.55122,-1.25 -0.30318,0 -0.89888,0.5625 -1.32378,1.25 -0.4249,0.6875 -0.17685,1.25 0.55122,1.25 0.72808,0 1.32378,-0.5625 1.32378,-1.25 z m 0,-6.25 c 0,-0.6875 -0.5957,-1.25 -1.32378,-1.25 -0.72807,0 -0.97612,0.5625 -0.55122,1.25 0.4249,0.6875 1.0206,1.25 1.32378,1.25 0.30317,0 0.55122,-0.5625 0.55122,-1.25 z m 20,-30.13374 c 0,-1.79702 -2.1689,-1.28208 -2.9276,0.69508 -0.46458,1.21065 -0.0944,1.58084 1.11626,1.11626 0.99624,-0.38229 1.81134,-1.19739 1.81134,-1.81134 z m 3.41146,-4.37147 c -0.41536,-0.41536 -1.4935,-0.45977 -2.39584,-0.0986 -0.99716,0.39903 -0.70097,0.69523 0.75522,0.7552 1.3177,0.0542 2.05598,-0.24116 1.64062,-0.65652 z M 753.125,463.75 c 0.4249,-0.6875 0.17685,-1.25 -0.55122,-1.25 -0.72808,0 -1.32378,0.5625 -1.32378,1.25 0,0.6875 0.24805,1.25 0.55122,1.25 0.30318,0 0.89888,-0.5625 1.32378,-1.25 z m -75.86462,74.00622 C 675.41344,535.21574 665.8821,530 663.08651,530 c -2.56724,0 -2.30045,-2.19545 0.35099,-2.88834 1.70737,-0.44618 1.59306,-0.60349 -0.52084,-0.71666 -1.48957,-0.0797 -2.94426,-0.56688 -3.23262,-1.0825 -0.28836,-0.51563 -0.34968,-0.22599 -0.13625,0.64363 0.42159,1.71781 -5.61823,1.19686 -6.94654,-0.59915 -0.39944,-0.54009 -2.1325,-1.17627 -3.85125,-1.41373 -1.71875,-0.23746 -3.3125,-0.94059 -3.54166,-1.5625 -0.22918,-0.62191 -1.4305,-1.13075 -2.66963,-1.13075 -3.23162,0 -8.92002,-3.18453 -7.8323,-4.38475 0.50523,-0.55746 -0.16144,-0.62365 -1.48147,-0.14708 -1.44397,0.52132 -2.80573,0.22719 -3.41837,-0.73833 -1.66245,-2.62003 -1.20335,-3.80319 1.13093,-2.91451 1.68867,0.64288 1.85036,0.49301 0.70902,-0.65725 -1.71178,-1.72517 -5.93816,-0.54573 -4.77698,1.33309 1.23547,1.99904 -1.39705,1.45929 -3.14297,-0.64439 -0.86873,-1.04678 -2.48448,-1.62212 -3.59055,-1.27854 -1.10606,0.34359 -2.85477,0.0644 -3.88602,-0.62053 -1.62209,-1.07726 -1.54771,-1.49492 0.55141,-3.09646 2.90384,-2.2155 1.9791,-2.38109 -2.3308,-0.41737 -2.54357,1.15893 -4.29257,0.98718 -9.12131,-0.89567 -3.28586,-1.28125 -6.25555,-2.37602 -6.5993,-2.43282 -0.34375,-0.0568 -1.92024,-0.54481 -3.50331,-1.08445 -2.4642,-0.84002 -2.64714,-1.28079 -1.27154,-3.06356 1.04624,-1.35593 0.59737,-1.21932 -1.28668,0.39161 -2.70651,2.31414 -2.9716,2.33434 -4.10307,0.3125 -0.66529,-1.18883 -2.31431,-2.16149 -3.66448,-2.16149 -1.35016,0 -3.43158,-0.49688 -4.62538,-1.10416 -4.66975,-2.37552 -13.06054,-5.49929 -15.33604,-5.70939 -0.36601,-0.0337 -2.89726,-0.99814 -5.625,-2.14298 -7.4912,-3.1441 -9.86706,-3.95993 -10.897,-3.74192 C 547.92187,486.1607 547.5,485.6875 547.5,485 c 0,-0.6875 -1.1582,-1.25 -2.57377,-1.25 -1.41558,0 -2.22613,-0.5625 -1.80123,-1.25 0.46065,-0.74535 -1.05327,-1.25 -3.75,-1.25 -3.13468,0 -4.24518,-0.44879 -3.61871,-1.46243 0.60772,-0.98331 0.22237,-1.20092 -1.17624,-0.66422 -1.14403,0.439 -2.08005,0.306 -2.08005,-0.29556 0,-0.60155 -1.21296,-0.77654 -2.69546,-0.38886 -1.83315,0.47938 -2.41223,0.24657 -1.81008,-0.7277 0.574,-0.92877 0.20314,-1.17079 -1.05453,-0.68818 C 525.87296,477.43249 525,477.14479 525,476.38374 525,475.62267 523.81482,475 522.36626,475 c -1.82755,0 -2.41349,-0.57394 -1.91422,-1.875 0.39572,-1.03125 0.17465,-1.875 -0.49127,-1.875 -0.66592,0 -1.21077,0.55044 -1.21077,1.2232 0,0.74824 -1.1982,0.67726 -3.0858,-0.18279 -1.6972,-0.77328 -2.72993,-1.98182 -2.29495,-2.68562 0.47976,-0.77626 -0.0274,-0.96565 -1.2892,-0.48144 C 510.93603,469.56235 510,469.3435 510,468.637 c 0,-0.7065 -0.54321,-0.94882 -1.20713,-0.5385 -0.66392,0.41033 -3.39436,-0.36979 -6.06763,-1.73359 -3.50114,-1.78615 -5.2407,-2.09945 -6.21992,-1.12023 -0.97922,0.97922 -2.6034,0.76911 -5.80737,-0.75128 -2.44638,-1.16089 -4.44795,-2.5471 -4.44795,-3.08048 0,-1.20047 -9.30459,-5.78141 -14.375,-7.07726 -2.0625,-0.52711 -5.4375,-0.82082 -7.5,-0.6527 -2.0625,0.16813 -3.35143,-0.0997 -2.86429,-0.59519 0.48715,-0.49547 -1.85626,-2.31371 -5.20756,-4.04053 -4.44355,-2.2896 -5.88806,-3.67448 -5.33527,-5.115 0.66911,-1.74368 0.52558,-1.76025 -1.22374,-0.14129 -1.08995,1.00872 -1.68123,2.3289 -1.31394,2.93371 0.36729,0.60481 -0.11362,0.81575 -1.0687,0.46875 -0.95507,-0.347 -1.57191,-1.3356 -1.37076,-2.19687 0.23712,-1.01529 -0.53211,-1.33117 -2.1875,-0.89828 -1.40428,0.36723 -2.55324,0.19015 -2.55324,-0.39351 0,-0.58366 -1.26563,-0.8163 -2.8125,-0.51696 -3.92508,0.75953 -10.93691,-1.73485 -10.209,-3.63175 0.38475,-1.00266 -2.7087,-2.62168 -8.81396,-4.61295 -5.17374,-1.68745 -9.40853,-3.48997 -9.41067,-4.00559 -0.002,-0.51563 -1.16207,-0.9375 -2.57764,-0.9375 -1.41558,0 -2.30414,-0.43628 -1.97459,-0.9695 0.32955,-0.53323 -1.69033,-0.93897 -4.48861,-0.90168 -2.79829,0.0373 -5.84311,-0.68747 -6.76626,-1.61062 -0.92315,-0.92315 -2.66694,-1.53149 -3.87511,-1.35185 -3.58409,0.53286 -15.46285,-2.8298 -16.12904,-4.56585 -0.90577,-2.36044 -10.44262,-5.25577 -10.44262,-3.17034 0,0.64045 -0.98438,1.19204 -2.1875,1.22573 -4.63036,0.12966 -6.5625,0.54381 -6.5625,1.40666 0,0.49273 -1.125,1.19006 -2.5,1.54964 -1.375,0.35957 -2.5,1.56424 -2.5,2.67704 0,1.24808 -1.43676,2.31062 -3.75,2.77327 -2.0625,0.4125 -3.75,1.24219 -3.75,1.84375 0,0.60156 -0.8614,1.09375 -1.91423,1.09375 -1.05283,0 -2.23213,0.82845 -2.6207,1.841 -0.38855,1.01255 -2.76151,2.21869 -5.27326,2.6803 -2.51175,0.46163 -4.84806,1.20388 -5.19181,1.64946 -0.76185,0.98757 -35.15198,15.08385 -36.79285,15.08115 -0.64231,-0.001 -3.45481,1.06623 -6.25,2.37173 -2.79518,1.3055 -7.89465,3.24014 -11.33215,4.2992 -9.13201,2.81349 -34.14793,7.36505 -35.5879,6.47509 -0.67949,-0.41994 -2.37466,-0.15384 -3.76706,0.59135 -3.82658,2.04792 -49.53272,2.44257 -61.47262,0.53078 -13.52515,-2.16561 -31.59891,-6.42451 -39.35018,-9.27247 -11.46112,-4.21103 -26.18039,-11.94872 -30.22403,-15.8883 -0.90848,-0.88512 -2.2073,-1.60929 -2.886268,-1.60929 -0.678966,0 -0.886841,-0.5625 -0.461942,-1.25 0.424899,-0.6875 0.197939,-1.25 -0.504355,-1.25 -1.588416,0 -15.285005,-13.43106 -18.139993,-17.78832 -1.649921,-2.51811 -1.753647,-3.35271 -0.480126,-3.86317 1.080608,-0.43315 0.921758,-0.68418 -0.474467,-0.74982 -2.430512,-0.11425 -8.140568,-8.2141 -11.525177,-16.34869 -1.287235,-3.09375 -3.144112,-7.47408 -4.126392,-9.73405 -2.977691,-6.85091 -3.409074,-9.27687 -3.292211,-18.51433 0.0786,-6.21312 0.786961,-9.96066 2.362747,-12.5 3.730818,-6.01214 13.968319,-15.50162 16.723558,-15.50162 1.419779,0 2.581416,-0.47995 2.581416,-1.06656 0,-2.00494 22.90164,-5.66837 34.375,-5.49874 12.9017,0.19075 31.74095,2.88127 46.25,6.6052 5.5,1.41165 12.25,3.10957 15,3.77316 2.75,0.66359 12.03125,3.4189 20.625,6.1229 8.59375,2.704 18.15625,5.61341 21.25,6.46536 3.09375,0.85195 6.1875,1.9335 6.875,2.40345 0.6875,0.46995 2.09375,0.84313 3.125,0.82928 1.85707,-0.025 17.05896,4.62539 21.875,6.69167 4.13218,1.77288 18.42744,6.17428 20.05339,6.17428 0.83352,0 2.16691,0.78491 2.96309,1.74424 0.79617,0.95933 3.53692,2.12007 6.09056,2.57941 3.92634,0.70627 11.45183,3.29715 23.39296,8.05374 1.375,0.54771 6.58382,2.29547 11.57516,3.88391 4.99134,1.58842 9.69633,3.63651 10.45553,4.5513 0.78108,0.94114 2.57958,1.36225 4.1426,0.96996 1.69116,-0.42446 3.39146,0.0649 4.38502,1.26208 0.89254,1.07545 2.64573,1.95536 3.89598,1.95536 1.25023,0 2.61136,0.54721 3.02472,1.21604 0.41335,0.66881 3.03211,1.83012 5.81948,2.58067 4.91202,1.32268 5.00058,1.43909 2.87848,3.78398 -2.78363,3.07588 -3.1435,3.05433 -12.67483,-0.75879 -4.36921,-1.74796 -8.4407,-2.87114 -9.04778,-2.49595 -0.60706,0.37519 -2.04544,0.32081 -3.19636,-0.12088 -1.6869,-0.64732 -1.76936,-1.03123 -0.42531,-1.98016 1.1326,-0.79964 0.57101,-0.93817 -1.75115,-0.432 -2.46347,0.53698 -4.1222,0.0414 -5.9375,-1.7739 -2.55258,-2.55257 -7.06427,-3.56701 -5.64404,-1.26904 0.89662,1.45077 -1.00901,1.69933 -2.39584,0.3125 -0.51562,-0.51562 -1.3125,-0.96967 -1.77082,-1.00901 -3.31668,-0.28459 -14.96795,-4.93117 -14.45323,-5.76401 0.58918,-0.95331 -3.05824,-1.59145 -6.59835,-1.15443 -0.80754,0.0996 -1.82511,-0.39616 -2.26127,-1.1019 -0.43616,-0.70571 -1.91803,-1.28312 -3.29303,-1.28312 -1.57141,0 -2.16872,-0.53603 -1.6081,-1.44314 0.56754,-0.91829 0.34123,-1.10279 -0.62227,-0.50732 -0.8328,0.5147 -2.99975,0.56296 -4.81544,0.10725 -2.5961,-0.65159 -2.91469,-1.07314 -1.49146,-1.97355 1.23213,-0.7795 -0.2661,-1.15108 -4.69388,-1.16412 C 261.28046,382.49974 255,380.52672 255,378.47559 c 0,-0.61773 0.70312,-0.70072 1.5625,-0.18442 1.24475,0.74783 1.2479,0.54993 0.0155,-0.9731 -0.85085,-1.05151 -3.62186,-1.98983 -6.15783,-2.08517 -2.53596,-0.0954 -5.0742,-0.88986 -5.64052,-1.76561 -0.78905,-1.22019 -1.25614,-1.2431 -1.99875,-0.098 -0.71434,1.10143 -2.27509,1.16506 -5.9375,0.24201 -8.56522,-2.1587 -12.36075,-3.2735 -15.7774,-4.634 -1.81992,-0.7247 -3.73824,-0.93166 -4.2629,-0.45994 -0.52466,0.47174 -0.58574,0.21351 -0.13571,-0.57382 0.7783,-1.36167 -2.43708,-3.58099 -4.52856,-3.12572 -2.5748,0.56049 -17.89227,-2.64738 -21.3583,-4.47297 -2.14803,-1.13145 -8.68678,-3.02965 -14.53053,-4.21826 -5.84375,-1.18863 -12.3125,-2.75 -14.375,-3.46974 -8.95373,-3.12451 -32.8141,-6.07519 -46.34929,-5.73175 -26.15013,0.66354 -38.98078,7.54406 -41.15938,22.07201 -0.802776,5.35329 0.92807,17.69983 3.109158,22.17836 0.52219,1.07224 2.156378,4.65457 3.631531,7.96073 1.475152,3.30615 3.231313,6.68115 3.90258,7.5 0.671265,0.81884 3.890572,4.8638 7.154013,8.9888 13.500158,17.06424 21.083698,22.37577 47.211388,33.06706 1.375,0.56264 4.75,1.61128 7.5,2.33031 2.75,0.71903 9.5,2.48601 15,3.92659 6.79751,1.78045 14.90962,2.7476 25.33068,3.02 8.43187,0.2204 15.64168,0.71173 16.0218,1.09185 0.38011,0.38011 2.64126,0.15267 5.02474,-0.50546 2.38351,-0.65811 5.43932,-0.84564 6.79071,-0.41672 1.49411,0.47421 2.45707,0.20242 2.45707,-0.6935 0,-0.98968 1.35349,-1.21944 4.12289,-0.69989 2.26758,0.4254 6.90821,0.24875 10.3125,-0.39255 3.9483,-0.74379 6.34678,-0.72828 6.62367,0.0429 0.25703,0.71582 1.1615,0.6051 2.2177,-0.27146 0.98101,-0.81416 2.08105,-1.1829 2.44455,-0.8194 0.36349,0.36349 3.0966,-0.0721 6.07359,-0.96809 3.98632,-1.19971 5.78061,-1.26105 6.80889,-0.23277 1.02828,1.02823 1.39621,0.83617 1.39621,-0.72884 0,-1.83726 2.14439,-2.7625 5.28742,-2.28139 0.50184,0.0769 3.75704,-0.98156 7.23378,-2.35197 3.47675,-1.3704 7.24076,-2.49164 8.3645,-2.49164 2.3036,0 14.45844,-4.54101 26.6143,-9.94304 4.46875,-1.9859 10.9375,-4.84242 14.375,-6.34785 3.4375,-1.50541 9.625,-4.72469 13.75,-7.15395 4.125,-2.42926 8.20312,-4.42921 9.0625,-4.44434 0.85937,-0.0151 1.5625,-0.49623 1.5625,-1.06916 0,-0.57291 0.84375,-1.04166 1.875,-1.04166 1.03125,0 1.875,-0.5246 1.875,-1.16576 0,-0.64118 1.07213,-1.50605 2.3825,-1.92195 1.35046,-0.42862 2.23221,-1.68341 2.03554,-2.89673 -0.46593,-2.87435 1.59566,-5.27777 3.80115,-4.43145 3.08792,1.18495 7.54883,-0.64902 12.56333,-5.16502 2.66337,-2.3986 5.30935,-4.37414 5.87998,-4.39009 0.57062,-0.016 4.44351,-3.43501 8.60641,-7.59791 4.24883,-4.24883 8.29974,-7.28849 9.23498,-6.9296 0.91632,0.35163 2.05222,0.0145 2.52421,-0.74922 0.51966,-0.84082 0.28891,-1.03672 -0.58496,-0.49663 -3.39211,2.09643 -1.0632,-1.95042 2.95791,-5.13985 2.42058,-1.91994 5.88934,-5.74079 7.70835,-8.49079 1.81902,-2.75 5.35675,-7.53125 7.86163,-10.625 2.50486,-3.09375 5.64548,-7.875 6.97913,-10.625 1.33367,-2.75 2.71963,-5.28125 3.07994,-5.625 1.53534,-1.4648 7.4733,-14.15796 7.50965,-16.05286 0.0219,-1.13968 0.8476,-3.13938 1.83496,-4.44379 0.98736,-1.30441 1.51408,-2.82653 1.17048,-3.38248 -0.34359,-0.55596 0.26876,-3.14496 1.3608,-5.75335 1.84052,-4.39622 2.68542,-8.74447 3.62153,-18.6381 0.20273,-2.14256 0.60314,-4.39256 0.88982,-5 0.76921,-1.62992 0.32582,-16.40788 -0.70822,-23.60442 -1.15596,-8.04511 -4.70815,-19.6857 -10.2089,-33.45475 -2.40703,-6.02513 -4.03113,-11.51346 -3.6091,-12.19634 0.42203,-0.68286 -0.13287,-1.58701 -1.23312,-2.00921 -2.32326,-0.89153 -5.932,-7.27404 -4.76989,-8.43615 0.43363,-0.43363 -0.53061,-2.19244 -2.14273,-3.90848 C 414.63324,201.40404 413.7337,200 414.24639,200 c 0.5127,0 0.0884,-0.84375 -0.94282,-1.875 -1.03124,-1.03125 -2.35639,-1.875 -2.94477,-1.875 -1.16071,0 -5.25666,-6.37066 -4.93238,-7.67159 0.10925,-0.43812 -1.20767,-1.96628 -2.92642,-3.39591 -1.71875,-1.42963 -2.62937,-2.61804 -2.02361,-2.64091 0.60576,-0.0229 -3.47237,-4.47018 -9.0625,-9.8829 -5.59014,-5.41271 -10.16389,-10.45748 -10.16389,-11.21057 0,-2.01921 -13.00495,-11.27713 -23.75,-16.90708 -22.42421,-11.74934 -28.27269,-14.52622 -30.625,-14.54086 -1.375,-0.009 -3.90625,-0.74622 -5.625,-1.63923 -10.1836,-5.29104 -37.34535,-8.05359 -55.625,-5.65747 -4.8125,0.63083 -10.5756,1.26499 -12.8069,1.40924 -2.23129,0.14426 -4.05941,0.63938 -4.0625,1.10029 -0.002,0.4609 -3.80248,1.23234 -8.4431,1.71432 -4.64063,0.48197 -9,1.30554 -9.6875,1.83014 -0.6875,0.52462 -3.21875,1.34622 -5.625,1.82578 -5.9482,1.18548 -12.14244,3.13249 -18.125,5.69716 -2.75,1.1789 -6.21483,2.51988 -7.69961,2.97993 -1.4848,0.46006 -3.3818,1.65845 -4.21557,2.66307 -0.83376,1.00463 -2.30097,1.82659 -3.26047,1.82659 -0.95949,0 -5.53124,2.32781 -10.15944,5.17291 -4.6282,2.8451 -10.60076,6.36073 -13.27235,7.8125 -2.67159,1.45178 -5.68941,3.90522 -6.70626,5.45209 -1.01685,1.54687 -2.48726,2.82451 -3.26756,2.83919 -0.7803,0.0146 -3.02604,2.298 -4.99053,5.07405 -1.96449,2.77603 -3.89151,4.72763 -4.28227,4.33687 -0.39075,-0.39076 -1.8772,0.3753 -3.3032,1.70236 -2.56569,2.38768 -2.62939,2.38342 -6.10562,-0.40812 -4.76805,-3.82893 -3.69803,-7.39435 4.35373,-14.5071 3.48647,-3.07986 8.09856,-7.35566 10.24909,-9.50176 2.15053,-2.14612 8.04406,-6.22737 13.09672,-9.06944 5.05265,-2.84209 10.61289,-6.2893 12.35606,-7.66049 1.74319,-1.37119 3.71168,-2.49306 4.37444,-2.49306 1.20518,0 3.61499,-0.98765 15.33284,-6.28409 3.4375,-1.55374 7.9375,-3.27418 10,-3.82321 2.0625,-0.54903 7.125,-2.18231 11.25,-3.62952 4.125,-1.44721 12.5625,-3.42043 18.75,-4.38494 6.1875,-0.96451 14.34375,-2.29776 18.125,-2.96278 3.78125,-0.66501 8,-1.23269 9.375,-1.2615 26.73416,-0.56019 43.84107,1.45687 58.75,6.92714 2.75,1.00901 6.125,2.13574 7.5,2.50384 9.83378,2.63261 36.78339,18.63077 47.02415,27.91506 8.78597,7.96537 22.35085,21.68232 22.35085,22.60142 0,0.61977 1.55774,2.6786 3.46164,4.5752 1.90391,1.89662 4.24896,4.99525 5.21122,6.88588 0.96228,1.89062 2.44326,3.4375 3.29108,3.4375 0.84782,0 2.1509,1.54687 2.89572,3.4375 1.44936,3.679 2.93255,6.20255 7.20718,12.26252 3.75621,5.32503 9.18316,16.82536 9.18316,19.46015 0,1.20575 0.6253,2.57874 1.38955,3.05108 2.39306,1.47899 7.73764,14.78802 6.1509,15.31694 -0.9031,0.30102 -0.67149,1.0238 0.63396,1.97837 3.24991,2.3764 6.5247,21.21866 4.17903,24.04503 -1.16968,1.40938 -1.05238,1.60035 0.59476,0.96828 2.68001,-1.02841 2.76971,0.18757 1.39072,18.85513 -0.30471,4.125 -0.78356,11.12024 -1.0641,15.54497 -0.33343,5.25889 -1.1647,8.52365 -2.40033,9.42717 -1.38063,1.00953 -1.5582,1.97553 -0.65863,3.58297 0.80901,1.44564 0.80864,2.71446 -0.001,3.69784 C 441.98175,319.03622 435,332.92456 435,334.46099 c 0,1.70638 -2.67329,6.76413 -7.5525,14.28901 -2.00601,3.09375 -4.24267,6.98397 -4.97034,8.64495 -0.72767,1.66097 -2.33083,3.91097 -3.5626,5 -1.23175,1.08902 -2.75706,2.89609 -3.38956,4.01567 -2.71276,4.8019 -14.66516,17.24579 -15.85709,16.50914 -0.7373,-0.45567 -0.93335,-0.20601 -0.45104,0.57439 0.47192,0.76357 -0.41927,2.05825 -1.99436,2.89731 -3.29378,1.75463 -5.99906,5.0543 -5.20166,6.34454 0.30205,0.48871 -0.63608,1.5229 -2.08473,2.29819 -2.66793,1.42784 -4.49978,2.8487 -11.61398,9.00835 -2.17093,1.87964 -4.65027,3.42651 -5.50964,3.4375 -0.85938,0.0113 -1.5625,0.80892 -1.5625,1.77321 0,1.09825 3.38564,2.74804 9.0625,4.41606 4.98437,1.46455 10.35459,3.20684 11.93381,3.87175 1.57923,0.66491 3.90098,1.20894 5.15945,1.20894 1.25846,0 2.98324,0.83756 3.83281,1.86124 0.84959,1.02367 1.99114,1.58531 2.53681,1.24807 1.3776,-0.8514 14.97462,4.47764 14.97462,5.86897 0,0.62222 0.70312,1.00052 1.5625,0.84067 0.85937,-0.15985 3.35852,0.13439 5.55366,0.65386 2.74585,0.64979 3.77669,1.50343 3.30378,2.73584 -0.83355,2.17219 0.0985,2.26941 3.19823,0.33359 1.90689,-1.19088 2.96449,-0.96201 5.77662,1.25 1.8933,1.48927 4.80595,2.70776 6.47256,2.70776 1.6666,0 2.71897,0.50356 2.3386,1.11903 -0.75435,1.22055 2.99151,3.10017 4.05629,2.0354 0.35993,-0.35994 -0.0956,-0.65443 -1.01224,-0.65443 -0.91666,0 -1.37217,-0.29449 -1.01224,-0.65443 1.16661,-1.16662 4.77343,0.87505 3.93693,2.22854 -0.44603,0.72169 -0.24475,0.96223 0.4473,0.53451 0.69204,-0.4277 3.42914,0.32914 6.08244,1.68187 2.65329,1.35273 6.11148,2.45951 7.68487,2.45951 1.57339,0 2.8607,0.48844 2.8607,1.08541 0,0.59698 2.18385,1.37833 4.853,1.73634 2.66915,0.35801 6.46602,1.54122 8.4375,2.62936 8.31621,4.59006 22.15499,10.88804 25.33436,11.52959 0.96243,0.1942 2.22805,1.09361 2.8125,1.9987 0.85568,1.3251 1.26315,1.33554 2.09217,0.0535 0.78833,-1.21906 1.56584,-0.99944 3.31873,0.9375 1.297,1.43316 3.86256,2.52954 5.91924,2.52954 1.99652,0 3.31482,0.51003 2.92955,1.13342 -0.38528,0.62339 0.51324,0.81603 1.99669,0.4281 1.84823,-0.48332 2.41572,-0.24991 1.80295,0.74158 -0.60284,0.97542 0.35175,1.4469 2.92954,1.4469 2.10307,0 3.82377,0.55179 3.82377,1.22619 0,1.01572 1.962,1.85436 7.5,3.20578 4.97647,1.21439 10.7355,5.56803 7.36544,5.56803 -0.84266,0 -1.1707,0.36141 -0.72898,0.80312 0.44171,0.44173 1.70334,0.056 2.8036,-0.85712 1.67158,-1.38729 2.18718,-1.36519 3.13607,0.13437 0.62457,0.98705 1.14421,1.28558 1.15473,0.66339 0.01,-0.62217 1.14414,-0.11312 2.51914,1.13124 1.375,1.24436 2.5,2.98584 2.5,3.86996 0,0.88413 0.51004,1.92271 1.13342,2.30799 0.62339,0.38527 0.85564,-0.36179 0.51611,-1.66015 -0.64642,-2.4719 2.24426,-5.33645 3.02413,-2.99681 0.24542,0.73623 1.48075,1.06807 2.7452,0.73741 1.26444,-0.33065 2.67693,0.01 3.13884,0.7577 0.46191,0.7474 2.2129,1.3589 3.89108,1.3589 1.67817,0 3.05122,0.5625 3.05122,1.25 0,0.6875 1.125,1.25 2.5,1.25 1.375,0 2.35937,0.70312 2.1875,1.5625 -0.1905,0.9525 1.15149,1.61005 3.4375,1.68429 7.81859,0.25391 9.06991,0.57037 11.875,3.00321 1.58539,1.375 4.06656,2.5 5.51371,2.5 1.44715,0 5.27282,1.40625 8.50148,3.125 3.22866,1.71875 7.03871,3.125 8.46679,3.125 1.42806,0 2.86775,0.70312 3.1993,1.5625 0.33155,0.85937 2.2902,1.62277 4.35255,1.69645 2.06235,0.0736 4.83173,1.11315 6.15418,2.30995 1.32245,1.1968 2.96354,1.83047 3.64685,1.40816 0.68332,-0.42231 1.61942,-0.15782 2.0802,0.58776 0.4608,0.74559 1.62467,1.05367 2.58638,0.68463 0.96171,-0.36905 1.74856,-0.093 1.74856,0.61355 0,0.7065 0.56648,0.93444 1.25883,0.50654 0.69236,-0.42789 1.56031,0.008 1.9288,0.9679 0.6554,1.70797 2.16041,2.16973 7.6577,2.34953 1.80648,0.0591 2.4934,0.68032 2.04482,1.8493 -0.54649,1.4241 -0.0404,1.51885 2.64988,0.49603 2.59186,-0.98541 4.07092,-0.79038 6.70518,0.88419 1.85889,1.18167 3.8561,2.91243 4.43825,3.84615 0.67837,1.08802 2.18015,1.41613 4.18207,0.91368 1.82227,-0.45736 3.9549,-0.11062 5.11898,0.83235 1.29005,1.04498 1.68225,1.09424 1.10953,0.13935 -1.11914,-1.86584 3.77195,-5.39796 7.47486,-5.39796 1.67465,0 3.07849,0.99519 3.56467,2.52702 0.83749,2.63868 -1.74566,9.97298 -3.51248,9.97298 -0.56025,0 -0.71038,0.49876 -0.33363,1.10836 1.08389,1.75376 -2.47276,4.01011 -7.25628,4.60341 -3.2217,0.3996 -4.81939,-0.053 -6.0208,-1.70555 z m 3.65108,-4.76143 c -0.41536,-0.41536 -1.4935,-0.45977 -2.39583,-0.0986 -0.99717,0.39903 -0.70098,0.69523 0.75521,0.7552 1.3177,0.0543 2.05598,-0.24116 1.64062,-0.65652 z M 673.75,531.25 c 0,-0.6875 -0.5957,-1.25 -1.32378,-1.25 -0.72807,0 -0.97612,0.5625 -0.55122,1.25 0.4249,0.6875 1.0206,1.25 1.32378,1.25 0.30317,0 0.55122,-0.5625 0.55122,-1.25 z M 571.875,490 c -1.24436,-1.375 -2.82386,-2.5 -3.51,-2.5 -0.68614,0 0.0496,1.125 1.635,2.5 1.58539,1.375 3.16489,2.5 3.51,2.5 0.34511,0 -0.39064,-1.125 -1.635,-2.5 z M 426.58629,431.68007 c -0.84629,-0.34239 -2.53379,-0.36323 -3.75,-0.0464 -1.21621,0.31692 -0.52379,0.59707 1.53871,0.62255 2.0625,0.0255 3.05757,-0.23382 2.21129,-0.57624 z m -20.67483,-6.18528 c -0.41536,-0.41536 -1.4935,-0.45977 -2.39584,-0.0986 -0.99716,0.39903 -0.70097,0.69523 0.75522,0.7552 1.3177,0.0542 2.05598,-0.24116 1.64062,-0.65652 z M 348.125,420 c 0.4249,-0.6875 0.17685,-1.25 -0.55123,-1.25 -0.72807,0 -1.32377,0.5625 -1.32377,1.25 0,0.6875 0.24805,1.25 0.55123,1.25 0.30317,0 0.89887,-0.5625 1.32377,-1.25 z m 31.00061,-4.57415 c -0.3537,-0.92171 -1.20559,-1.67585 -1.89309,-1.67585 -0.6875,0 -0.90856,0.88975 -0.49126,1.97724 0.41731,1.08747 0.76735,2.63435 0.77788,3.4375 0.0113,0.89593 0.45011,0.77947 1.13435,-0.30139 0.61336,-0.9689 0.82582,-2.51578 0.47212,-3.4375 z M 370,406.94877 c 0,-0.30317 -0.5625,-0.89887 -1.25,-1.32377 -0.6875,-0.4249 -1.25,-0.17685 -1.25,0.55123 0,0.72807 0.5625,1.32377 1.25,1.32377 0.6875,0 1.25,-0.24805 1.25,-0.55123 z M 236.25,371.25 c 0,-0.6875 -0.5957,-1.25 -1.32378,-1.25 -0.72807,0 -0.97612,0.5625 -0.55122,1.25 0.4249,0.6875 1.0206,1.25 1.32377,1.25 0.30318,0 0.55123,-0.5625 0.55123,-1.25 z m 599.22821,29.6432 c -7.08742,-4.06536 -11.91709,-9.82386 -13.61766,-16.23659 -2.47986,-9.35132 -1.48583,-28.31017 1.94816,-37.15661 1.46779,-3.78125 2.67051,-7.71875 2.67271,-8.75 0.009,-3.94128 11.24663,-24.80584 15.39383,-28.57969 2.36946,-2.15617 4.67901,-3.92031 5.13231,-3.92031 0.45331,0 1.8501,-1.18288 3.10399,-2.62863 4.14296,-4.77687 16.13845,-7.20111 16.13845,-3.26151 0,0.72506 0.9035,2.31664 2.00778,3.53685 1.76926,1.95501 1.81187,3.00618 0.35868,8.84843 -1.37596,5.5318 -4.60743,12.00261 -7.36845,14.75486 -0.34485,0.34375 -1.46985,2.26481 -2.5,4.26904 -1.71358,3.33387 -6.67016,8.78735 -11.85893,13.0478 -1.13327,0.93051 -3.47251,1.42191 -5.1983,1.09201 -1.96418,-0.37548 -3.38477,0.0436 -3.79804,1.12066 -0.36311,0.94626 -1.43306,1.72049 -2.37766,1.72049 -0.94459,0 -2.01617,1.26562 -2.38127,2.8125 -1.3982,5.92393 -2.7817,19.13714 -2.17107,20.735 0.60134,1.57354 1.00811,4.28844 1.37773,9.1953 0.33099,4.39405 5.51349,8.55362 10.78453,8.65586 5.98432,0.11613 7.09524,-0.15923 14.41836,-3.57331 8.48988,-3.95803 11.77315,-4.53006 13.57053,-2.36436 1.25515,1.51237 1.14085,2.50129 -0.59539,5.15111 -2.25116,3.43573 -9.93913,9.06245 -15.88981,11.62959 -4.47389,1.93004 -15.7148,1.87222 -19.15048,-0.0985 z M 843.75,343.54166 c 0,-0.57291 -1.1582,-1.04166 -2.57378,-1.04166 -1.41557,0 -2.28406,0.46875 -1.92998,1.04166 0.35408,0.57293 1.51228,1.04168 2.57377,1.04168 1.0615,0 1.92999,-0.46875 1.92999,-1.04168 z m -0.57033,-10.37724 c 1.81879,-2.38456 3.88208,-4.21268 4.58507,-4.0625 0.703,0.15019 1.45099,-0.76063 1.6622,-2.02406 0.21122,-1.26342 1.19099,-3.23217 2.17726,-4.375 2.26442,-2.62386 3.49357,-7.49489 2.10741,-8.35159 -0.57952,-0.35816 -2.87836,1.61938 -5.10854,4.39453 -2.91566,3.62814 -4.34258,4.60091 -5.07897,3.46246 -1.52706,-2.36085 -3.29614,0.92074 -2.56321,4.75473 0.32081,1.67826 0.0419,3.75127 -0.61975,4.6067 -1.92642,2.49047 -2.86348,5.93031 -1.61553,5.93031 0.63094,0 2.63526,-1.95101 4.45406,-4.33558 z M 636.5702,391.20731 c -7.17083,-1.57115 -7.72126,-2.6869 -5.68141,-11.51652 0.98922,-4.28198 2.36736,-8.47074 3.06252,-9.30835 0.69515,-0.83762 0.92506,-2.0712 0.51091,-2.74132 -0.41415,-0.67011 -0.25848,-1.52401 0.34592,-1.89755 0.60441,-0.37355 1.78725,-3.13761 2.62852,-6.14236 1.3738,-4.90672 1.86873,-5.41657 4.85898,-5.00547 3.16863,0.43561 3.19358,0.39802 0.51686,-0.77874 -3.16028,-1.38933 -3.4708,-3.29791 -1.37043,-8.42313 1.87514,-4.57565 2.34953,-6.4247 2.89282,-11.2757 0.62442,-5.57533 1.52417,-6.61817 5.71006,-6.61817 5.49162,0 8.18097,4.68999 6.0572,10.56319 -0.8824,2.44025 -2.08706,4.43681 -2.67704,4.43681 -0.58996,0 -0.72501,0.5625 -0.30011,1.25 1.41632,2.29166 2.45934,1.30949 8.62974,-8.12634 3.37135,-5.15551 6.60572,-9.37366 7.1875,-9.37366 0.58176,0 1.05776,-0.58948 1.05776,-1.30996 0,-0.72048 1.54687,-2.67145 3.4375,-4.33549 4.5899,-4.03984 10.07046,-4.02095 13.56575,0.0467 2.40307,2.79664 2.66754,4.37932 2.34981,14.0625 -0.19691,6.00115 -0.97154,13.44244 -1.7214,16.53619 -1.42229,5.86802 -2.35385,11.53587 -2.52887,15.38627 -0.0611,1.34454 -0.67363,1.90848 -1.51085,1.39104 -1.01242,-0.62571 -1.05365,-0.23691 -0.14675,1.38362 0.77222,1.37989 0.84439,3.70768 0.1861,6.003 -0.59139,2.06203 -0.75723,5.01623 -0.36854,6.5649 0.52472,2.09067 -0.0457,3.23004 -2.21551,4.42458 -6.52283,3.59111 -12.96419,-1.29583 -10.77805,-8.1771 0.67295,-2.11823 1.40331,-4.97631 1.62301,-6.35131 0.21971,-1.375 0.49321,-2.5 0.6078,-2.5 0.11462,0 0.37271,-1.125 0.57361,-2.5 0.20091,-1.375 1.05303,-6.15625 1.89359,-10.625 2.34999,-12.49342 2.54825,-20.9766 0.50855,-21.75932 -0.98489,-0.37792 -1.72575,0.12587 -1.72575,1.17354 0,1.00968 -0.84375,1.83578 -1.875,1.83578 -1.03125,0 -1.875,0.45643 -1.875,1.0143 0,0.55786 -1.25233,2.35851 -2.78294,4.00143 -1.53062,1.64293 -2.9673,4.36374 -3.19261,6.04625 -0.22533,1.68252 -1.94659,5.36624 -3.82505,8.18607 -1.87845,2.81982 -4.5199,7.37695 -5.86989,10.12695 -1.34997,2.75 -3.52495,5.98437 -4.83327,7.1875 -1.30833,1.20312 -1.94257,2.1875 -1.40944,2.1875 0.53311,0 0.34281,0.75487 -0.4229,1.67751 -0.76571,0.92262 -1.02209,2.04762 -0.56973,2.5 0.45238,0.45236 0.19173,0.82249 -0.5792,0.82249 -0.77092,0 -1.76727,1.94871 -2.21408,4.33046 -1.03659,5.52547 -2.69249,6.73074 -7.73069,5.62685 z M 652.5,360.75874 c 0,-1.18579 -3.74172,-1.7834 -4.40874,-0.70415 -0.40635,0.65747 0.41939,1.19541 1.83496,1.19541 1.41558,0 2.57378,-0.22107 2.57378,-0.49126 z M 643.75,358.75 c 0,-0.6875 -0.24805,-1.25 -0.55122,-1.25 -0.30318,0 -0.89888,0.5625 -1.32378,1.25 -0.4249,0.6875 -0.17685,1.25 0.55122,1.25 0.72808,0 1.32378,-0.5625 1.32378,-1.25 z m 13.125,-11.25 c 0.4249,-0.6875 0.17685,-1.25 -0.55122,-1.25 -0.72808,0 -1.32378,0.5625 -1.32378,1.25 0,0.6875 0.24805,1.25 0.55122,1.25 0.30318,0 0.89888,-0.5625 1.32378,-1.25 z m 13.75,-12.61351 c 2.28164,-1.08405 2.24571,-1.13894 -0.41124,-0.62835 -2.24802,0.432 -2.73985,0.11275 -2.15888,-1.40115 0.62336,-1.62443 0.42832,-1.69168 -1.13751,-0.39216 -1.03941,0.86264 -1.5816,2.06721 -1.20483,2.67681 0.827,1.33812 1.6489,1.29542 4.91246,-0.25515 z m 8.4375,-5.71434 c -0.85938,-0.34676 -2.26563,-0.34676 -3.125,0 -0.85938,0.34676 -0.15625,0.63049 1.5625,0.63049 1.71875,0 2.42187,-0.28373 1.5625,-0.63049 z m -88.4375,61.24341 c -9.81305,-2.13702 -18.03631,-12.22831 -16.13566,-19.80108 0.77744,-3.09757 -1.05657,-4.385 -2.62694,-1.84409 -0.43182,0.69871 -1.40436,0.88769 -2.1612,0.41995 -0.87407,-0.54021 -1.09642,-0.12175 -0.60952,1.14707 0.52403,1.36564 -1.67022,4.40423 -6.9365,9.60564 -8.53338,8.42823 -14.72222,11.11189 -20.0389,8.68944 -7.80819,-3.55764 -7.02564,-14.60307 2.42675,-34.25314 2.31383,-4.81011 4.20697,-9.45074 4.20697,-10.3125 0,-0.86176 0.52609,-1.56685 1.16909,-1.56685 0.643,0 1.881,-1.96875 2.75111,-4.375 0.87011,-2.40625 1.99361,-4.375 2.49668,-4.375 0.50306,0 1.30636,-1.26563 1.7851,-2.8125 1.06087,-3.42779 16.30057,-18.30654 20.3169,-19.8357 4.64998,-1.77041 8.42903,-1.2837 10.85612,1.3982 1.24436,1.375 2.89368,2.5 3.66516,2.5 2.09533,0 9.45984,7.0941 9.45984,9.11249 0,2.63086 -3.75529,9.63751 -5.16532,9.63751 -0.67773,0 -0.8822,0.56634 -0.4544,1.25853 0.4278,0.6922 -0.28109,2.80157 -1.5753,4.6875 -2.75492,4.01449 -6.83365,16.34179 -5.90447,17.84526 0.35215,0.56978 0.0594,1.39495 -0.65051,1.83371 -0.70992,0.43876 -0.99117,1.28251 -0.625,1.875 0.36618,0.59249 0.15469,1.39313 -0.46999,1.7792 -1.87503,1.15884 -0.27131,11.16005 2.18313,13.6145 2.95481,2.9548 10.38516,4.5987 17.07997,3.7788 5.63448,-0.69005 7.4808,0.56375 6.30154,4.27927 -0.87221,2.74812 -4.00424,4.72282 -9.35456,5.89796 -3.32939,0.73124 -3.98193,0.57313 -3.21309,-0.77857 0.77798,-1.36777 0.63885,-1.39365 -0.71862,-0.13366 -1.69415,1.5725 -3.45165,1.73129 -8.05838,0.72806 z m -34.33969,-18.51873 c 0.66808,0.41288 1.21469,-0.12623 1.21469,-1.19806 0,-1.08353 1.05801,-1.94877 2.38297,-1.94877 1.69688,0 2.21013,-0.66098 1.78264,-2.29571 -0.39449,-1.50849 0.50293,-3.01862 2.61703,-4.40383 1.76955,-1.15945 3.21736,-2.70952 3.21736,-3.44461 0,-2.18124 4.5842,-7.34694 5.65821,-6.37596 0.54456,0.49231 0.63689,-0.0892 0.20518,-1.29239 -0.43172,-1.20313 -0.24008,-2.1875 0.42583,-2.1875 0.66593,0 1.21078,-0.84375 1.21078,-1.875 0,-1.03125 0.50142,-1.875 1.11427,-1.875 0.61285,0 2.01455,-2.25 3.11488,-5 1.10034,-2.75 2.62784,-5 3.39446,-5 0.76663,0 1.05011,-0.8958 0.62996,-1.99068 -0.50511,-1.31629 0.0589,-2.20582 1.66475,-2.62577 2.25488,-0.58967 2.18953,-0.84078 -0.91352,-3.50991 l -3.34216,-2.8748 -4.70632,2.40099 c -2.58847,1.32053 -4.70632,2.86991 -4.70632,3.44304 0,0.57314 -1.26563,2.44134 -2.8125,4.15155 -1.54688,1.71022 -4.207,5.72986 -5.91139,8.93253 -1.7044,3.20268 -3.4214,5.82305 -3.81557,5.82305 -0.39418,0 -1.72804,2.8125 -2.96415,6.25 -1.3083,3.63828 -3.01373,6.25 -4.08117,6.25 -1.26485,0 -1.58755,0.77554 -1.04022,2.5 0.43641,1.375 0.33369,2.50112 -0.22826,2.5025 -0.56196,10e-4 -1.16738,2.03811 -1.34537,4.52606 l -0.32362,4.52355 3.17143,-2.07801 c 1.74428,-1.1429 3.71805,-1.74018 4.38613,-1.32728 z M 488.75,382.5 c -1.71875,-1.34443 -3.70759,-2.45691 -4.41964,-2.4722 -0.71206,-0.0153 -1.3669,-1.01217 -1.4552,-2.2153 -0.25227,-3.43736 -0.40905,-7.0203 -0.39652,-9.0625 0.006,-1.03125 -0.23581,-3.84375 -0.53807,-6.25 -0.30225,-2.40625 0.0828,-6.625 0.8555,-9.375 1.7865,-6.3574 1.50652,-5.34462 3.28293,-11.875 2.55957,-9.4094 14.78528,-32.49084 17.21271,-32.49663 1.42627,-0.004 3.24845,4.01708 3.39768,7.49663 0.10975,2.55792 -3.23074,11.25 -4.32348,11.25 -0.48502,0 -0.58767,1.125 -0.2281,2.5 0.46168,1.76546 0.0384,2.5 -1.4408,2.5 -1.152,0 -1.81047,0.45966 -1.46325,1.02146 0.34722,0.56181 -0.16195,3.32386 -1.13146,6.1379 -2.39367,6.94769 -3.21954,10.95363 -3.99077,19.35759 -0.89248,9.72515 0.14823,13.48206 3.55306,12.82635 3.29954,-0.63543 7.33541,1.41651 7.33541,3.72952 0,2.73892 -7.40962,9.43007 -10.40865,9.39938 -1.494,-0.0153 -4.1226,-1.12778 -5.84135,-2.4722 z m 743.0214,-7.66764 c -0.3679,-0.5953 -1.6966,-1.08236 -2.9527,-1.08236 -1.3687,0 -3.0923,-1.70363 -4.3013,-4.25141 -2.5274,-5.32614 -2.5415,-5.1268 0.6202,-8.76312 3.2245,-3.70845 7.3946,-4.88661 11.6157,-3.28172 3.9492,1.50147 5.0912,5.69632 3.3307,12.23447 -1.0424,3.87097 -2.0747,5.16193 -4.4983,5.62523 -1.7299,0.3307 -3.4464,0.11425 -3.8143,-0.48109 z"
     id="path3346"
     inkscape:connector-curvature="0" />
</svg>
