<?xml version="1.0" encoding="UTF-8" standalone="no"?>
<!-- Created with Inkscape (http://www.inkscape.org/) -->

<svg
   xmlns:dc="http://purl.org/dc/elements/1.1/"
   xmlns:cc="http://creativecommons.org/ns#"
   xmlns:rdf="http://www.w3.org/1999/02/22-rdf-syntax-ns#"
   xmlns:svg="http://www.w3.org/2000/svg"
   xmlns="http://www.w3.org/2000/svg"
   xmlns:xlink="http://www.w3.org/1999/xlink"
   xmlns:sodipodi="http://sodipodi.sourceforge.net/DTD/sodipodi-0.dtd"
   xmlns:inkscape="http://www.inkscape.org/namespaces/inkscape"
   id="svg3336"
   version="1.1"
   inkscape:version="0.91 r13725"
   width="1311.25"
   height="702.5"
   viewBox="0 0 1311.25 702.5"
   sodipodi:docname="signatureheadertransparentscaled.svg">
  <metadata
     id="metadata3342">
    <rdf:RDF>
      <cc:Work
         rdf:about="">
        <dc:format>image/svg+xml</dc:format>
        <dc:type
           rdf:resource="http://purl.org/dc/dcmitype/StillImage" />
        <dc:title></dc:title>
      </cc:Work>
    </rdf:RDF>
  </metadata>
  <defs
     id="defs3340" />
  <sodipodi:namedview
     pagecolor="#ffffff"
     bordercolor="#666666"
     borderopacity="1"
     objecttolerance="10"
     gridtolerance="10"
     guidetolerance="10"
     inkscape:pageopacity="0"
     inkscape:pageshadow="2"
     inkscape:window-width="1366"
     inkscape:window-height="705"
     id="namedview3338"
     showgrid="false"
     fit-margin-top="0"
     fit-margin-left="0"
     fit-margin-right="0"
     fit-margin-bottom="0"
     inkscape:zoom="0.76298932"
     inkscape:cx="655.625"
     inkscape:cy="390.34814"
     inkscape:window-x="-8"
     inkscape:window-y="-8"
     inkscape:window-maximized="1"
     inkscape:current-layer="svg3336" />
  <image
     sodipodi:absref="C:\Users\qianz_000\Desktop\blog\signatureheadertransparent.png"
     xlink:href="signatureheadertransparent.png"
     y="217.79337"
     x="406.52179"
     id="image3344"
     preserveAspectRatio="none"
     height="266.9133"
     width="498.20645" />
  <path
     style="fill:#000000"
     d="m 808.16182,458.78468 c -1.12162,-0.97415 -1.28978,-1.40354 -1.02384,-2.61427 0.59762,-2.72107 2.40728,-5.41929 6.00211,-8.94926 1.21626,-1.19433 2.55225,-2.9222 2.96883,-3.83962 0.41659,-0.91742 1.50113,-2.52034 2.41008,-3.56202 0.90894,-1.04166 1.65673,-2.12111 1.66174,-2.39876 0.006,-0.27763 0.65026,-1.11907 1.43393,-1.86982 0.78364,-0.75082 1.42482,-1.5457 1.42482,-1.76648 0,-0.22081 1.01516,-1.91105 2.25591,-3.75614 3.078,-4.57724 4.22089,-6.46756 5.3754,-8.89101 1.03762,-2.17813 3.75827,-6.79312 4.24218,-7.19593 0.15673,-0.13065 0.80875,-1.46272 1.44863,-2.96023 0.66683,-1.56067 1.46743,-2.72936 1.87578,-2.73815 0.63324,-0.0144 0.63324,-0.0683 0,-0.49172 -0.6247,-0.4177 -0.61464,-0.53413 0.0813,-0.94545 0.43672,-0.25798 0.94083,-1.16237 1.12024,-2.00975 0.1795,-0.84742 0.7166,-2.28873 1.19374,-3.20299 0.47713,-0.91428 1.23024,-2.51717 1.67363,-3.56202 0.44331,-1.04485 1.18991,-2.75462 1.65904,-3.79948 0.46916,-1.04487 1.12055,-2.86148 1.44756,-4.03694 0.32698,-1.17547 0.62684,-2.24406 0.66632,-2.37469 0.0394,-0.13063 0.22999,-0.87862 0.42368,-1.66224 0.1935,-0.78366 0.63473,-2.17283 0.98041,-3.0871 0.34572,-0.91427 1.00119,-3.05146 1.45663,-4.74934 0.45545,-1.69788 1.53582,-5.11741 2.40091,-7.59897 1.56578,-4.49172 2.85777,-9.28788 5.18136,-19.23484 0.67124,-2.87334 1.35324,-5.75857 1.51555,-6.41161 1.59756,-6.42702 1.98633,-11.52375 1.07073,-14.03731 -0.50046,-1.37386 -3.54564,-3.58128 -5.60284,-4.06147 -3.04795,-0.71143 -7.94961,-0.59048 -9.60847,0.237 -0.84238,0.4202 -1.78608,0.76406 -2.09705,0.76406 -0.608,0 -4.51289,3.75462 -4.51289,4.33925 0,0.19375 -0.85491,1.34005 -1.89976,2.5473 -1.04485,1.20723 -1.89972,2.34806 -1.89972,2.53519 0,0.18697 -0.58777,0.98735 -1.30609,1.77832 -0.71833,0.79097 -1.94722,2.25628 -2.73087,3.25624 -2.86525,3.65613 -7.10882,8.65712 -10.04826,11.84165 -1.65682,1.79498 -3.01243,3.54177 -3.01243,3.88177 0,0.33998 -0.55329,1.27572 -1.22956,2.07938 -0.93049,1.10582 -1.62361,1.46127 -2.84962,1.46127 -1.12345,0 -1.62005,-0.2184 -1.62005,-0.71242 0,-0.3918 -0.21379,-0.7124 -0.47492,-0.7124 -0.26123,0 -0.47493,-0.59059 -0.47493,-1.31244 0,-0.97805 0.87728,-2.23946 3.44326,-4.95084 4.80371,-5.07589 9.85489,-10.72001 9.85489,-11.01173 0,-0.13465 0.74701,-1.05805 1.65999,-2.05216 0.913,-0.99406 1.66102,-1.96957 1.66226,-2.16772 0.003,-0.39717 2.13861,-2.93864 3.44558,-4.09943 0.4571,-0.40601 0.83115,-0.93991 0.83115,-1.18645 0,-0.46665 0.30166,-0.82581 3.07661,-3.663 0.91998,-0.94064 1.67271,-1.90981 1.67271,-2.1537 0,-0.24392 0.5299,-1.07721 1.17758,-1.85177 1.78008,-2.12899 5.47151,-7.71099 5.47151,-8.27388 0,-0.27278 0.21381,-0.49593 0.47493,-0.49593 0.26123,0 0.47969,-0.37403 0.4855,-0.83113 0.006,-0.45714 0.4285,-1.36543 0.93931,-2.01849 0.5108,-0.65304 0.93348,-1.45447 0.9393,-1.781 0.006,-0.32651 0.22418,-0.59365 0.48551,-0.59365 0.26121,0 0.47494,-0.29176 0.47494,-0.64837 0,-0.35659 0.39259,-1.15805 0.8724,-1.78101 0.47981,-0.62295 1.257,-2.30811 1.72713,-3.74478 0.47004,-1.43667 1.35978,-3.8551 1.97715,-5.3743 0.61739,-1.51923 1.12253,-3.18241 1.12253,-3.69603 0,-0.51359 0.30841,-1.6719 0.68531,-2.57398 0.84149,-2.01399 1.26722,-5.89573 1.43157,-13.05231 0.12425,-5.40912 -0.21356,-8.15193 -1.28642,-10.44856 -1.41445,-3.02759 -6.18244,-8.82429 -7.95447,-9.67063 -0.39182,-0.18723 -1.24672,-0.64929 -1.89976,-1.02701 -1.62396,-0.93932 -5.08273,-0.86954 -10.44856,0.21089 -6.54784,1.31835 -6.87313,1.45994 -13.33714,5.80481 -2.65727,1.78613 -5.73909,4.91983 -5.28497,5.37396 0.14201,0.14201 -0.0774,0.25795 -0.4874,0.25795 -0.77184,0 -3.78507,4.17625 -4.36913,6.05543 -0.18264,0.58773 -0.53143,1.0686 -0.77501,1.0686 -0.24363,0 -0.44295,0.33318 -0.44295,0.74043 0,0.40723 -0.20559,0.61339 -0.45677,0.45811 -0.29245,-0.1807 -0.29245,-0.71461 0,-1.48375 0.25119,-0.66079 0.45677,-1.62842 0.45677,-2.15032 0,-2.10863 3.07279,-7.32354 6.05081,-10.26896 1.65063,-1.63261 3.20024,-2.96836 3.44351,-2.96836 0.24329,0 1.66014,-0.99192 3.1486,-2.20426 2.40931,-1.96241 3.46775,-2.4509 7.06686,-3.26129 0.52243,-0.11768 1.37731,-0.41885 1.89976,-0.66932 1.48869,-0.71385 6.40671,-1.99746 6.78407,-1.77072 0.18698,0.11239 1.19481,0.0573 2.23967,-0.12247 1.12385,-0.1935 2.72412,-0.0849 3.91821,0.2659 1.11017,0.32605 2.01848,0.48164 2.01848,0.34571 0,-0.13592 0.62071,0.19497 1.37939,0.73513 0.75865,0.54024 1.56011,0.98403 1.78101,0.98621 0.71853,0.009 6.5343,5.89433 8.13232,8.23218 0.85611,1.25245 1.62599,2.87302 1.71076,3.60126 0.0849,0.72823 0.32289,1.59708 0.52909,1.93071 0.20632,0.33365 0.41714,1.37956 0.46876,2.32429 0.0517,0.94467 0.26662,4.52149 0.47777,7.94846 0.31768,5.1566 0.25403,6.63047 -0.36938,8.54882 -0.41428,1.27488 -1.01596,3.6003 -1.33705,5.16756 -0.32108,1.56732 -0.73377,3.06334 -0.91709,3.32456 -0.18338,0.26123 -0.48714,1.32981 -0.67518,2.37469 -0.18796,1.04486 -0.50863,2.11344 -0.71243,2.37464 -0.2039,0.26124 -0.61244,1.22297 -0.90804,2.13722 -1.07938,3.3383 -5.34104,11.08601 -6.83774,12.43106 -0.4867,0.43735 -0.85704,0.8648 -0.82298,0.94988 0.0987,0.24675 -0.50065,1.97459 -1.01693,2.93182 -0.61835,1.14661 -0.32201,1.38394 1.07031,0.85725 1.30687,-0.49437 7.32965,-0.4471 7.8383,0.0614 0.18746,0.18772 0.63967,0.34107 1.00472,0.34107 0.36504,0 1.77755,0.5095 3.1389,1.13217 2.96314,1.35539 5.97904,4.8983 6.07654,7.1384 0.20801,4.78289 -0.82229,10.08059 -4.11872,21.17538 -0.42685,1.43666 -0.98266,3.45859 -1.23509,4.49318 -0.2524,1.03459 -0.64292,2.10318 -0.86781,2.37467 -0.22492,0.2715 -0.87125,2.40739 -1.43642,4.7464 -1.01305,4.19275 -2.93318,10.51676 -3.75586,12.36996 -0.23194,0.52243 -0.89025,2.65963 -1.46296,4.74936 -0.57268,2.0897 -1.31674,4.4406 -1.65341,5.22426 -0.33665,0.78365 -0.87328,2.38654 -1.19252,3.56201 -0.31924,1.17544 -0.98723,2.80359 -1.48445,3.61807 -0.49727,0.81447 -0.90406,1.71744 -0.90406,2.00657 0,0.28915 -0.61287,1.86684 -1.36196,3.50595 -0.749,1.63916 -1.83778,4.04886 -2.41948,5.35492 -1.70525,3.82883 -3.38444,7.24499 -3.73207,7.59268 -0.17755,0.17757 -0.3334,0.46539 -0.3463,0.63953 -0.0928,1.25969 -0.95039,2.57669 -1.91703,2.9442 -0.63065,0.23989 -1.14666,0.68118 -1.14666,0.98082 0,0.36796 0.25346,0.33446 0.78091,-0.10313 0.69904,-0.58018 0.74295,-0.52406 0.41876,0.5355 -0.19931,0.65099 -0.62456,1.50419 -0.94523,1.896 -0.3207,0.39181 -1.0569,1.67415 -1.63605,2.84961 -0.57917,1.17547 -1.4367,2.77837 -1.90564,3.56202 -0.46893,0.78363 -1.33142,2.27967 -1.91664,3.32453 -3.39571,6.06256 -6.12707,10.2111 -6.72291,10.2111 -0.26265,0 -0.35166,0.20366 -0.19785,0.45278 0.26112,0.42245 -0.42726,1.47507 -2.12348,3.24702 -0.39185,0.40936 -0.7177,0.86635 -0.72414,1.01562 -0.009,0.14936 -0.76754,1.44686 -1.69141,2.88352 -0.92384,1.43669 -2.09401,3.36018 -2.60044,4.27443 -0.50639,0.91424 -1.08102,1.73351 -1.27691,1.82058 -0.19591,0.0869 -0.35621,0.32831 -0.35621,0.53614 0,0.50032 -3.19786,5.79759 -3.93478,6.51808 -0.44734,0.43728 -0.87888,0.30201 -1.91912,-0.60146 z M 663.71173,431.55434 c -0.34501,-1.08695 0.15673,-3.36493 0.74141,-3.36493 0.22755,0 0.84817,-0.85145 1.37905,-1.89214 0.60737,-1.19046 1.40348,-2.00212 2.14687,-2.18869 0.64987,-0.16308 1.18158,-0.5015 1.18158,-0.75202 0,-0.2505 0.44604,-0.31387 0.99124,-0.14089 1.27337,0.40416 3.24421,-1.40646 2.03572,-1.87021 -1.05796,-0.40597 -1.09167,-0.37872 -0.88163,0.71203 0.14841,0.77047 0.053,0.87748 -0.42713,0.47904 -0.34007,-0.2822 -0.78784,-0.35466 -0.99511,-0.1609 -0.20728,0.19375 -0.15385,-0.0778 0.11832,-0.6031 0.79243,-1.52831 2.38523,-2.74596 3.18868,-2.43764 0.6025,0.23119 0.6502,0.11479 0.25517,-0.62358 -0.6797,-1.27006 -0.60758,-1.59366 0.27937,-1.25331 0.5285,0.20271 0.68624,0.0877 0.50982,-0.37202 -0.14057,-0.36613 0.15624,-1.10765 0.65954,-1.64778 0.50321,-0.54017 0.91498,-1.09345 0.91498,-1.22949 0,-0.13624 1.33573,-1.91985 2.9683,-3.96394 1.6326,-2.04409 3.60953,-4.53607 4.39317,-5.53768 0.78363,-1.00163 1.63853,-2.06763 1.89973,-2.36889 0.26121,-0.30124 0.71574,-0.96612 1.01006,-1.47752 0.32312,-0.56148 1.02868,-0.92243 1.78098,-0.91112 0.68526,0.01 1.24593,-0.15001 1.24593,-0.35619 0,-0.20632 -0.32061,-0.37492 -0.71242,-0.37492 -1.08728,0 -0.9103,-0.45557 1.781,-4.58463 1.37135,-2.10399 2.72777,-4.23064 3.01419,-4.72596 3.0966,-5.35469 4.33334,-7.76146 4.10541,-7.98937 -0.14985,-0.14984 -0.0517,-0.27264 0.21838,-0.27264 0.56969,0 4.47722,-10.40791 4.63915,-12.35665 0.0331,-0.39641 0.23218,-0.99941 0.44264,-1.33999 0.51334,-0.83066 0.67086,-6.24941 0.19036,-6.54642 -0.2092,-0.1292 -0.38049,-0.73399 -0.38049,-1.34368 0,-1.61572 -2.90397,-2.39058 -4.17943,-1.11512 -0.44326,0.4433 -0.57153,0.36414 -0.57718,-0.3562 -0.003,-0.56348 -0.14392,-0.71719 -0.35622,-0.39253 -0.53839,0.82335 -7.4819,4.45523 -8.48355,4.43742 -1.15127,-0.0194 -3.02634,-1.58886 -3.02634,-2.53139 0,-1.04927 1.024,-3.15203 1.53496,-3.15203 0.58003,0 1.7896,-1.23813 1.7896,-1.83188 0,-0.26124 0.26962,-0.75736 0.59921,-1.10252 0.32957,-0.3452 0.86558,-1.1619 1.19118,-1.81493 0.97452,-1.95455 2.49892,-4.40875 3.83505,-6.17415 0.69189,-0.91427 1.2854,-1.82259 1.31892,-2.01848 0.0334,-0.19593 0.0878,-0.59611 0.1204,-0.8893 0.0416,-0.37312 0.27309,-0.35568 0.77175,0.0583 0.86192,0.71531 0.94843,-0.0129 0.11863,-0.99939 -0.51996,-0.61838 -0.85677,-0.57069 -2.71277,0.38414 -1.16551,0.59958 -1.95055,1.09017 -1.74458,1.09017 0.20608,0 -0.33415,0.58773 -1.20035,1.30605 -0.86621,0.71838 -2.15773,1.89382 -2.87005,2.61215 -0.71233,0.71836 -1.41578,1.30609 -1.56323,1.30609 -0.1473,0 -1.30351,1.06858 -2.569,2.37467 -2.33964,2.41462 -3.9887,2.9899 -5.17382,1.80474 -1.56967,-1.56968 0.27429,-4.30726 5.8521,-8.68824 0.99558,-0.78197 2.39928,-2.01087 3.11928,-2.7309 0.72002,-0.72001 1.53927,-1.30911 1.82059,-1.30911 0.28132,0 0.51147,-0.21379 0.51147,-0.47493 0,-0.26122 0.27191,-0.47494 0.60419,-0.47494 0.3323,0 1.3556,-0.61934 2.27394,-1.37633 2.08884,-1.72179 4.97381,-2.95344 5.99771,-2.56051 0.52125,0.20003 0.66514,0.11526 0.43527,-0.25686 -0.21815,-0.35298 3.9e-4,-0.55562 0.59971,-0.55562 2.19154,0 2.76121,4.34805 0.96302,7.35018 -0.47312,0.78984 -1.21411,2.13068 -1.64673,2.97961 -0.43257,0.84895 -0.97587,1.54355 -1.20733,1.54355 -0.23143,0 -0.38352,0.16017 -0.33794,0.35621 0.14537,0.62561 -1.16701,2.96834 -1.66309,2.96834 -0.26281,0 -0.33722,0.14057 -0.16524,0.3125 0.46948,0.46953 -0.6598,1.62437 -1.23859,1.26662 -0.29454,-0.18192 -0.39618,-0.0328 -0.24605,0.36143 0.39728,1.04321 -0.4639,2.92482 -1.15895,2.53218 -0.46809,-0.26447 -0.47377,-0.20367 -0.0261,0.27988 0.46802,0.50563 0.94144,0.48138 2.61213,-0.13384 3.74833,-1.38022 5.74081,-1.3893 7.82845,-0.0355 1.74389,1.13076 1.91044,1.43841 2.43514,4.49825 0.69635,4.06082 0.71446,5.96697 0.0604,6.37113 -0.27649,0.17081 -0.3796,0.8781 -0.22902,1.57156 0.7352,3.38814 -5.60057,19.40774 -9.7744,24.71387 -0.49067,0.62382 -0.89216,1.30396 -0.89216,1.51146 0,0.53858 -5.76083,9.19886 -6.24564,9.38915 -0.22178,0.0869 -0.40343,0.38407 -0.40343,0.66002 0,0.27595 -0.3325,0.74487 -0.73892,1.04205 -0.40637,0.29716 -0.79545,0.92553 -0.86455,1.3964 -0.069,0.47085 -0.43117,1.04946 -0.80462,1.28579 -0.37344,0.23627 -0.50342,0.43295 -0.28885,0.43696 0.21453,0.003 0.10743,0.30176 -0.23748,0.66176 -0.34518,0.36 -1.58932,1.87829 -2.76479,3.37402 -1.17547,1.49577 -2.7085,3.33846 -3.40676,4.09486 -0.69824,0.75641 -1.13912,1.37534 -0.97974,1.37534 0.15946,0 -0.2432,0.5877 -0.89462,1.30605 -0.65145,0.71832 -1.73578,2.05408 -2.40968,2.96833 -1.93054,2.61913 -3.06282,3.7995 -3.64462,3.7995 -0.29589,0 -0.51264,0.16016 -0.48172,0.3562 0.17008,1.07767 -0.1316,1.61625 -0.76862,1.37177 -0.68212,-0.26173 -0.91421,0.1969 -0.74786,1.47781 0.0426,0.32654 -0.14585,0.59367 -0.41868,0.59367 -0.27266,0 -0.49574,0.33029 -0.49574,0.73397 0,2.29608 -4.80151,4.19592 -5.44894,2.15605 z m 12.57293,-13.81349 c 0,-0.26123 -0.3206,-0.47494 -0.71242,-0.47494 -0.39181,0 -0.71238,0.21381 -0.71238,0.47494 0,0.26122 0.32057,0.47494 0.71238,0.47494 0.39182,0 0.71242,-0.21381 0.71242,-0.47494 z m 3.08371,-5.21884 c 0.16645,-0.26923 -0.0243,-0.34885 -0.44691,-0.18674 -0.82278,0.31573 -0.97333,0.65613 -0.29018,0.65613 0.2458,0 0.5775,-0.21116 0.73709,-0.46948 z m 2.37804,-1.90516 c 0.16161,-0.26124 -0.0396,-0.47495 -0.44692,-0.47495 -0.40723,0 -0.74041,0.2138 -0.74041,0.47495 0,0.26119 0.201,0.47493 0.4469,0.47493 0.24578,0 0.57897,-0.21382 0.74043,-0.47493 z m 1.66227,0 c 0,-0.26124 -0.0943,-0.47495 -0.20947,-0.47495 -0.11527,0 -0.34153,0.2138 -0.50296,0.47495 -0.16138,0.26119 -0.067,0.47493 0.20945,0.47493 0.27662,0 0.50298,-0.21382 0.50298,-0.47493 z m 0,-2.37469 c 0,-0.26123 -0.22638,-0.47494 -0.50298,-0.47494 -0.27662,0 -0.37088,0.21381 -0.20945,0.47494 0.16162,0.26121 0.38777,0.47494 0.50296,0.47494 0.11528,0 0.20947,-0.21381 0.20947,-0.47494 z m 7.59895,-11.44926 c 0,-0.68276 -0.82405,-0.4871 -1.11233,0.26411 -0.17661,0.45998 -0.036,0.60063 0.42412,0.42411 0.37852,-0.14521 0.68821,-0.45494 0.68821,-0.68822 z m 1.29618,-1.66093 c -0.1577,-0.15768 -0.56747,-0.17466 -0.9103,-0.0375 -0.37885,0.15177 -0.26631,0.26416 0.28693,0.28696 0.50068,0.0217 0.78118,-0.0916 0.62337,-0.24946 z m 0.36608,-1.13786 c 0.16162,-0.26121 0.0673,-0.47492 -0.20944,-0.47492 -0.27664,0 -0.50298,0.21381 -0.50298,0.47492 0,0.26122 0.0943,0.47495 0.20946,0.47495 0.11527,0 0.34154,-0.21381 0.50296,-0.47495 z m -28.82457,28.1185 c -0.70173,-0.96526 -4.32316,-2.94695 -5.38535,-2.94695 -0.97541,0 -0.87403,-0.83418 0.13337,-1.09743 0.6487,-0.16936 0.60526,-0.22926 -0.19787,-0.2723 -0.56597,-0.0303 -1.11866,-0.21549 -1.22825,-0.41127 -0.10951,-0.19592 -0.13288,-0.0859 -0.0517,0.24453 0.16016,0.65268 -2.13464,0.45475 -2.63933,-0.22757 -0.15177,-0.20511 -0.81027,-0.44691 -1.46328,-0.53715 -0.65304,-0.0901 -1.25858,-0.35738 -1.34566,-0.59367 -0.0869,-0.23627 -0.5435,-0.42962 -1.0143,-0.42962 -1.22787,0 -3.38915,-1.20996 -2.97588,-1.66598 0.19208,-0.21187 -0.0613,-0.23701 -0.56287,-0.0559 -0.54863,0.1981 -1.06601,0.0863 -1.29879,-0.28055 -0.63166,-0.99545 -0.45723,-1.44498 0.42969,-1.10732 0.64161,0.24424 0.70304,0.18723 0.26937,-0.24976 -0.65038,-0.65546 -2.25618,-0.20728 -1.815,0.50651 0.46942,0.75955 -0.53078,0.55448 -1.19416,-0.24483 -0.33007,-0.3977 -0.94398,-0.61633 -1.36422,-0.48578 -0.42024,0.13048 -1.08466,0.0243 -1.47649,-0.23579 -0.61631,-0.40929 -0.58804,-0.56799 0.20946,-1.17647 1.10331,-0.84179 0.75198,-0.90471 -0.88558,-0.15866 -0.96641,0.44036 -1.63093,0.37511 -3.46558,-0.34027 -1.2485,-0.48683 -2.3768,-0.90279 -2.50742,-0.92437 -0.13064,-0.0217 -0.72959,-0.20704 -1.33106,-0.41205 -0.93629,-0.31917 -1.00578,-0.48663 -0.48314,-1.16397 0.39751,-0.51518 0.22709,-0.4633 -0.48889,0.14889 -1.0283,0.87925 -1.12901,0.88695 -1.55893,0.11863 -0.25277,-0.45172 -0.87932,-0.82125 -1.39231,-0.82125 -0.51299,0 -1.30382,-0.18868 -1.75739,-0.41954 -1.77428,-0.90258 -4.96232,-2.08944 -5.8269,-2.16925 -0.13914,-0.0129 -1.10081,-0.37927 -2.13721,-0.81422 -2.84626,-1.19461 -3.74896,-1.50459 -4.14031,-1.42175 -0.19592,0.0417 -0.35619,-0.13816 -0.35619,-0.39954 0,-0.2612 -0.44005,-0.47493 -0.97788,-0.47493 -0.53786,0 -0.84581,-0.2138 -0.68439,-0.47495 0.17515,-0.28318 -0.40019,-0.47493 -1.42481,-0.47493 -1.19098,0 -1.61295,-0.17056 -1.37492,-0.55565 0.23097,-0.37362 0.0846,-0.45626 -0.4469,-0.25235 -0.43467,0.16668 -0.79031,0.11623 -0.79031,-0.1124 0,-0.22854 -0.46085,-0.29504 -1.02413,-0.14793 -0.6965,0.18217 -0.91653,0.0937 -0.68773,-0.27651 0.21816,-0.35286 0.077,-0.44484 -0.40067,-0.26144 -0.40538,0.15561 -0.73709,0.0465 -0.73709,-0.24291 0,-0.28918 -0.45029,-0.52575 -1.00067,-0.52575 -0.69437,0 -0.91699,-0.21816 -0.72731,-0.71242 0.1505,-0.39184 0.0665,-0.7124 -0.18674,-0.7124 -0.25304,0 -0.46003,0.20921 -0.46003,0.46475 0,0.28429 -0.45526,0.25734 -1.17245,-0.0693 -0.64487,-0.2938 -1.03722,-0.75296 -0.87195,-1.02038 0.18239,-0.29496 -0.01,-0.36691 -0.48986,-0.18289 -0.43465,0.1667 -0.7903,0.0836 -0.7903,-0.1848 0,-0.26841 -0.20631,-0.36051 -0.45862,-0.20464 -0.25228,0.15576 -1.28969,-0.14057 -2.3054,-0.65866 -1.33025,-0.67864 -1.99121,-0.79766 -2.36324,-0.42563 -0.37205,0.37204 -0.98913,0.29222 -2.2065,-0.28547 -0.92951,-0.44106 -1.68998,-0.96773 -1.68998,-1.1704 0,-0.45611 -3.53528,-2.19664 -5.46176,-2.68899 -0.78365,-0.20027 -2.06596,-0.31185 -2.84962,-0.248 -0.78362,0.064 -1.27336,-0.038 -1.08828,-0.22612 0.18506,-0.18819 -0.70526,-0.87908 -1.9786,-1.53515 -1.68831,-0.86994 -2.23714,-1.39613 -2.0271,-1.94346 0.25421,-0.6625 0.1998,-0.66881 -0.46496,-0.0536 -0.41412,0.38324 -0.63879,0.88484 -0.49922,1.11464 0.13945,0.22974 -0.0432,0.30996 -0.40604,0.17805 -0.3629,-0.13192 -0.59727,-0.50746 -0.52083,-0.83472 0.0902,-0.38573 -0.20221,-0.50574 -0.83115,-0.34127 -0.53355,0.13944 -0.9701,0.0722 -0.9701,-0.14954 0,-0.22177 -0.48086,-0.31013 -1.06862,-0.1964 -1.49131,0.28859 -4.15544,-0.65915 -3.87886,-1.37988 0.14617,-0.38095 -1.02917,-0.99608 -3.34886,-1.75267 -1.96575,-0.64115 -3.57474,-1.32599 -3.57555,-1.52192 -7e-4,-0.19593 -0.44155,-0.3562 -0.97937,-0.3562 -0.53785,0 -0.87545,-0.16571 -0.75023,-0.36833 0.12519,-0.20271 -0.64224,-0.35677 -1.70545,-0.34261 -1.06319,0.0144 -2.22008,-0.26121 -2.57081,-0.61196 -0.35073,-0.35074 -1.01329,-0.5819 -1.47235,-0.51361 -1.36179,0.20245 -5.87506,-1.07518 -6.12818,-1.73479 -0.34417,-0.89685 -3.96766,-1.99694 -3.96766,-1.20456 0,0.24333 -0.37402,0.45291 -0.83115,0.46572 -1.75929,0.0494 -2.4934,0.20656 -2.4934,0.53443 0,0.18722 -0.42743,0.45214 -0.94987,0.5888 -0.52244,0.13672 -0.94986,0.59431 -0.94986,1.01713 0,0.47421 -0.54591,0.87793 -1.4248,1.0537 -0.78366,0.15673 -1.4248,0.47196 -1.4248,0.70053 0,0.22854 -0.32731,0.41555 -0.72733,0.41555 -0.40002,0 -0.84809,0.3148 -0.99572,0.6995 -0.1476,0.38473 -1.04925,0.84296 -2.00355,1.01837 -0.95434,0.17537 -1.842,0.45741 -1.97265,0.6267 -0.28944,0.37521 -13.35588,5.73108 -13.97932,5.73004 -0.24404,-3.5e-4 -1.31267,0.40513 -2.37469,0.90116 -1.06204,0.496 -2.99956,1.23107 -4.30564,1.63346 -3.46968,1.06896 -12.9744,2.79833 -13.52151,2.4602 -0.2582,-0.15946 -0.90227,-0.0584 -1.43131,0.22468 -1.45388,0.77811 -18.81984,0.92805 -23.35638,0.20173 -5.13886,-0.82283 -12.00594,-2.44099 -14.95102,-3.52308 -4.35462,-1.59994 -9.94717,-4.53987 -11.48355,-6.03672 -0.34517,-0.33629 -0.83864,-0.61143 -1.09662,-0.61143 -0.25797,0 -0.33695,-0.2138 -0.17563,-0.47493 0.16161,-0.26124 0.0751,-0.47495 -0.19159,-0.47495 -0.60351,0 -5.80749,-5.1031 -6.89223,-6.75863 -0.6269,-0.95677 -0.66631,-1.27385 -0.1824,-1.46782 0.41057,-0.16452 0.3502,-0.25995 -0.18023,-0.28488 -0.92347,-0.0432 -3.09299,-3.12094 -4.37898,-6.21163 -0.48908,-1.17547 -1.19459,-2.83979 -1.56781,-3.69843 -1.13137,-2.60298 -1.29526,-3.52474 -1.25086,-7.03448 0.0299,-2.36069 0.29901,-3.78454 0.89771,-4.74935 1.41752,-2.28433 5.30723,-5.88982 6.35407,-5.88982 0.53946,0 0.98083,-0.18239 0.98083,-0.40522 0,-0.76178 8.70142,-2.15368 13.06069,-2.08923 4.90198,0.0726 12.0599,1.09473 17.57258,2.50962 2.08972,0.53636 4.65437,1.18149 5.6992,1.43358 1.04489,0.25214 4.57126,1.29904 7.83644,2.32639 3.26521,1.02739 6.89845,2.13283 8.07389,2.4565 1.17546,0.3237 2.35092,0.73464 2.61214,0.91319 0.26122,0.17855 0.79551,0.32036 1.18733,0.31509 0.70563,-0.01 6.48152,1.7574 8.31135,2.54247 1.57003,0.67361 7.00146,2.34592 7.61925,2.34592 0.31671,0 0.8233,0.29822 1.12582,0.6627 0.30252,0.36451 1.34386,0.80552 2.3141,0.98007 1.49179,0.26833 4.3511,1.25274 8.8881,3.06 0.52243,0.20799 2.50152,0.87214 4.39796,1.47568 1.89645,0.60349 3.68409,1.38165 3.97256,1.72926 0.29679,0.35757 0.98009,0.51758 1.57398,0.36851 0.64256,-0.16138 1.28857,0.0246 1.66606,0.47951 0.33912,0.40864 1.00525,0.74298 1.48027,0.74298 0.47502,0 0.99217,0.208 1.14923,0.46203 0.15705,0.2541 1.15207,0.69533 2.2111,0.98049 1.86631,0.50257 1.89997,0.5468 1.09367,1.43773 -1.05762,1.16866 -1.19436,1.16047 -4.81577,-0.2883 -1.66007,-0.66414 -3.20703,-1.09088 -3.43766,-0.94834 -0.23072,0.14248 -0.7772,0.12199 -1.21446,-0.0459 -0.64095,-0.24596 -0.67227,-0.39183 -0.16163,-0.75236 0.43032,-0.30383 0.21695,-0.35645 -0.66535,-0.16404 -0.93599,0.20414 -1.56622,0.017 -2.25595,-0.67399 -0.96984,-0.96985 -2.68405,-1.35528 -2.14443,-0.48217 0.34067,0.55121 -0.38339,0.64565 -0.9103,0.11863 -0.19593,-0.19593 -0.49868,-0.36842 -0.67283,-0.38336 -1.26014,-0.10823 -5.68703,-1.8736 -5.49148,-2.19003 0.22397,-0.3622 -1.16195,-0.60467 -2.507,-0.4386 -0.30685,0.038 -0.69347,-0.15049 -0.85917,-0.41867 -0.16572,-0.26813 -0.72876,-0.48751 -1.25117,-0.48751 -0.59705,0 -0.82402,-0.20367 -0.611,-0.54834 0.21574,-0.34889 0.12952,-0.41901 -0.23652,-0.19278 -0.31642,0.19568 -1.13975,0.2138 -1.82964,0.0406 -0.98637,-0.24755 -1.10742,-0.40771 -0.56666,-0.74983 0.46815,-0.29616 -0.10101,-0.43736 -1.78344,-0.44232 -2.50419,-0.009 -4.8904,-0.75698 -4.8904,-1.53631 0,-0.2346 0.26714,-0.26624 0.59366,-0.0701 0.47292,0.28412 0.47413,0.20897 0.006,-0.36973 -0.32327,-0.3995 -1.37612,-0.75602 -2.33965,-0.79225 -0.96355,-0.0361 -1.92793,-0.33812 -2.1431,-0.67085 -0.2998,-0.4636 -0.47726,-0.47233 -0.75942,-0.0371 -0.27141,0.41848 -0.8644,0.44264 -2.25592,0.0918 -3.25435,-0.82019 -4.69646,-1.24378 -5.99463,-1.7607 -0.69145,-0.27533 -1.4203,-0.35397 -1.61967,-0.17466 -0.19931,0.17926 -0.22249,0.0812 -0.0517,-0.21791 0.29573,-0.51736 -0.92596,-1.36057 -1.72061,-1.18759 -0.97828,0.21283 -6.79813,-1.00588 -8.11504,-1.69952 -0.81614,-0.42988 -3.30052,-1.1511 -5.52086,-1.60271 -2.22031,-0.45162 -4.67809,-1.04486 -5.46173,-1.31833 -3.40195,-1.18713 -12.46763,-2.30824 -17.61031,-2.17774 -9.93568,0.25207 -14.81066,2.86633 -15.63841,8.3862 -0.30501,2.03394 0.35263,6.72501 1.18132,8.4266 0.19835,0.40742 0.81933,1.76852 1.37978,3.02466 0.56049,1.25618 1.22774,2.5385 1.4828,2.8496 0.25503,0.31114 1.47819,1.84801 2.71812,3.41531 5.12936,6.48349 8.01071,8.50161 17.93787,12.56374 0.52245,0.21382 1.80473,0.61219 2.84962,0.88539 1.04485,0.2732 3.60949,0.94455 5.69921,1.49189 2.58272,0.67649 5.66488,1.04394 9.62434,1.14747 3.20366,0.0839 5.943,0.2704 6.08744,0.41482 0.14441,0.14442 1.00353,0.0579 1.90914,-0.19206 0.9056,-0.25005 2.06664,-0.32133 2.58011,-0.15818 0.56768,0.18023 0.93357,0.0769 0.93357,-0.26351 0,-0.37602 0.51424,-0.4633 1.56647,-0.2659 0.86157,0.16162 2.62478,0.0946 3.91823,-0.14937 1.50014,-0.28259 2.41141,-0.27671 2.51664,0.0169 0.0976,0.27198 0.4413,0.22999 0.84261,-0.10311 0.37273,-0.30933 0.79069,-0.44944 0.9288,-0.31133 0.13801,0.13801 1.17653,-0.0276 2.30763,-0.36782 1.51459,-0.45584 2.19632,-0.47912 2.58702,-0.0884 0.39072,0.39068 0.5305,0.31772 0.5305,-0.2769 0,-0.69807 0.81475,-1.04962 2.00895,-0.86681 0.19061,0.0293 1.42749,-0.37296 2.74846,-0.89364 1.32098,-0.52068 2.7511,-0.94667 3.17807,-0.94667 0.87526,0 5.49346,-1.72537 10.11204,-3.77784 1.69787,-0.75454 4.15565,-1.83989 5.46175,-2.41186 1.30607,-0.57196 3.65701,-1.79515 5.22428,-2.71812 1.5673,-0.92299 3.11677,-1.68288 3.44327,-1.68863 0.32654,-0.006 0.59366,-0.18844 0.59366,-0.40623 0,-0.21767 0.32059,-0.39576 0.71243,-0.39576 0.39181,0 0.71238,-0.19933 0.71238,-0.44293 0,-0.24361 0.40736,-0.57221 0.90521,-0.73025 0.51313,-0.16283 0.84815,-0.63961 0.77341,-1.10059 -0.17708,-1.09212 0.6063,-2.00527 1.44425,-1.68373 1.17325,0.45021 2.86816,-0.2466 4.77342,-1.96243 1.01192,-0.91137 2.01726,-1.66195 2.23407,-1.66804 0.21671,-0.009 1.68832,-1.30509 3.26999,-2.88679 1.61431,-1.61431 3.15347,-2.76924 3.50883,-2.63286 0.34815,0.13352 0.77972,0.006 0.95905,-0.28466 0.19736,-0.31947 0.10966,-0.39391 -0.22227,-0.18869 -1.28882,0.79655 -0.40395,-0.74106 1.12387,-1.95289 0.91966,-0.72947 2.23762,-2.1812 2.92876,-3.22605 0.69115,-1.04485 2.0353,-2.8615 2.98701,-4.03693 0.95171,-1.17549 2.14499,-2.9921 2.65172,-4.03694 0.5067,-1.04487 1.0333,-2.0066 1.1702,-2.13723 0.58334,-0.55654 2.83947,-5.37928 2.85327,-6.09922 0.01,-0.43303 0.32204,-1.19282 0.69719,-1.68844 0.37515,-0.49558 0.57526,-1.07392 0.44472,-1.28515 -0.13047,-0.21114 0.10217,-1.19494 0.51703,-2.18597 0.69931,-1.67036 1.02031,-3.32245 1.376,-7.0815 0.077,-0.81407 0.22926,-1.66895 0.33809,-1.89974 0.29225,-0.61927 0.12376,-6.23413 -0.26909,-8.96843 -0.43919,-3.05673 -1.78887,-7.47957 -3.87886,-12.71109 -0.91456,-2.28922 -1.53161,-4.37451 -1.37124,-4.63394 0.16017,-0.25947 -0.0504,-0.603 -0.46853,-0.76343 -0.88272,-0.33869 -2.25387,-2.76372 -1.81233,-3.20527 0.16477,-0.16476 -0.20172,-0.83303 -0.81412,-1.48502 -0.61252,-0.65201 -0.95429,-1.18549 -0.75952,-1.18549 0.19472,0 0.0336,-0.32056 -0.3582,-0.71238 -0.39183,-0.39184 -0.89533,-0.71242 -1.11886,-0.71242 -0.44102,0 -1.99725,-2.42052 -1.87404,-2.9148 0.0417,-0.16646 -0.45887,-0.74708 -1.1119,-1.29028 -0.65304,-0.54318 -0.99901,-0.99469 -0.76885,-1.00338 0.23023,-0.01 -1.31935,-1.69845 -3.4433,-3.75501 -2.12394,-2.05652 -3.86175,-3.97327 -3.86175,-4.25942 0,-0.76718 -4.94118,-4.28472 -9.02377,-6.42379 -8.52002,-4.46415 -10.74212,-5.5192 -11.63589,-5.5248 -0.52242,-0.003 -1.48415,-0.28352 -2.13719,-0.6228 -3.86924,-2.01032 -14.18928,-3.05995 -21.1346,-2.14955 -1.8285,0.23967 -4.01817,0.48061 -4.86595,0.53543 -0.84778,0.055 -1.54237,0.24294 -1.54355,0.41808 -7e-4,0.17514 -1.44473,0.46821 -3.20794,0.65133 -1.76317,0.18312 -3.41951,0.49605 -3.68072,0.69536 -0.26123,0.1993 -1.22297,0.5115 -2.13721,0.6937 -2.26001,0.4504 -4.61351,1.19018 -6.88655,2.16461 -1.04487,0.44793 -2.36132,0.95744 -2.92544,1.13223 -0.56416,0.17467 -1.28491,0.63012 -1.60174,1.01183 -0.31676,0.38169 -0.87422,0.69401 -1.23878,0.69401 -0.36456,0 -2.10157,0.88443 -3.86004,1.96544 -1.75846,1.081 -4.02775,2.41673 -5.0428,2.96832 -1.01508,0.5516 -2.1617,1.4838 -2.54805,2.07152 -0.38634,0.58774 -0.94501,1.07316 -1.24149,1.07876 -0.29647,0.006 -1.14974,0.8731 -1.89614,1.92786 -0.74639,1.05475 -1.47856,1.79624 -1.62705,1.64777 -0.14857,-0.14825 -0.71323,0.14281 -1.25503,0.64684 -0.97483,0.9072 -0.99904,0.90554 -2.31983,-0.15515 -1.8116,-1.45478 -1.40506,-2.80945 1.6542,-5.51193 1.32467,-1.17017 3.07704,-2.79477 3.89413,-3.61015 0.81707,-0.81542 3.05632,-2.36607 4.97605,-3.44593 1.91976,-1.07985 4.03234,-2.3896 4.69467,-2.91059 0.6623,-0.52097 1.41024,-0.94724 1.66205,-0.94724 0.4579,0 1.37351,-0.37525 5.82568,-2.3876 1.30606,-0.59037 3.01582,-1.24404 3.79948,-1.45264 0.78363,-0.2085 2.70714,-0.82916 4.2744,-1.37903 1.5673,-0.54985 4.77309,-1.29957 7.124,-1.66604 2.35096,-0.36646 5.44991,-0.87301 6.88658,-1.1257 1.43669,-0.25267 3.03957,-0.46835 3.562,-0.47929 10.15758,-0.21285 16.65734,0.55351 22.32193,2.63194 1.04486,0.38336 2.32719,0.81146 2.84962,0.95131 3.73631,1.00028 13.97576,7.07873 17.86672,10.60626 3.33819,3.02644 8.49215,8.23817 8.49215,8.58736 0,0.23554 0.59186,1.01773 1.31526,1.73835 0.72337,0.72063 1.61436,1.89792 1.97997,2.61627 0.36564,0.71835 0.92831,1.30608 1.25045,1.30608 0.32212,0 0.81722,0.58773 1.10024,1.30607 0.55066,1.39781 1.11419,2.35665 2.73833,4.6591 1.42717,2.02324 3.48912,6.39279 3.48912,7.39387 0,0.45809 0.23749,0.97978 0.52797,1.15924 0.90922,0.56194 2.93988,5.61865 2.33701,5.81964 -0.34312,0.11431 -0.25514,0.38897 0.24087,0.75167 1.23479,0.9029 2.47904,8.062 1.58783,9.13585 -0.44446,0.5355 -0.39989,0.60805 0.22587,0.36792 1.01825,-0.39076 1.05234,0.0711 0.52839,7.16393 -0.11576,1.56729 -0.29772,4.22512 -0.40431,5.90628 -0.12663,1.9981 -0.44253,3.23853 -0.91198,3.58184 -0.52459,0.38358 -0.59206,0.75059 -0.25027,1.36133 0.30738,0.54926 0.30725,1.03137 -3.6e-4,1.405 -0.75349,0.915 -3.4062,6.19186 -3.4062,6.77561 0,0.64835 -1.01569,2.57001 -2.86953,5.42907 -0.76219,1.17546 -1.61201,2.65357 -1.88849,3.28466 -0.27647,0.63107 -0.88559,1.48597 -1.35358,1.89973 -0.468,0.41377 -1.04755,1.10036 -1.28789,1.52573 -1.03067,1.82448 -5.57198,6.55251 -6.02483,6.27263 -0.28014,-0.17323 -0.35464,-0.0783 -0.1713,0.21815 0.17927,0.29012 -0.15945,0.78202 -0.75773,1.10082 -1.25146,0.66669 -2.27933,1.92039 -1.97634,2.41059 0.1148,0.1858 -0.2417,0.57864 -0.7921,0.87321 -1.01367,0.54251 -1.70967,1.08236 -4.4127,3.4227 -0.82485,0.71415 -1.76686,1.30189 -2.09338,1.30606 -0.32652,0.003 -0.59368,0.30736 -0.59368,0.67373 0,0.41725 1.28638,1.04411 3.44329,1.67787 1.8938,0.55647 3.93419,1.21841 4.53421,1.47107 0.60003,0.25263 1.48218,0.45934 1.96033,0.45934 0.47814,0 1.13346,0.31824 1.45629,0.70716 0.32278,0.38896 0.75651,0.60235 0.96383,0.4742 0.52342,-0.3235 5.68956,1.70128 5.68956,2.22991 0,0.23651 0.26716,0.38014 0.59369,0.31939 0.32652,-0.0607 1.27606,0.0509 2.11012,0.24843 1.04324,0.2469 1.43492,0.57124 1.25522,1.03948 -0.31668,0.82534 0.0375,0.86226 1.21517,0.1268 0.72452,-0.45247 1.12637,-0.36549 2.19482,0.47494 0.71935,0.56585 1.82604,1.0288 2.45924,1.0288 0.63321,0 1.03308,0.19134 0.88852,0.4252 -0.28658,0.46374 1.13665,1.17788 1.54121,0.77334 0.13673,-0.13672 -0.0362,-0.24868 -0.3846,-0.24868 -0.34827,0 -0.52135,-0.11191 -0.38462,-0.24863 0.44327,-0.44324 1.81369,0.33248 1.49584,0.84672 -0.16935,0.27422 -0.093,0.3656 0.16984,0.20316 0.26294,-0.16259 1.30289,0.12521 2.31105,0.63903 1.00808,0.51398 2.32201,0.93448 2.91982,0.93448 0.59783,0 1.08693,0.18554 1.08693,0.41241 0,0.22686 0.82975,0.5237 1.84388,0.65972 1.01414,0.13593 2.45674,0.58557 3.20581,0.99901 3.15972,1.74399 8.41775,4.1369 9.62574,4.38064 0.36567,0.0739 0.84654,0.41553 1.06858,0.75941 0.32513,0.50346 0.47994,0.50746 0.79493,0.0194 0.29954,-0.4632 0.59494,-0.37975 1.26094,0.35617 0.4928,0.54454 1.46756,0.96109 2.24898,0.96109 0.75862,0 1.25948,0.19377 1.1131,0.43062 -0.14648,0.23702 0.19495,0.31007 0.75863,0.16284 0.70225,-0.18359 0.91787,-0.095 0.68505,0.28178 -0.22904,0.37061 0.13351,0.54974 1.11306,0.54974 0.79905,0 1.45283,0.2097 1.45283,0.46589 0,0.38591 0.74548,0.70455 2.84958,1.21803 1.89083,0.4614 4.07897,2.11555 2.79851,2.11555 -0.32017,0 -0.44482,0.13753 -0.27698,0.30514 0.16791,0.16791 0.64719,0.0217 1.06524,-0.32565 0.63512,-0.5271 0.83099,-0.51872 1.19153,0.0509 0.23726,0.37501 0.43472,0.48844 0.43875,0.25206 0.003,-0.23628 0.43471,-0.0431 0.95713,0.4298 0.52243,0.47282 0.94988,1.13446 0.94988,1.47036 0,0.33592 0.19375,0.73054 0.43063,0.87694 0.23675,0.14633 0.32509,-0.13751 0.19617,-0.63078 -0.24561,-0.93918 0.8527,-2.02756 1.14899,-1.13863 0.0934,0.27974 0.56262,0.40582 1.04304,0.28018 0.48041,-0.12568 1.0171,0.003 1.1926,0.2879 0.17539,0.28398 0.84079,0.51632 1.47841,0.51632 0.63763,0 1.15931,0.21381 1.15931,0.47493 0,0.26121 0.42744,0.47494 0.94987,0.47494 0.52243,0 0.89644,0.26711 0.83113,0.59363 -0.0726,0.36191 0.43749,0.61174 1.30607,0.63995 2.97065,0.0967 3.44609,0.21672 4.51187,1.14106 0.60239,0.52245 1.5451,0.94988 2.09493,0.94988 0.54984,0 2.0034,0.53432 3.23012,1.18732 1.22673,0.65304 2.67434,1.18736 3.21695,1.18736 0.54258,0 1.08958,0.26712 1.21554,0.59365 0.12584,0.32655 0.87019,0.61659 1.65376,0.64459 0.78358,0.028 1.83579,0.42294 2.33825,0.87766 0.50248,0.45471 1.12598,0.69546 1.38562,0.53501 0.25961,-0.1604 0.6153,-0.0602 0.79039,0.22324 0.17514,0.28327 0.61727,0.40032 0.98267,0.2601 0.36539,-0.14008 0.66435,-0.0355 0.66435,0.23314 0,0.26841 0.21526,0.35503 0.4783,0.19255 0.26308,-0.1626 0.59284,0.003 0.73282,0.36776 0.24904,0.64892 0.82088,0.82437 2.90954,0.89268 0.68639,0.0217 0.94737,0.25848 0.77692,0.70264 -0.20776,0.54108 -0.0169,0.57707 1.00685,0.18843 0.98475,-0.37439 1.54671,-0.30031 2.5476,0.33596 0.70628,0.44897 1.46514,1.10658 1.68631,1.46133 0.25774,0.41341 0.82833,0.53804 1.58897,0.34714 0.69236,-0.17394 1.50264,-0.0421 1.94493,0.31626 0.49017,0.39703 0.63917,0.41576 0.42154,0.053 -0.42518,-0.70892 1.43318,-2.05093 2.84009,-2.05093 0.63626,0 1.16966,0.37809 1.35438,0.96014 0.31822,1.00254 -0.66327,3.7892 -1.33455,3.7892 -0.21284,0 -0.26992,0.18939 -0.12679,0.4211 0.41183,0.66634 -0.9395,1.52364 -2.75701,1.74907 -1.22408,0.15177 -1.83109,-0.0195 -2.28756,-0.64804 z m 1.38721,-1.8091 c -0.15769,-0.1577 -0.56745,-0.17467 -0.9103,-0.0375 -0.37885,0.15177 -0.26631,0.26416 0.28696,0.28695 0.50064,0.0217 0.78115,-0.0916 0.62334,-0.24946 z m -2.72097,-0.66291 c 0,-0.26123 -0.22637,-0.47494 -0.50299,-0.47494 -0.27661,0 -0.37089,0.21381 -0.20945,0.47494 0.16163,0.26119 0.38777,0.47494 0.50299,0.47494 0.11527,0 0.20945,-0.21381 0.20945,-0.47494 z m -38.70717,-15.67288 c -0.4728,-0.52242 -1.07295,-0.94984 -1.33361,-0.94984 -0.26073,0 0.0194,0.42742 0.62119,0.94984 0.60236,0.52247 1.2025,0.94988 1.33363,0.94988 0.13094,0 -0.14858,-0.42741 -0.62121,-0.94988 z m -55.20213,-22.1585 c -0.32156,-0.13016 -0.96273,-0.13815 -1.4248,-0.0169 -0.4621,0.12055 -0.19907,0.22685 0.58461,0.2365 0.78364,0.01 1.16172,-0.0887 0.84019,-0.21886 z m -7.85537,-2.35008 c -0.15769,-0.1577 -0.56743,-0.17467 -0.91027,-0.0374 -0.37889,0.15177 -0.26634,0.26414 0.28693,0.28695 0.50066,0.0217 0.78116,-0.0916 0.62334,-0.24945 z m -21.95582,-2.08773 c 0.16163,-0.26122 0.067,-0.47495 -0.20945,-0.47495 -0.27665,0 -0.503,0.21382 -0.503,0.47495 0,0.26121 0.0943,0.47494 0.20945,0.47494 0.11528,0 0.34153,-0.21381 0.50297,-0.47494 z m 11.7786,-1.73796 c -0.13432,-0.35019 -0.45804,-0.63671 -0.71927,-0.63671 -0.2612,0 -0.3452,0.33805 -0.18675,0.75123 0.1585,0.4132 0.29155,1.00091 0.29555,1.30607 0.003,0.34042 0.17104,0.29615 0.431,-0.11447 0.23314,-0.36812 0.31378,-0.95586 0.17927,-1.30608 z m -3.46725,-3.22082 c 0,-0.11528 -0.21381,-0.34154 -0.47494,-0.50297 -0.2612,-0.16164 -0.47494,-0.067 -0.47494,0.20946 0,0.27662 0.2138,0.50296 0.47494,0.50296 0.26123,0 0.47494,-0.0943 0.47494,-0.20945 z m -50.81801,-13.56368 c 0,-0.26123 -0.22638,-0.47494 -0.50297,-0.47494 -0.27661,0 -0.37087,0.21381 -0.20945,0.47494 0.16163,0.26121 0.38778,0.47494 0.50297,0.47494 0.11527,0 0.20945,-0.21382 0.20945,-0.47494 z m 227.67539,11.26287 c -2.69284,-1.54464 -4.52786,-3.73255 -5.17399,-6.16906 -0.94221,-3.55301 -0.56454,-10.75637 0.7402,-14.11757 0.55767,-1.43666 1.01464,-2.93273 1.01549,-3.32454 0.003,-1.49747 4.27311,-9.42492 5.84885,-10.85879 0.90026,-0.81922 1.77775,-1.4895 1.95001,-1.4895 0.17226,0 0.70296,-0.44947 1.17935,-0.99875 1.57412,-1.81495 6.13179,-2.73605 6.13179,-1.23921 0,0.27549 0.34326,0.8802 0.76283,1.34381 0.67223,0.7428 0.68842,1.14219 0.13625,3.36195 -0.52279,2.10181 -1.75055,4.56036 -2.7996,5.60608 -0.13096,0.13065 -0.55849,0.86052 -0.94987,1.62202 -0.65108,1.26669 -2.53433,3.33871 -4.50581,4.95747 -0.43057,0.35355 -1.31938,0.54024 -1.97506,0.41492 -0.74629,-0.14281 -1.28604,0.0169 -1.44308,0.4258 -0.138,0.35949 -0.54448,0.65367 -0.90336,0.65367 -0.35892,0 -0.76605,0.48089 -0.90476,1.06862 -0.53125,2.25077 -1.0569,7.2711 -0.8249,7.87822 0.22854,0.59784 0.38303,1.62937 0.52346,3.49371 0.12584,1.66951 2.09485,3.24994 4.09755,3.28879 2.27373,0.0442 2.69584,-0.0604 5.47825,-1.35767 3.22567,-1.50386 4.47317,-1.7212 5.15609,-0.89835 0.47687,0.57462 0.43345,0.95038 -0.22612,1.95716 -0.85532,1.3054 -3.77638,3.44325 -6.03731,4.41863 -1.69984,0.73333 -5.9708,0.71136 -7.27617,-0.0375 z m 3.14285,-21.79059 c 0,-0.21768 -0.44003,-0.39578 -0.97788,-0.39578 -0.53785,0 -0.86786,0.17806 -0.73331,0.39578 0.13465,0.21766 0.5746,0.39578 0.97792,0.39578 0.4033,0 0.73327,-0.17805 0.73327,-0.39578 z m -0.21669,-3.9428 c 0.69104,-0.90601 1.47498,-1.60062 1.74209,-1.54356 0.26709,0.057 0.5513,-0.28899 0.63155,-0.76902 0.0802,-0.48004 0.45249,-1.22806 0.82725,-1.66227 0.86033,-0.99695 1.32736,-2.84769 0.8007,-3.17318 -0.22009,-0.13625 -1.09363,0.6153 -1.94096,1.66971 -1.1078,1.37848 -1.64996,1.74809 -1.92975,1.31554 -0.58019,-0.89702 -1.25237,0.34984 -0.9739,1.80655 0.12199,0.63767 0.017,1.42529 -0.23554,1.75032 -0.73194,0.94623 -1.08797,2.25318 -0.61382,2.25318 0.23965,0 1.00125,-0.74125 1.69232,-1.64727 z m -78.50079,22.05326 c -2.72455,-0.59696 -2.93367,-1.02089 -2.15864,-4.37569 0.37584,-1.62693 0.89946,-3.21842 1.16359,-3.53669 0.26413,-0.31824 0.35148,-0.78695 0.19422,-1.04153 -0.15721,-0.25461 -0.0983,-0.57907 0.13145,-0.72098 0.22975,-0.14201 0.67905,-1.19212 0.9987,-2.33377 0.52197,-1.8643 0.71001,-2.058 1.84616,-1.90183 1.2039,0.16549 1.2134,0.15129 0.19642,-0.29586 -1.20072,-0.5279 -1.31871,-1.25306 -0.52071,-3.20037 0.71247,-1.73849 0.89272,-2.44106 1.09914,-4.28417 0.23726,-2.11832 0.57912,-2.51456 2.1695,-2.51456 2.08656,0 3.10836,1.78194 2.30144,4.01346 -0.33527,0.92717 -0.79297,1.68575 -1.01714,1.68575 -0.22418,0 -0.27547,0.2138 -0.11398,0.47494 0.53813,0.87069 0.93444,0.49754 3.27887,-3.08759 1.28091,-1.95881 2.50982,-3.5615 2.73085,-3.5615 0.22104,0 0.4019,-0.22395 0.4019,-0.4977 0,-0.27376 0.58773,-1.01501 1.30607,-1.64726 1.74393,-1.53494 3.82625,-1.52777 5.15429,0.0169 0.91303,1.0626 1.0135,1.66392 0.89281,5.34302 -0.0749,2.28011 -0.36914,5.10742 -0.65405,6.28289 -0.54042,2.22954 -0.89436,4.38302 -0.96085,5.84598 -0.0242,0.51086 -0.25596,0.72512 -0.57403,0.52852 -0.38468,-0.23772 -0.40033,-0.0898 -0.0559,0.52571 0.29341,0.52427 0.32083,1.40872 0.0708,2.2808 -0.22467,0.78347 -0.2877,1.90592 -0.14009,2.49432 0.1993,0.79436 -0.0169,1.22725 -0.84176,1.68114 -2.47833,1.36443 -4.92571,-0.49236 -4.09509,-3.10689 0.25566,-0.80482 0.53316,-1.89073 0.61662,-2.41316 0.0836,-0.52244 0.18748,-0.94987 0.23096,-0.94987 0.0436,0 0.14153,-0.42744 0.21792,-0.94985 0.0764,-0.52245 0.40009,-2.33907 0.71945,-4.03697 0.89288,-4.74685 0.9682,-7.97001 0.19327,-8.2674 -0.37424,-0.14344 -0.65573,0.0478 -0.65573,0.4459 0,0.38361 -0.32057,0.69748 -0.71238,0.69748 -0.39182,0 -0.7124,0.17346 -0.7124,0.38537 0,0.21188 -0.47583,0.89613 -1.05737,1.52038 -0.58156,0.62419 -1.12742,1.65798 -1.21304,2.29723 -0.0855,0.63927 -0.73959,2.03887 -1.45332,3.11027 -0.7137,1.07139 -1.71732,2.80286 -2.23025,3.84774 -0.51292,1.04482 -1.33926,2.27373 -1.83638,2.73085 -0.49709,0.45712 -0.73808,0.83112 -0.53552,0.83112 0.20246,0 0.13015,0.28682 -0.16067,0.6374 -0.29093,0.35054 -0.38835,0.77797 -0.21645,0.94986 0.17201,0.17176 0.073,0.31249 -0.22008,0.31249 -0.2929,0 -0.67148,0.74042 -0.84123,1.64535 -0.39385,2.0994 -1.02301,2.55732 -2.93727,2.1379 z m 6.05248,-11.56886 c 0,-0.45056 -1.42164,-0.67762 -1.67509,-0.26755 -0.15433,0.24981 0.15945,0.45419 0.69719,0.45419 0.53784,0 0.9779,-0.084 0.9779,-0.18674 z m -3.32453,-0.76324 c 0,-0.2612 -0.0943,-0.47491 -0.20945,-0.47491 -0.11528,0 -0.34154,0.2138 -0.503,0.47491 -0.16138,0.26123 -0.0673,0.47494 0.20948,0.47494 0.27661,0 0.50294,-0.21381 0.50294,-0.47494 z m 4.98681,-4.2744 c 0.16162,-0.26124 0.0673,-0.47493 -0.20945,-0.47493 -0.27663,0 -0.50298,0.2138 -0.50298,0.47493 0,0.26121 0.0943,0.47493 0.20945,0.47493 0.11528,0 0.34153,-0.21379 0.50298,-0.47493 z m 5.22427,-4.79248 c 0.86691,-0.41189 0.85327,-0.43273 -0.15626,-0.23868 -0.85413,0.16403 -1.04099,0.0427 -0.82026,-0.53239 0.23676,-0.61718 0.16284,-0.64275 -0.4322,-0.14906 -0.39492,0.32778 -0.60093,0.78544 -0.45774,1.01706 0.3142,0.50841 0.62648,0.4922 1.86646,-0.0969 z m 3.20582,-2.17115 c -0.32652,-0.1316 -0.86082,-0.1316 -1.18733,0 -0.32653,0.1316 -0.0594,0.23966 0.59368,0.23966 0.653,0 0.92016,-0.10775 0.59365,-0.23966 z m -33.60163,23.2693 c -3.72845,-0.81196 -6.85286,-4.64612 -6.13069,-7.52338 0.29537,-1.1769 -0.40145,-1.66608 -0.99812,-0.70065 -0.16405,0.2655 -0.53357,0.33726 -0.82114,0.15946 -0.33209,-0.20536 -0.41659,-0.0465 -0.23168,0.43582 0.19906,0.51888 -0.63461,1.67337 -2.63549,3.64965 -3.24224,3.20228 -5.5937,4.22192 -7.61378,3.30153 -2.96668,-1.3517 -2.66936,-5.5484 0.92208,-13.01441 0.87913,-1.82759 1.59841,-3.5908 1.59841,-3.9182 0,-0.32743 0.1998,-0.59533 0.4442,-0.59533 0.2443,0 0.71466,-0.74802 1.04528,-1.66226 0.33058,-0.91427 0.75745,-1.66226 0.94861,-1.66226 0.19111,0 0.49635,-0.48088 0.67823,-1.06862 0.40307,-1.30238 6.19338,-6.95553 7.71937,-7.53652 1.76674,-0.67265 3.20259,-0.48774 4.12476,0.53124 0.47278,0.52243 1.09943,0.94986 1.39258,0.94986 0.7961,0 3.59422,2.69538 3.59422,3.46228 0,0.99959 -1.42679,3.66176 -1.96255,3.66176 -0.25749,0 -0.33518,0.21525 -0.1725,0.47816 0.16259,0.26299 -0.10677,1.06444 -0.59853,1.78102 -1.04674,1.52526 -2.59642,6.20901 -2.2434,6.78026 0.13385,0.21646 0.0217,0.53002 -0.24715,0.69671 -0.26972,0.16669 -0.37656,0.48727 -0.23749,0.71238 0.13912,0.22517 0.0589,0.52932 -0.17853,0.67602 -0.71242,0.44029 -0.1029,4.24025 0.82946,5.17282 1.12267,1.12265 3.94583,1.74725 6.48949,1.43572 2.14083,-0.26217 2.84231,0.21428 2.39429,1.62591 -0.33143,1.04415 -1.52143,1.7944 -3.55426,2.24093 -1.265,0.27781 -1.51293,0.21768 -1.2208,-0.29583 0.29556,-0.51969 0.24272,-0.52954 -0.27306,-0.0507 -0.64369,0.59748 -1.31143,0.65781 -3.06175,0.27662 z m -13.0473,-7.03613 c 0.25384,0.15704 0.46152,-0.0479 0.46152,-0.45521 0,-0.41168 0.40202,-0.74043 0.90542,-0.74043 0.64474,0 0.83972,-0.25117 0.6773,-0.87226 -0.14969,-0.57314 0.1911,-1.14691 0.99434,-1.67323 0.67233,-0.44054 1.22242,-1.02948 1.22242,-1.30878 0,-0.82873 1.74178,-2.79145 2.14984,-2.42252 0.20679,0.18701 0.24197,-0.0338 0.078,-0.49105 -0.16403,-0.45712 -0.0913,-0.83113 0.16186,-0.83113 0.25301,0 0.46003,-0.32058 0.46003,-0.71242 0,-0.3918 0.19061,-0.71238 0.42336,-0.71238 0.23289,0 0.76542,-0.85488 1.18351,-1.89975 0.41807,-1.04482 0.99844,-1.89972 1.28971,-1.89972 0.29128,0 0.39898,-0.34037 0.23941,-0.75637 -0.1918,-0.50012 0.0217,-0.8381 0.63253,-0.99763 0.85673,-0.22397 0.8319,-0.31947 -0.34709,-1.3336 l -1.26986,-1.09228 -1.78814,0.91224 c -0.98349,0.50177 -1.78817,1.09044 -1.78817,1.30818 0,0.21767 -0.48089,0.9276 -1.06858,1.57739 -0.58773,0.6498 -1.59845,2.17704 -2.24604,3.39389 -0.64758,1.21686 -1.29993,2.21245 -1.44971,2.21245 -0.14985,0 -0.65657,1.06862 -1.12621,2.37468 -0.49709,1.38236 -1.14508,2.37467 -1.55066,2.37467 -0.48056,0 -0.60316,0.29466 -0.3952,0.94986 0.16596,0.52244 0.12681,0.95031 -0.0868,0.95082 -0.21355,4e-4 -0.44354,0.77437 -0.51117,1.71966 l -0.12296,1.71872 1.20499,-0.78951 c 0.66271,-0.43428 1.41265,-0.66121 1.66649,-0.50433 z m -25.65987,4.02863 c -0.65304,-0.51081 -1.40867,-0.9335 -1.67923,-0.9393 -0.27055,-0.006 -0.51936,-0.38458 -0.55291,-0.8417 -0.0957,-1.30604 -0.15561,-2.66734 -0.1505,-3.44327 0.003,-0.39184 -0.0897,-1.46043 -0.20437,-2.37468 -0.11479,-0.91427 0.0317,-2.51716 0.32508,-3.56202 0.67876,-2.41546 0.57239,-2.03065 1.24732,-4.51188 0.97252,-3.57508 5.61763,-12.3448 6.53991,-12.347 0.54193,-0.002 1.23425,1.52627 1.29098,2.84831 0.0417,0.97191 -1.22753,4.27442 -1.6427,4.27442 -0.18433,0 -0.22323,0.42744 -0.0868,0.94987 0.17539,0.67079 0.0144,0.94987 -0.54742,0.94987 -0.4377,0 -0.68792,0.17467 -0.55597,0.38811 0.13191,0.21332 -0.0613,1.26288 -0.42992,2.33208 -0.90946,2.63976 -1.22324,4.16181 -1.51626,7.35487 -0.33909,3.69505 0.0563,5.12247 1.34995,4.87333 1.25367,-0.24134 2.78708,0.53823 2.78708,1.41704 0,1.04063 -2.81527,3.58291 -3.95474,3.57125 -0.56764,-0.006 -1.56635,-0.4285 -2.21941,-0.9393 z m 282.3093,-2.9133 c -0.13993,-0.22614 -0.64464,-0.41124 -1.12187,-0.41124 -0.52005,0 -1.17491,-0.64727 -1.6343,-1.61532 -0.96025,-2.02365 -0.96561,-1.94791 0.23556,-3.32954 1.22515,-1.40899 2.80957,-1.85663 4.41335,-1.24686 1.50051,0.57046 1.9344,2.16431 1.26551,4.64847 -0.39605,1.47076 -0.78827,1.96125 -1.70913,2.13727 -0.65725,0.12569 -1.30944,0.0435 -1.44925,-0.18287 z"
     id="path3346"
     inkscape:connector-curvature="0" />
</svg>
